G04 FreePCB version 1.359*
G04 W:\Projects\14\1417 - USB PIC\FreePCB\CAM\bottom_copper.grb*
G04 bottom copper layer *
G04 Scale: 100 percent, Rotated: No, Reflected: No *
%FSLAX24Y24*%
%MOIN*%
%LN bottom copper *%
G04 Rounded Rectangle Macro, params: W/2, H/2, R *
%AMRNDREC*
21,1,$1+$1,$2+$2-$3-$3,0,0,0*
21,1,$1+$1-$3-$3,$2+$2,0,0,0*
1,1,$3+$3,$1-$3,$2-$3*
1,1,$3+$3,$3-$1,$2-$3*
1,1,$3+$3,$1-$3,$3-$2*
1,1,$3+$3,$3-$1,$3-$2*%
G04 Rectangular Thermal Macro, params: W/2, H/2, T/2 *
%AMRECTHERM*
$4=$3/2*
21,1,$1-$3,$2-$3,0-$1/2-$4,0-$2/2-$4,0*
21,1,$1-$3,$2-$3,0-$1/2-$4,$2/2+$4,0*
21,1,$1-$3,$2-$3,$1/2+$4,0-$2/2-$4,0*
21,1,$1-$3,$2-$3,$1/2+$4,$2/2+$4,0*%
%ADD10RECTHERM,0.024843X0.024843X0.009843*%
%ADD11C,0.001000*%
%ADD12R,0.049685X0.049685*%
%ADD13R,0.089685X0.089685*%
%ADD14C,0.089685*%
%AMTHERM15*7,0,0,0.089685,0.070000,0.019685,45.0*%
%ADD15THERM15*%
%AMTHERM16*7,0,0,0.098425,0.078740,0.019685,45.0*%
%ADD16THERM16*%
%AMTHERM17*7,0,0,0.295685,0.276000,0.019685,45.0*%
%ADD17THERM17*%
%ADD18C,0.059685*%
%ADD19C,0.039685*%
%ADD20R,0.030000X0.030000*%
%ADD21R,0.070000X0.070000*%
%ADD22C,0.070000*%
%ADD23C,0.078740*%
%ADD24C,0.276000*%
%ADD25C,0.040000*%
%ADD26C,0.020000*%
G90*
G70D02*

G04 Step and Repeat for panelization *

G04 ----------------------- Draw copper area (positive)*
G36*
G01X15157Y196D02*
G01X196Y196D01*
G01X196Y23031D01*
G01X15157Y23031D01*
G01X15157Y196D01*
G37*

G04 -------------------- Draw copper area clearances (negative)*
%LPC*%

G04 Draw clearances for pads*
G54D10*
G01X6992Y787D03*
G54D11*
G54D12*
G01X6392Y787D03*
G01X6968Y16835D03*
G54D10*
G01X6968Y16235D03*
G54D11*
G54D13*
G01X13885Y5614D03*
G54D14*
G01X13885Y6614D03*
G54D15*
G01X13885Y7614D03*
G54D11*
G54D15*
G01X13885Y8614D03*
G54D11*
G54D15*
G01X13885Y9614D03*
G54D11*
G54D15*
G01X13885Y10614D03*
G54D11*
G54D15*
G01X13885Y11614D03*
G54D11*
G54D15*
G01X13885Y12614D03*
G54D11*
G54D15*
G01X13885Y13614D03*
G54D11*
G54D15*
G01X13885Y14614D03*
G54D11*
G54D15*
G01X13885Y15614D03*
G54D11*
G54D15*
G01X13885Y16614D03*
G54D11*
G54D15*
G01X13885Y17614D03*
G54D11*
G54D14*
G01X12885Y17614D03*
G01X12885Y16614D03*
G01X12885Y15614D03*
G01X12885Y14614D03*
G01X12885Y13614D03*
G01X12885Y12614D03*
G01X12885Y11614D03*
G01X12885Y10614D03*
G01X12885Y9614D03*
G01X12885Y8614D03*
G01X12885Y7614D03*
G01X12885Y6614D03*
G54D15*
G01X12885Y5614D03*
G54D11*
G54D12*
G01X5472Y16235D03*
G54D10*
G01X5472Y16835D03*
G54D11*
G54D13*
G01X1586Y17614D03*
G54D14*
G01X1586Y16614D03*
G54D15*
G01X1586Y15614D03*
G54D11*
G54D15*
G01X1586Y14614D03*
G54D11*
G54D15*
G01X1586Y13614D03*
G54D11*
G54D15*
G01X1586Y12614D03*
G54D11*
G54D15*
G01X1586Y11614D03*
G54D11*
G54D15*
G01X1586Y10614D03*
G54D11*
G54D15*
G01X1586Y9614D03*
G54D11*
G54D15*
G01X1586Y8614D03*
G54D11*
G54D15*
G01X1586Y7614D03*
G54D11*
G54D15*
G01X1586Y6614D03*
G54D11*
G54D15*
G01X1586Y5614D03*
G54D11*
G54D14*
G01X2586Y5614D03*
G01X2586Y6614D03*
G01X2586Y7614D03*
G01X2586Y8614D03*
G01X2586Y9614D03*
G01X2586Y10614D03*
G01X2586Y11614D03*
G01X2586Y12614D03*
G01X2586Y13614D03*
G01X2586Y14614D03*
G01X2586Y15614D03*
G01X2586Y16614D03*
G54D15*
G01X2586Y17614D03*
G54D11*
G54D16*
G01X8267Y21850D03*
G54D11*
G54D16*
G01X7086Y21850D03*
G54D11*
G54D17*
G01X1968Y1968D03*
G54D11*
G54D17*
G01X13385Y1968D03*
G54D11*
G54D17*
G01X13385Y21259D03*
G54D11*
G54D17*
G01X1968Y21259D03*
G54D11*

G04 Draw clearances for traces*
G54D18*
G01X6968Y5629D03*
G01X6968Y13897D03*
G54D19*
G01X6968Y5629D02*
G01X6968Y13897D01*
G54D18*
G01X7480Y8622D03*
G54D19*
G01X7480Y8622D02*
G01X7480Y16692D01*
G54D18*
G01X7952Y17165D03*
G54D19*
G01X7480Y16692D02*
G01X7952Y17165D01*
G54D18*
G01X9173Y787D03*
G54D19*
G01X9173Y787D02*
G01X7480Y2480D01*
G01X7480Y2480D02*
G01X7480Y8622D01*
G54D18*
G01X10708Y15629D03*
G01X9448Y15629D03*
G54D19*
G01X10708Y15629D02*
G01X9448Y15629D01*
G54D18*
G01X8976Y9606D03*
G54D19*
G01X8976Y9606D02*
G01X8976Y14645D01*
G01X8976Y14645D02*
G01X8464Y15157D01*
G54D18*
G01X8464Y17165D03*
G54D19*
G01X8464Y15157D02*
G01X8464Y17165D01*
G54D18*
G01X3779Y14133D03*
G54D19*
G01X3779Y14133D02*
G01X3779Y18228D01*
G01X3779Y18228D02*
G01X5078Y19527D01*
G01X5078Y19527D02*
G01X8739Y19527D01*
G54D18*
G01X8976Y19291D03*
G54D19*
G01X8739Y19527D02*
G01X8976Y19291D01*
G54D18*
G01X6456Y6614D03*
G01X6456Y13897D03*
G54D19*
G01X6456Y6614D02*
G01X6456Y13897D01*
G54D18*
G01X8464Y10629D03*
G01X8464Y13897D03*
G54D19*
G01X8464Y10629D02*
G01X8464Y13897D01*
G54D18*
G01X9960Y11141D03*
G01X9960Y13110D03*
G54D19*
G01X9960Y11141D02*
G01X9960Y13110D01*
G54D18*
G01X9448Y12125D03*
G01X9448Y13897D03*
G54D19*
G01X9448Y12125D02*
G01X9448Y13897D01*
G54D18*
G01X6968Y17716D03*
G54D19*
G01X6968Y17716D02*
G01X6968Y16835D01*
G54D18*
G01X10708Y5629D03*
G54D19*
G01X10708Y5629D02*
G01X11259Y6180D01*
G01X11259Y6180D02*
G01X11259Y15867D01*
G01X11259Y15867D02*
G01X9410Y17716D01*
G01X9410Y17716D02*
G01X6968Y17716D01*
G54D18*
G01X4251Y15118D03*
G54D19*
G01X4251Y15118D02*
G01X4251Y17953D01*
G01X4251Y17953D02*
G01X5354Y19055D01*
G01X5354Y19055D02*
G01X8070Y19055D01*
G01X8070Y19055D02*
G01X8543Y18582D01*
G54D18*
G01X9448Y18582D03*
G54D19*
G01X8543Y18582D02*
G01X9448Y18582D01*
G54D18*
G01X7952Y11614D03*
G01X7952Y13897D03*
G54D19*
G01X7952Y11614D02*
G01X7952Y13897D01*
G54D18*
G01X4763Y7598D03*
G54D19*
G01X4763Y7598D02*
G01X4763Y17716D01*
G01X4763Y17716D02*
G01X5629Y18582D01*
G54D18*
G01X7480Y18582D03*
G54D19*
G01X5629Y18582D02*
G01X7480Y18582D01*
G54D18*
G01X5472Y15629D03*
G54D19*
G01X5472Y15629D02*
G01X5472Y16235D01*
G54D18*
G01X6181Y787D03*
G54D19*
G01X6181Y787D02*
G01X6392Y787D01*

G04 Draw clearances for text*

G04 -------------- Draw Parts, Pads, Traces, Vias and Text (positive)*
%LPD*%
G04 Draw part U2*
G04 Draw part C3*
G54D20*
G01X6992Y787D03*
G01X6392Y787D03*
G04 Draw part R2*
G04 Draw part C4*
G04 Draw part R3*
G04 Draw part C2*
G01X6968Y16835D03*
G01X6968Y16235D03*
G04 Draw part C6*
G04 Draw part C5*
G04 Draw part R1*
G04 Draw part J3*
G54D21*
G01X13885Y5614D03*
G54D22*
G01X13885Y6614D03*
G01X13885Y7614D03*
G01X13885Y8614D03*
G01X13885Y9614D03*
G01X13885Y10614D03*
G01X13885Y11614D03*
G01X13885Y12614D03*
G01X13885Y13614D03*
G01X13885Y14614D03*
G01X13885Y15614D03*
G01X13885Y16614D03*
G01X13885Y17614D03*
G01X12885Y17614D03*
G01X12885Y16614D03*
G01X12885Y15614D03*
G01X12885Y14614D03*
G01X12885Y13614D03*
G01X12885Y12614D03*
G01X12885Y11614D03*
G01X12885Y10614D03*
G01X12885Y9614D03*
G01X12885Y8614D03*
G01X12885Y7614D03*
G01X12885Y6614D03*
G01X12885Y5614D03*
G04 Draw part C1*
G54D20*
G01X5472Y16235D03*
G01X5472Y16835D03*
G04 Draw part R6*
G04 Draw part R7*
G04 Draw part R9*
G04 Draw part R11*
G04 Draw part R13*
G04 Draw part R15*
G04 Draw part R17*
G04 Draw part R19*
G04 Draw part R21*
G04 Draw part R23*
G04 Draw part R25*
G04 Draw part R27*
G04 Draw part R29*
G04 Draw part J2*
G54D21*
G01X1586Y17614D03*
G54D22*
G01X1586Y16614D03*
G01X1586Y15614D03*
G01X1586Y14614D03*
G01X1586Y13614D03*
G01X1586Y12614D03*
G01X1586Y11614D03*
G01X1586Y10614D03*
G01X1586Y9614D03*
G01X1586Y8614D03*
G01X1586Y7614D03*
G01X1586Y6614D03*
G01X1586Y5614D03*
G01X2586Y5614D03*
G01X2586Y6614D03*
G01X2586Y7614D03*
G01X2586Y8614D03*
G01X2586Y9614D03*
G01X2586Y10614D03*
G01X2586Y11614D03*
G01X2586Y12614D03*
G01X2586Y13614D03*
G01X2586Y14614D03*
G01X2586Y15614D03*
G01X2586Y16614D03*
G01X2586Y17614D03*
G04 Draw part R4*
G04 Draw part R5*
G04 Draw part R8*
G04 Draw part R10*
G04 Draw part R12*
G04 Draw part R14*
G04 Draw part R16*
G04 Draw part R18*
G04 Draw part R20*
G04 Draw part R22*
G04 Draw part R24*
G04 Draw part R26*
G04 Draw part R28*
G04 Draw part U1*
G04 Draw part J1*
G54D23*
G01X8267Y21850D03*
G01X7086Y21850D03*
G04 Draw part J4*
G54D24*
G01X1968Y1968D03*
G04 Draw part J5*
G01X13385Y1968D03*
G04 Draw part J6*
G01X13385Y21259D03*
G04 Draw part J7*
G01X1968Y21259D03*
G04 Draw part D1*

G04 Draw traces*
G54D25*
G01X6968Y5629D03*
G54D26*
G01X6968Y5629D02*
G01X6968Y13897D01*
G54D25*
G01X6968Y13897D03*
G01X7480Y8622D03*
G54D26*
G01X7480Y8622D02*
G01X7480Y16692D01*
G01X7480Y16692D02*
G01X7952Y17165D01*
G54D25*
G01X7952Y17165D03*
G01X9173Y787D03*
G54D26*
G01X9173Y787D02*
G01X7480Y2480D01*
G01X7480Y2480D02*
G01X7480Y8622D01*
G54D25*
G01X10708Y15629D03*
G54D26*
G01X10708Y15629D02*
G01X9448Y15629D01*
G54D25*
G01X9448Y15629D03*
G01X8976Y9606D03*
G54D26*
G01X8976Y9606D02*
G01X8976Y14645D01*
G01X8976Y14645D02*
G01X8464Y15157D01*
G01X8464Y15157D02*
G01X8464Y17165D01*
G54D25*
G01X8464Y17165D03*
G01X3779Y14133D03*
G54D26*
G01X3779Y14133D02*
G01X3779Y18228D01*
G01X3779Y18228D02*
G01X5078Y19527D01*
G01X5078Y19527D02*
G01X8739Y19527D01*
G01X8739Y19527D02*
G01X8976Y19291D01*
G54D25*
G01X8976Y19291D03*
G01X6456Y6614D03*
G54D26*
G01X6456Y6614D02*
G01X6456Y13897D01*
G54D25*
G01X6456Y13897D03*
G01X8464Y10629D03*
G54D26*
G01X8464Y10629D02*
G01X8464Y13897D01*
G54D25*
G01X8464Y13897D03*
G01X9960Y11141D03*
G54D26*
G01X9960Y11141D02*
G01X9960Y13110D01*
G54D25*
G01X9960Y13110D03*
G54D26*
G01X5472Y16835D02*
G01X5472Y17716D01*
G54D25*
G01X5472Y17716D03*
G01X7165Y787D03*
G54D26*
G01X7165Y787D02*
G01X6992Y787D01*
G54D25*
G01X9094Y2952D03*
G01X5748Y12755D03*
G01X9448Y12125D03*
G54D26*
G01X9448Y12125D02*
G01X9448Y13897D01*
G54D25*
G01X9448Y13897D03*
G01X6968Y17716D03*
G54D26*
G01X6968Y17716D02*
G01X6968Y16835D01*
G54D25*
G01X10708Y5629D03*
G54D26*
G01X10708Y5629D02*
G01X11259Y6180D01*
G01X11259Y6180D02*
G01X11259Y15867D01*
G01X11259Y15867D02*
G01X9410Y17716D01*
G01X9410Y17716D02*
G01X6968Y17716D01*
G54D25*
G01X4251Y15118D03*
G54D26*
G01X4251Y15118D02*
G01X4251Y17953D01*
G01X4251Y17953D02*
G01X5354Y19055D01*
G01X5354Y19055D02*
G01X8070Y19055D01*
G01X8070Y19055D02*
G01X8543Y18582D01*
G01X8543Y18582D02*
G01X9448Y18582D01*
G54D25*
G01X9448Y18582D03*
G01X7952Y11614D03*
G54D26*
G01X7952Y11614D02*
G01X7952Y13897D01*
G54D25*
G01X7952Y13897D03*
G01X4763Y7598D03*
G54D26*
G01X4763Y7598D02*
G01X4763Y17716D01*
G01X4763Y17716D02*
G01X5629Y18582D01*
G01X5629Y18582D02*
G01X7480Y18582D01*
G54D25*
G01X7480Y18582D03*
G01X5472Y15629D03*
G54D26*
G01X5472Y15629D02*
G01X5472Y16235D01*
G54D25*
G01X6181Y787D03*
G54D26*
G01X6181Y787D02*
G01X6392Y787D01*

G04 Draw Text*
M00*
M02*
