;Holesize 1 =   40.0 PLATED MILS
;Holesize 2 =   39.0 PLATED MILS
;Holesize 3 =  138.0 PLATED MILS
;Holesize 4 =   20.0 PLATED MILS
M48
INCH,00.0000
T01C0.040
T02C0.039
T03C0.138
T04C0.020
%
G05
G90
T01
X013885Y005614
X013885Y006614
X013885Y007614
X013885Y008614
X013885Y009614
X013885Y010614
X013885Y011614
X013885Y012614
X013885Y013614
X013885Y014614
X013885Y015614
X013885Y016614
X013885Y017614
X012885Y017614
X012885Y016614
X012885Y015614
X012885Y014614
X012885Y013614
X012885Y012614
X012885Y011614
X012885Y010614
X012885Y009614
X012885Y008614
X012885Y007614
X012885Y006614
X012885Y005614
X001586Y017614
X001586Y016614
X001586Y015614
X001586Y014614
X001586Y013614
X001586Y012614
X001586Y011614
X001586Y010614
X001586Y009614
X001586Y008614
X001586Y007614
X001586Y006614
X001586Y005614
X002586Y005614
X002586Y006614
X002586Y007614
X002586Y008614
X002586Y009614
X002586Y010614
X002586Y011614
X002586Y012614
X002586Y013614
X002586Y014614
X002586Y015614
X002586Y016614
X002586Y017614
T02
X008267Y021850
X007086Y021850
T03
X001968Y001968
X013385Y001968
X013385Y021259
X001968Y021259
T04
X006968Y005629
X006968Y013897
X007480Y008622
X007952Y017165
X009173Y000787
X010708Y015629
X009448Y015629
X008976Y009606
X008464Y017165
X003779Y014133
X008976Y019291
X006456Y006614
X006456Y013897
X008464Y010629
X008464Y013897
X009960Y011141
X009960Y013110
X005472Y017716
X007165Y000787
X009094Y002952
X005748Y012755
X009448Y012125
X009448Y013897
X006968Y017716
X010708Y005629
X004251Y015118
X009448Y018582
X007952Y011614
X007952Y013897
X004763Y007598
X007480Y018582
X005472Y015629
X006181Y000787
M30
