G04 FreePCB version 1.359*
G04 W:\Projects\14\1417 - USB PIC\FreePCB\CAM\top_silk.grb*
G04 top silk layer *
G04 Scale: 100 percent, Rotated: No, Reflected: No *
%FSLAX24Y24*%
%MOIN*%
%LN top silk *%
G04 Rounded Rectangle Macro, params: W/2, H/2, R *
%AMRNDREC*
21,1,$1+$1,$2+$2-$3-$3,0,0,0*
21,1,$1+$1-$3-$3,$2+$2,0,0,0*
1,1,$3+$3,$1-$3,$2-$3*
1,1,$3+$3,$3-$1,$2-$3*
1,1,$3+$3,$1-$3,$3-$2*
1,1,$3+$3,$3-$1,$3-$2*%
G04 Rectangular Thermal Macro, params: W/2, H/2, T/2 *
%AMRECTHERM*
$4=$3/2*
21,1,$1-$3,$2-$3,0-$1/2-$4,0-$2/2-$4,0*
21,1,$1-$3,$2-$3,0-$1/2-$4,$2/2+$4,0*
21,1,$1-$3,$2-$3,$1/2+$4,0-$2/2-$4,0*
21,1,$1-$3,$2-$3,$1/2+$4,$2/2+$4,0*%
%ADD10C,0.008000*%
%ADD11C,0.005000*%
%ADD12C,0.010000*%
%ADD13C,0.007000*%
G90*
G70D02*

G04 Step and Repeat for panelization *

G04 -------------- Draw Parts, Pads, Traces, Vias and Text (positive)*
%LPD*%
G04 Draw part U2*
G04 draw part outline for part U2*
G54D10*
G01X4677Y1487D02*
G01X4677Y87D01*
G04 draw value for part U2*
G54D11*
G01X4939Y2059D02*
G01X4939Y1678D01*
G01X5102Y2059D02*
G01X4939Y2059D01*
G01X5102Y2059D02*
G01X5157Y2041D01*
G01X5157Y2041D02*
G01X5175Y2023D01*
G01X5175Y2023D02*
G01X5193Y1987D01*
G01X5193Y1987D02*
G01X5193Y1932D01*
G01X5193Y1932D02*
G01X5175Y1896D01*
G01X5175Y1896D02*
G01X5157Y1878D01*
G01X5157Y1878D02*
G01X5102Y1859D01*
G01X4939Y1859D02*
G01X5102Y1859D01*
G01X5339Y2059D02*
G01X5339Y1678D01*
G01X5739Y2005D02*
G01X5757Y1968D01*
G01X5702Y2041D02*
G01X5739Y2005D01*
G01X5666Y2059D02*
G01X5702Y2041D01*
G01X5593Y2059D02*
G01X5666Y2059D01*
G01X5593Y2059D02*
G01X5557Y2041D01*
G01X5557Y2041D02*
G01X5520Y2005D01*
G01X5520Y2005D02*
G01X5502Y1968D01*
G01X5502Y1968D02*
G01X5484Y1914D01*
G01X5484Y1914D02*
G01X5484Y1823D01*
G01X5484Y1823D02*
G01X5502Y1768D01*
G01X5502Y1768D02*
G01X5520Y1732D01*
G01X5520Y1732D02*
G01X5557Y1696D01*
G01X5557Y1696D02*
G01X5593Y1678D01*
G01X5666Y1678D02*
G01X5593Y1678D01*
G01X5702Y1696D02*
G01X5666Y1678D01*
G01X5739Y1732D02*
G01X5702Y1696D01*
G01X5757Y1768D02*
G01X5739Y1732D01*
G01X5902Y2059D02*
G01X5902Y1678D01*
G01X6084Y1932D02*
G01X5902Y1750D01*
G01X5975Y1823D02*
G01X6102Y1678D01*
G01X6248Y2059D02*
G01X6266Y2041D01*
G01X6284Y2059D02*
G01X6266Y2041D01*
G01X6266Y2078D02*
G01X6284Y2059D01*
G01X6266Y2078D02*
G01X6248Y2059D01*
G01X6266Y1932D02*
G01X6266Y1678D01*
G01X6484Y2059D02*
G01X6484Y1750D01*
G01X6484Y1750D02*
G01X6502Y1696D01*
G01X6502Y1696D02*
G01X6538Y1678D01*
G01X6575Y1678D02*
G01X6538Y1678D01*
G01X6557Y1932D02*
G01X6429Y1932D01*
G01X6957Y2059D02*
G01X6757Y2059D01*
G01X6957Y2059D02*
G01X6848Y1914D01*
G01X6902Y1914D02*
G01X6848Y1914D01*
G01X6902Y1914D02*
G01X6939Y1896D01*
G01X6939Y1896D02*
G01X6957Y1878D01*
G01X6957Y1878D02*
G01X6975Y1823D01*
G01X6975Y1823D02*
G01X6975Y1787D01*
G01X6975Y1787D02*
G01X6957Y1732D01*
G01X6957Y1732D02*
G01X6920Y1696D01*
G01X6920Y1696D02*
G01X6866Y1678D01*
G01X6811Y1678D02*
G01X6866Y1678D01*
G01X6757Y1696D02*
G01X6811Y1678D01*
G01X6739Y1714D02*
G01X6757Y1696D01*
G01X6720Y1750D02*
G01X6739Y1714D01*
G04 Draw part C3*
G04 Draw part R2*
G04 draw part outline for part R2*
G04 draw value for part R2*
G01X3952Y605D02*
G01X3961Y587D01*
G01X3924Y632D02*
G01X3952Y605D01*
G01X3924Y632D02*
G01X4115Y632D01*
G01X3924Y760D02*
G01X3933Y732D01*
G01X3933Y732D02*
G01X3961Y714D01*
G01X3961Y714D02*
G01X4006Y705D01*
G01X4006Y705D02*
G01X4033Y705D01*
G01X4033Y705D02*
G01X4079Y714D01*
G01X4079Y714D02*
G01X4106Y732D01*
G01X4106Y732D02*
G01X4115Y760D01*
G01X4115Y778D02*
G01X4115Y760D01*
G01X4106Y805D02*
G01X4115Y778D01*
G01X4079Y823D02*
G01X4106Y805D01*
G01X4033Y832D02*
G01X4079Y823D01*
G01X4006Y832D02*
G01X4033Y832D01*
G01X3961Y823D02*
G01X4006Y832D01*
G01X3933Y805D02*
G01X3961Y823D01*
G01X3924Y778D02*
G01X3933Y805D01*
G01X3924Y760D02*
G01X3924Y778D01*
G01X3924Y905D02*
G01X4115Y905D01*
G01X3988Y996D02*
G01X4079Y905D01*
G01X4043Y941D02*
G01X4115Y1005D01*
G04 Draw part C4*
G04 draw part outline for part C4*
G04 draw value for part C4*
G01X6020Y12430D02*
G01X6029Y12412D01*
G01X5993Y12457D02*
G01X6020Y12430D01*
G01X5993Y12457D02*
G01X6184Y12457D01*
G01X5993Y12584D02*
G01X6002Y12557D01*
G01X6002Y12557D02*
G01X6029Y12539D01*
G01X6029Y12539D02*
G01X6074Y12530D01*
G01X6074Y12530D02*
G01X6102Y12530D01*
G01X6102Y12530D02*
G01X6147Y12539D01*
G01X6147Y12539D02*
G01X6174Y12557D01*
G01X6174Y12557D02*
G01X6184Y12584D01*
G01X6184Y12602D02*
G01X6184Y12584D01*
G01X6174Y12630D02*
G01X6184Y12602D01*
G01X6147Y12648D02*
G01X6174Y12630D01*
G01X6102Y12657D02*
G01X6147Y12648D01*
G01X6074Y12657D02*
G01X6102Y12657D01*
G01X6029Y12648D02*
G01X6074Y12657D01*
G01X6002Y12630D02*
G01X6029Y12648D01*
G01X5993Y12602D02*
G01X6002Y12630D01*
G01X5993Y12584D02*
G01X5993Y12602D01*
G01X5993Y12784D02*
G01X6002Y12757D01*
G01X6002Y12757D02*
G01X6029Y12739D01*
G01X6029Y12739D02*
G01X6074Y12730D01*
G01X6074Y12730D02*
G01X6102Y12730D01*
G01X6102Y12730D02*
G01X6147Y12739D01*
G01X6147Y12739D02*
G01X6174Y12757D01*
G01X6174Y12757D02*
G01X6184Y12784D01*
G01X6184Y12802D02*
G01X6184Y12784D01*
G01X6174Y12830D02*
G01X6184Y12802D01*
G01X6147Y12848D02*
G01X6174Y12830D01*
G01X6102Y12857D02*
G01X6147Y12848D01*
G01X6074Y12857D02*
G01X6102Y12857D01*
G01X6029Y12848D02*
G01X6074Y12857D01*
G01X6002Y12830D02*
G01X6029Y12848D01*
G01X5993Y12802D02*
G01X6002Y12830D01*
G01X5993Y12784D02*
G01X5993Y12802D01*
G01X6056Y12930D02*
G01X6184Y12930D01*
G01X6065Y12957D02*
G01X6093Y12930D01*
G01X6056Y12975D02*
G01X6065Y12957D01*
G01X6056Y13002D02*
G01X6056Y12975D01*
G01X6056Y13002D02*
G01X6065Y13021D01*
G01X6065Y13021D02*
G01X6093Y13030D01*
G01X6093Y13030D02*
G01X6184Y13030D01*
G04 Draw part R3*
G04 draw part outline for part R3*
G04 draw value for part R3*
G01X6586Y13026D02*
G01X6713Y12936D01*
G01X6713Y13072D02*
G01X6713Y12936D01*
G01X6586Y13026D02*
G01X6777Y13026D01*
G01X6586Y13272D02*
G01X6777Y13181D01*
G01X6586Y13272D02*
G01X6586Y13145D01*
G01X6586Y13399D02*
G01X6595Y13372D01*
G01X6595Y13372D02*
G01X6622Y13354D01*
G01X6622Y13354D02*
G01X6667Y13345D01*
G01X6667Y13345D02*
G01X6695Y13345D01*
G01X6695Y13345D02*
G01X6740Y13354D01*
G01X6740Y13354D02*
G01X6767Y13372D01*
G01X6767Y13372D02*
G01X6777Y13399D01*
G01X6777Y13417D02*
G01X6777Y13399D01*
G01X6767Y13445D02*
G01X6777Y13417D01*
G01X6740Y13463D02*
G01X6767Y13445D01*
G01X6695Y13472D02*
G01X6740Y13463D01*
G01X6667Y13472D02*
G01X6695Y13472D01*
G01X6622Y13463D02*
G01X6667Y13472D01*
G01X6595Y13445D02*
G01X6622Y13463D01*
G01X6586Y13417D02*
G01X6595Y13445D01*
G01X6586Y13399D02*
G01X6586Y13417D01*
G01X6704Y13654D02*
G01X6704Y13545D01*
G01X6686Y13654D02*
G01X6704Y13654D01*
G01X6667Y13645D02*
G01X6686Y13654D01*
G01X6658Y13636D02*
G01X6667Y13645D01*
G01X6649Y13617D02*
G01X6658Y13636D01*
G01X6649Y13590D02*
G01X6649Y13617D01*
G01X6649Y13590D02*
G01X6658Y13572D01*
G01X6658Y13572D02*
G01X6677Y13554D01*
G01X6677Y13554D02*
G01X6704Y13545D01*
G01X6704Y13545D02*
G01X6722Y13545D01*
G01X6722Y13545D02*
G01X6749Y13554D01*
G01X6749Y13554D02*
G01X6767Y13572D01*
G01X6767Y13572D02*
G01X6777Y13590D01*
G01X6777Y13617D02*
G01X6777Y13590D01*
G01X6767Y13636D02*
G01X6777Y13617D01*
G01X6749Y13654D02*
G01X6767Y13636D01*
G04 Draw part C2*
G04 Draw part C6*
G04 draw part outline for part C6*
G04 draw value for part C6*
G01X9849Y21320D02*
G01X9831Y21311D01*
G01X9876Y21347D02*
G01X9849Y21320D01*
G01X9876Y21347D02*
G01X9876Y21157D01*
G01X10003Y21347D02*
G01X9976Y21338D01*
G01X9976Y21338D02*
G01X9958Y21311D01*
G01X9958Y21311D02*
G01X9949Y21266D01*
G01X9949Y21266D02*
G01X9949Y21238D01*
G01X9949Y21238D02*
G01X9958Y21193D01*
G01X9958Y21193D02*
G01X9976Y21166D01*
G01X9976Y21166D02*
G01X10003Y21157D01*
G01X10021Y21157D02*
G01X10003Y21157D01*
G01X10049Y21166D02*
G01X10021Y21157D01*
G01X10067Y21193D02*
G01X10049Y21166D01*
G01X10076Y21238D02*
G01X10067Y21193D01*
G01X10076Y21266D02*
G01X10076Y21238D01*
G01X10067Y21311D02*
G01X10076Y21266D01*
G01X10049Y21338D02*
G01X10067Y21311D01*
G01X10021Y21347D02*
G01X10049Y21338D01*
G01X10003Y21347D02*
G01X10021Y21347D01*
G01X10203Y21347D02*
G01X10176Y21338D01*
G01X10176Y21338D02*
G01X10158Y21311D01*
G01X10158Y21311D02*
G01X10149Y21266D01*
G01X10149Y21266D02*
G01X10149Y21238D01*
G01X10149Y21238D02*
G01X10158Y21193D01*
G01X10158Y21193D02*
G01X10176Y21166D01*
G01X10176Y21166D02*
G01X10203Y21157D01*
G01X10221Y21157D02*
G01X10203Y21157D01*
G01X10249Y21166D02*
G01X10221Y21157D01*
G01X10267Y21193D02*
G01X10249Y21166D01*
G01X10276Y21238D02*
G01X10267Y21193D01*
G01X10276Y21266D02*
G01X10276Y21238D01*
G01X10267Y21311D02*
G01X10276Y21266D01*
G01X10249Y21338D02*
G01X10267Y21311D01*
G01X10221Y21347D02*
G01X10249Y21338D01*
G01X10203Y21347D02*
G01X10221Y21347D01*
G01X10349Y21284D02*
G01X10349Y21157D01*
G01X10376Y21275D02*
G01X10349Y21247D01*
G01X10394Y21284D02*
G01X10376Y21275D01*
G01X10421Y21284D02*
G01X10394Y21284D01*
G01X10421Y21284D02*
G01X10440Y21275D01*
G01X10440Y21275D02*
G01X10449Y21247D01*
G01X10449Y21247D02*
G01X10449Y21157D01*
G04 Draw part C5*
G04 draw part outline for part C5*
G54D12*
G01X11318Y2657D02*
G01X11318Y2263D01*
G01X11318Y2263D02*
G01X10728Y1673D01*
G01X10728Y1673D02*
G01X8759Y1673D01*
G01X8759Y1673D02*
G01X8759Y2657D01*
G01X11318Y3248D02*
G01X11318Y3641D01*
G01X11318Y3641D02*
G01X10728Y4232D01*
G01X10728Y4232D02*
G01X8759Y4232D01*
G01X8759Y4232D02*
G01X8759Y3248D01*
G04 draw value for part C5*
G54D11*
G01X9698Y2416D02*
G01X9517Y2162D01*
G01X9789Y2162D02*
G01X9517Y2162D01*
G01X9698Y2416D02*
G01X9698Y2035D01*
G01X10189Y2416D02*
G01X10007Y2035D01*
G01X10189Y2416D02*
G01X9935Y2416D01*
G01X10335Y2289D02*
G01X10335Y2107D01*
G01X10335Y2107D02*
G01X10353Y2053D01*
G01X10353Y2053D02*
G01X10389Y2035D01*
G01X10444Y2035D02*
G01X10389Y2035D01*
G01X10480Y2053D02*
G01X10444Y2035D01*
G01X10535Y2107D02*
G01X10480Y2053D01*
G01X10535Y2289D02*
G01X10535Y2035D01*
G04 Draw part R1*
G04 draw part outline for part R1*
G04 draw value for part R1*
G01X10921Y21359D02*
G01X10894Y21350D01*
G01X10894Y21350D02*
G01X10875Y21323D01*
G01X10875Y21323D02*
G01X10866Y21278D01*
G01X10866Y21278D02*
G01X10866Y21250D01*
G01X10866Y21250D02*
G01X10875Y21205D01*
G01X10875Y21205D02*
G01X10894Y21178D01*
G01X10894Y21178D02*
G01X10921Y21168D01*
G01X10939Y21168D02*
G01X10921Y21168D01*
G01X10966Y21178D02*
G01X10939Y21168D01*
G01X10985Y21205D02*
G01X10966Y21178D01*
G01X10994Y21250D02*
G01X10985Y21205D01*
G01X10994Y21278D02*
G01X10994Y21250D01*
G01X10985Y21323D02*
G01X10994Y21278D01*
G01X10966Y21350D02*
G01X10985Y21323D01*
G01X10939Y21359D02*
G01X10966Y21350D01*
G01X10921Y21359D02*
G01X10939Y21359D01*
G01X11175Y21241D02*
G01X11066Y21241D01*
G01X11175Y21259D02*
G01X11175Y21241D01*
G01X11166Y21278D02*
G01X11175Y21259D01*
G01X11157Y21287D02*
G01X11166Y21278D01*
G01X11139Y21296D02*
G01X11157Y21287D01*
G01X11112Y21296D02*
G01X11139Y21296D01*
G01X11112Y21296D02*
G01X11094Y21287D01*
G01X11094Y21287D02*
G01X11075Y21268D01*
G01X11075Y21268D02*
G01X11066Y21241D01*
G01X11066Y21241D02*
G01X11066Y21223D01*
G01X11066Y21223D02*
G01X11075Y21196D01*
G01X11075Y21196D02*
G01X11094Y21178D01*
G01X11094Y21178D02*
G01X11112Y21168D01*
G01X11139Y21168D02*
G01X11112Y21168D01*
G01X11157Y21178D02*
G01X11139Y21168D01*
G01X11175Y21196D02*
G01X11157Y21178D01*
G04 Draw part J3*
G04 draw part outline for part J3*
G54D12*
G01X11635Y3614D02*
G01X11635Y19614D01*
G01X11635Y19614D02*
G01X15135Y19614D01*
G01X15135Y19614D02*
G01X15135Y12494D01*
G01X15135Y12494D02*
G01X14885Y12494D01*
G01X14885Y12494D02*
G01X14885Y10734D01*
G01X14885Y10734D02*
G01X15135Y10734D01*
G01X15135Y10734D02*
G01X15135Y3614D01*
G01X15135Y3614D02*
G01X11635Y3614D01*
G04 draw value for part J3*
G54D11*
G01X9716Y5228D02*
G01X9716Y4847D01*
G01X9843Y5228D02*
G01X9716Y5228D01*
G01X9843Y5228D02*
G01X9897Y5210D01*
G01X9897Y5210D02*
G01X9934Y5174D01*
G01X9934Y5174D02*
G01X9952Y5137D01*
G01X9952Y5137D02*
G01X9970Y5083D01*
G01X9970Y5083D02*
G01X9970Y4992D01*
G01X9970Y4992D02*
G01X9952Y4937D01*
G01X9952Y4937D02*
G01X9934Y4901D01*
G01X9934Y4901D02*
G01X9897Y4865D01*
G01X9897Y4865D02*
G01X9843Y4847D01*
G01X9716Y4847D02*
G01X9843Y4847D01*
G01X10116Y5228D02*
G01X10134Y5210D01*
G01X10152Y5228D02*
G01X10134Y5210D01*
G01X10134Y5247D02*
G01X10152Y5228D01*
G01X10134Y5247D02*
G01X10116Y5228D01*
G01X10134Y5101D02*
G01X10134Y4847D01*
G01X10516Y5101D02*
G01X10516Y4810D01*
G01X10516Y4810D02*
G01X10497Y4756D01*
G01X10497Y4756D02*
G01X10479Y4737D01*
G01X10479Y4737D02*
G01X10443Y4719D01*
G01X10388Y4719D02*
G01X10443Y4719D01*
G01X10352Y4737D02*
G01X10388Y4719D01*
G01X10479Y5083D02*
G01X10516Y5047D01*
G01X10443Y5101D02*
G01X10479Y5083D01*
G01X10388Y5101D02*
G01X10443Y5101D01*
G01X10388Y5101D02*
G01X10352Y5083D01*
G01X10352Y5083D02*
G01X10316Y5047D01*
G01X10316Y5047D02*
G01X10297Y4992D01*
G01X10297Y4992D02*
G01X10297Y4956D01*
G01X10297Y4956D02*
G01X10316Y4901D01*
G01X10316Y4901D02*
G01X10352Y4865D01*
G01X10352Y4865D02*
G01X10388Y4847D01*
G01X10443Y4847D02*
G01X10388Y4847D01*
G01X10479Y4865D02*
G01X10443Y4847D01*
G01X10516Y4901D02*
G01X10479Y4865D01*
G01X10661Y5228D02*
G01X10679Y5210D01*
G01X10697Y5228D02*
G01X10679Y5210D01*
G01X10679Y5247D02*
G01X10697Y5228D01*
G01X10679Y5247D02*
G01X10661Y5228D01*
G01X10679Y5101D02*
G01X10679Y4847D01*
G01X10897Y5228D02*
G01X10897Y4919D01*
G01X10897Y4919D02*
G01X10916Y4865D01*
G01X10916Y4865D02*
G01X10952Y4847D01*
G01X10988Y4847D02*
G01X10952Y4847D01*
G01X10970Y5101D02*
G01X10843Y5101D01*
G01X11352Y5101D02*
G01X11352Y4847D01*
G01X11315Y5083D02*
G01X11352Y5047D01*
G01X11279Y5101D02*
G01X11315Y5083D01*
G01X11225Y5101D02*
G01X11279Y5101D01*
G01X11225Y5101D02*
G01X11188Y5083D01*
G01X11188Y5083D02*
G01X11152Y5047D01*
G01X11152Y5047D02*
G01X11134Y4992D01*
G01X11134Y4992D02*
G01X11134Y4956D01*
G01X11134Y4956D02*
G01X11152Y4901D01*
G01X11152Y4901D02*
G01X11188Y4865D01*
G01X11188Y4865D02*
G01X11225Y4847D01*
G01X11279Y4847D02*
G01X11225Y4847D01*
G01X11315Y4865D02*
G01X11279Y4847D01*
G01X11352Y4901D02*
G01X11315Y4865D01*
G01X11497Y5228D02*
G01X11497Y4847D01*
G04 Draw part C1*
G04 Draw part R6*
G04 draw part outline for part R6*
G04 draw value for part R6*
G01X10954Y5517D02*
G01X10963Y5490D01*
G01X10963Y5490D02*
G01X10990Y5472D01*
G01X10990Y5472D02*
G01X11035Y5463D01*
G01X11035Y5463D02*
G01X11063Y5463D01*
G01X11063Y5463D02*
G01X11108Y5472D01*
G01X11108Y5472D02*
G01X11135Y5490D01*
G01X11135Y5490D02*
G01X11145Y5517D01*
G01X11145Y5535D02*
G01X11145Y5517D01*
G01X11135Y5563D02*
G01X11145Y5535D01*
G01X11108Y5581D02*
G01X11135Y5563D01*
G01X11063Y5590D02*
G01X11108Y5581D01*
G01X11035Y5590D02*
G01X11063Y5590D01*
G01X10990Y5581D02*
G01X11035Y5590D01*
G01X10963Y5563D02*
G01X10990Y5581D01*
G01X10954Y5535D02*
G01X10963Y5563D01*
G01X10954Y5517D02*
G01X10954Y5535D01*
G01X11072Y5772D02*
G01X11072Y5663D01*
G01X11054Y5772D02*
G01X11072Y5772D01*
G01X11035Y5763D02*
G01X11054Y5772D01*
G01X11026Y5753D02*
G01X11035Y5763D01*
G01X11017Y5735D02*
G01X11026Y5753D01*
G01X11017Y5708D02*
G01X11017Y5735D01*
G01X11017Y5708D02*
G01X11026Y5690D01*
G01X11026Y5690D02*
G01X11045Y5672D01*
G01X11045Y5672D02*
G01X11072Y5663D01*
G01X11072Y5663D02*
G01X11090Y5663D01*
G01X11090Y5663D02*
G01X11117Y5672D01*
G01X11117Y5672D02*
G01X11135Y5690D01*
G01X11135Y5690D02*
G01X11145Y5708D01*
G01X11145Y5735D02*
G01X11145Y5708D01*
G01X11135Y5753D02*
G01X11145Y5735D01*
G01X11117Y5772D02*
G01X11135Y5753D01*
G04 Draw part R7*
G04 draw part outline for part R7*
G04 draw value for part R7*
G01X10922Y6506D02*
G01X10931Y6479D01*
G01X10931Y6479D02*
G01X10958Y6461D01*
G01X10958Y6461D02*
G01X11003Y6452D01*
G01X11003Y6452D02*
G01X11031Y6452D01*
G01X11031Y6452D02*
G01X11076Y6461D01*
G01X11076Y6461D02*
G01X11103Y6479D01*
G01X11103Y6479D02*
G01X11113Y6506D01*
G01X11113Y6524D02*
G01X11113Y6506D01*
G01X11103Y6552D02*
G01X11113Y6524D01*
G01X11076Y6570D02*
G01X11103Y6552D01*
G01X11031Y6579D02*
G01X11076Y6570D01*
G01X11003Y6579D02*
G01X11031Y6579D01*
G01X10958Y6570D02*
G01X11003Y6579D01*
G01X10931Y6552D02*
G01X10958Y6570D01*
G01X10922Y6524D02*
G01X10931Y6552D01*
G01X10922Y6506D02*
G01X10922Y6524D01*
G01X11040Y6761D02*
G01X11040Y6652D01*
G01X11022Y6761D02*
G01X11040Y6761D01*
G01X11003Y6752D02*
G01X11022Y6761D01*
G01X10994Y6742D02*
G01X11003Y6752D01*
G01X10985Y6724D02*
G01X10994Y6742D01*
G01X10985Y6697D02*
G01X10985Y6724D01*
G01X10985Y6697D02*
G01X10994Y6679D01*
G01X10994Y6679D02*
G01X11013Y6661D01*
G01X11013Y6661D02*
G01X11040Y6652D01*
G01X11040Y6652D02*
G01X11058Y6652D01*
G01X11058Y6652D02*
G01X11085Y6661D01*
G01X11085Y6661D02*
G01X11103Y6679D01*
G01X11103Y6679D02*
G01X11113Y6697D01*
G01X11113Y6724D02*
G01X11113Y6697D01*
G01X11103Y6742D02*
G01X11113Y6724D01*
G01X11085Y6761D02*
G01X11103Y6742D01*
G04 Draw part R9*
G04 draw part outline for part R9*
G04 draw value for part R9*
G01X10927Y7440D02*
G01X10927Y7340D01*
G01X10927Y7440D02*
G01X10999Y7385D01*
G01X10999Y7412D02*
G01X10999Y7385D01*
G01X10999Y7412D02*
G01X11008Y7431D01*
G01X11008Y7431D02*
G01X11018Y7440D01*
G01X11018Y7440D02*
G01X11045Y7449D01*
G01X11045Y7449D02*
G01X11063Y7449D01*
G01X11063Y7449D02*
G01X11090Y7440D01*
G01X11090Y7440D02*
G01X11108Y7422D01*
G01X11108Y7422D02*
G01X11118Y7394D01*
G01X11118Y7367D02*
G01X11118Y7394D01*
G01X11108Y7340D02*
G01X11118Y7367D01*
G01X11099Y7331D02*
G01X11108Y7340D01*
G01X11081Y7322D02*
G01X11099Y7331D01*
G01X10927Y7640D02*
G01X10927Y7540D01*
G01X10927Y7640D02*
G01X10999Y7585D01*
G01X10999Y7612D02*
G01X10999Y7585D01*
G01X10999Y7612D02*
G01X11008Y7631D01*
G01X11008Y7631D02*
G01X11018Y7640D01*
G01X11018Y7640D02*
G01X11045Y7649D01*
G01X11045Y7649D02*
G01X11063Y7649D01*
G01X11063Y7649D02*
G01X11090Y7640D01*
G01X11090Y7640D02*
G01X11108Y7622D01*
G01X11108Y7622D02*
G01X11118Y7594D01*
G01X11118Y7567D02*
G01X11118Y7594D01*
G01X11108Y7540D02*
G01X11118Y7567D01*
G01X11099Y7531D02*
G01X11108Y7540D01*
G01X11081Y7522D02*
G01X11099Y7531D01*
G01X11045Y7831D02*
G01X11045Y7722D01*
G01X11027Y7831D02*
G01X11045Y7831D01*
G01X11008Y7822D02*
G01X11027Y7831D01*
G01X10999Y7812D02*
G01X11008Y7822D01*
G01X10990Y7794D02*
G01X10999Y7812D01*
G01X10990Y7767D02*
G01X10990Y7794D01*
G01X10990Y7767D02*
G01X10999Y7749D01*
G01X10999Y7749D02*
G01X11018Y7731D01*
G01X11018Y7731D02*
G01X11045Y7722D01*
G01X11045Y7722D02*
G01X11063Y7722D01*
G01X11063Y7722D02*
G01X11090Y7731D01*
G01X11090Y7731D02*
G01X11108Y7749D01*
G01X11108Y7749D02*
G01X11118Y7767D01*
G01X11118Y7794D02*
G01X11118Y7767D01*
G01X11108Y7812D02*
G01X11118Y7794D01*
G01X11090Y7831D02*
G01X11108Y7812D01*
G04 Draw part R11*
G04 draw part outline for part R11*
G04 draw value for part R11*
G01X10921Y8469D02*
G01X10921Y8369D01*
G01X10921Y8469D02*
G01X10993Y8414D01*
G01X10993Y8441D02*
G01X10993Y8414D01*
G01X10993Y8441D02*
G01X11002Y8460D01*
G01X11002Y8460D02*
G01X11012Y8469D01*
G01X11012Y8469D02*
G01X11039Y8478D01*
G01X11039Y8478D02*
G01X11057Y8478D01*
G01X11057Y8478D02*
G01X11084Y8469D01*
G01X11084Y8469D02*
G01X11102Y8451D01*
G01X11102Y8451D02*
G01X11112Y8423D01*
G01X11112Y8396D02*
G01X11112Y8423D01*
G01X11102Y8369D02*
G01X11112Y8396D01*
G01X11093Y8360D02*
G01X11102Y8369D01*
G01X11075Y8351D02*
G01X11093Y8360D01*
G01X10921Y8669D02*
G01X10921Y8569D01*
G01X10921Y8669D02*
G01X10993Y8614D01*
G01X10993Y8641D02*
G01X10993Y8614D01*
G01X10993Y8641D02*
G01X11002Y8660D01*
G01X11002Y8660D02*
G01X11012Y8669D01*
G01X11012Y8669D02*
G01X11039Y8678D01*
G01X11039Y8678D02*
G01X11057Y8678D01*
G01X11057Y8678D02*
G01X11084Y8669D01*
G01X11084Y8669D02*
G01X11102Y8651D01*
G01X11102Y8651D02*
G01X11112Y8623D01*
G01X11112Y8596D02*
G01X11112Y8623D01*
G01X11102Y8569D02*
G01X11112Y8596D01*
G01X11093Y8560D02*
G01X11102Y8569D01*
G01X11075Y8551D02*
G01X11093Y8560D01*
G01X11039Y8860D02*
G01X11039Y8751D01*
G01X11021Y8860D02*
G01X11039Y8860D01*
G01X11002Y8851D02*
G01X11021Y8860D01*
G01X10993Y8841D02*
G01X11002Y8851D01*
G01X10984Y8823D02*
G01X10993Y8841D01*
G01X10984Y8796D02*
G01X10984Y8823D01*
G01X10984Y8796D02*
G01X10993Y8778D01*
G01X10993Y8778D02*
G01X11012Y8760D01*
G01X11012Y8760D02*
G01X11039Y8751D01*
G01X11039Y8751D02*
G01X11057Y8751D01*
G01X11057Y8751D02*
G01X11084Y8760D01*
G01X11084Y8760D02*
G01X11102Y8778D01*
G01X11102Y8778D02*
G01X11112Y8796D01*
G01X11112Y8823D02*
G01X11112Y8796D01*
G01X11102Y8841D02*
G01X11112Y8823D01*
G01X11084Y8860D02*
G01X11102Y8841D01*
G04 Draw part R13*
G04 draw part outline for part R13*
G04 draw value for part R13*
G01X10919Y9447D02*
G01X10919Y9347D01*
G01X10919Y9447D02*
G01X10991Y9392D01*
G01X10991Y9419D02*
G01X10991Y9392D01*
G01X10991Y9419D02*
G01X11000Y9438D01*
G01X11000Y9438D02*
G01X11010Y9447D01*
G01X11010Y9447D02*
G01X11037Y9456D01*
G01X11037Y9456D02*
G01X11055Y9456D01*
G01X11055Y9456D02*
G01X11082Y9447D01*
G01X11082Y9447D02*
G01X11100Y9429D01*
G01X11100Y9429D02*
G01X11110Y9401D01*
G01X11110Y9374D02*
G01X11110Y9401D01*
G01X11100Y9347D02*
G01X11110Y9374D01*
G01X11091Y9338D02*
G01X11100Y9347D01*
G01X11073Y9329D02*
G01X11091Y9338D01*
G01X10919Y9647D02*
G01X10919Y9547D01*
G01X10919Y9647D02*
G01X10991Y9592D01*
G01X10991Y9619D02*
G01X10991Y9592D01*
G01X10991Y9619D02*
G01X11000Y9638D01*
G01X11000Y9638D02*
G01X11010Y9647D01*
G01X11010Y9647D02*
G01X11037Y9656D01*
G01X11037Y9656D02*
G01X11055Y9656D01*
G01X11055Y9656D02*
G01X11082Y9647D01*
G01X11082Y9647D02*
G01X11100Y9629D01*
G01X11100Y9629D02*
G01X11110Y9601D01*
G01X11110Y9574D02*
G01X11110Y9601D01*
G01X11100Y9547D02*
G01X11110Y9574D01*
G01X11091Y9538D02*
G01X11100Y9547D01*
G01X11073Y9529D02*
G01X11091Y9538D01*
G01X11037Y9838D02*
G01X11037Y9729D01*
G01X11019Y9838D02*
G01X11037Y9838D01*
G01X11000Y9829D02*
G01X11019Y9838D01*
G01X10991Y9819D02*
G01X11000Y9829D01*
G01X10982Y9801D02*
G01X10991Y9819D01*
G01X10982Y9774D02*
G01X10982Y9801D01*
G01X10982Y9774D02*
G01X10991Y9756D01*
G01X10991Y9756D02*
G01X11010Y9738D01*
G01X11010Y9738D02*
G01X11037Y9729D01*
G01X11037Y9729D02*
G01X11055Y9729D01*
G01X11055Y9729D02*
G01X11082Y9738D01*
G01X11082Y9738D02*
G01X11100Y9756D01*
G01X11100Y9756D02*
G01X11110Y9774D01*
G01X11110Y9801D02*
G01X11110Y9774D01*
G01X11100Y9819D02*
G01X11110Y9801D01*
G01X11082Y9838D02*
G01X11100Y9819D01*
G04 Draw part R15*
G04 draw part outline for part R15*
G04 draw value for part R15*
G01X10919Y10473D02*
G01X10919Y10373D01*
G01X10919Y10473D02*
G01X10991Y10418D01*
G01X10991Y10445D02*
G01X10991Y10418D01*
G01X10991Y10445D02*
G01X11000Y10464D01*
G01X11000Y10464D02*
G01X11010Y10473D01*
G01X11010Y10473D02*
G01X11037Y10482D01*
G01X11037Y10482D02*
G01X11055Y10482D01*
G01X11055Y10482D02*
G01X11082Y10473D01*
G01X11082Y10473D02*
G01X11100Y10455D01*
G01X11100Y10455D02*
G01X11110Y10427D01*
G01X11110Y10400D02*
G01X11110Y10427D01*
G01X11100Y10373D02*
G01X11110Y10400D01*
G01X11091Y10364D02*
G01X11100Y10373D01*
G01X11073Y10355D02*
G01X11091Y10364D01*
G01X10919Y10673D02*
G01X10919Y10573D01*
G01X10919Y10673D02*
G01X10991Y10618D01*
G01X10991Y10645D02*
G01X10991Y10618D01*
G01X10991Y10645D02*
G01X11000Y10664D01*
G01X11000Y10664D02*
G01X11010Y10673D01*
G01X11010Y10673D02*
G01X11037Y10682D01*
G01X11037Y10682D02*
G01X11055Y10682D01*
G01X11055Y10682D02*
G01X11082Y10673D01*
G01X11082Y10673D02*
G01X11100Y10655D01*
G01X11100Y10655D02*
G01X11110Y10627D01*
G01X11110Y10600D02*
G01X11110Y10627D01*
G01X11100Y10573D02*
G01X11110Y10600D01*
G01X11091Y10564D02*
G01X11100Y10573D01*
G01X11073Y10555D02*
G01X11091Y10564D01*
G01X11037Y10864D02*
G01X11037Y10755D01*
G01X11019Y10864D02*
G01X11037Y10864D01*
G01X11000Y10855D02*
G01X11019Y10864D01*
G01X10991Y10845D02*
G01X11000Y10855D01*
G01X10982Y10827D02*
G01X10991Y10845D01*
G01X10982Y10800D02*
G01X10982Y10827D01*
G01X10982Y10800D02*
G01X10991Y10782D01*
G01X10991Y10782D02*
G01X11010Y10764D01*
G01X11010Y10764D02*
G01X11037Y10755D01*
G01X11037Y10755D02*
G01X11055Y10755D01*
G01X11055Y10755D02*
G01X11082Y10764D01*
G01X11082Y10764D02*
G01X11100Y10782D01*
G01X11100Y10782D02*
G01X11110Y10800D01*
G01X11110Y10827D02*
G01X11110Y10800D01*
G01X11100Y10845D02*
G01X11110Y10827D01*
G01X11082Y10864D02*
G01X11100Y10845D01*
G04 Draw part R17*
G04 draw part outline for part R17*
G04 draw value for part R17*
G01X10921Y11456D02*
G01X10921Y11356D01*
G01X10921Y11456D02*
G01X10993Y11401D01*
G01X10993Y11428D02*
G01X10993Y11401D01*
G01X10993Y11428D02*
G01X11002Y11447D01*
G01X11002Y11447D02*
G01X11012Y11456D01*
G01X11012Y11456D02*
G01X11039Y11465D01*
G01X11039Y11465D02*
G01X11057Y11465D01*
G01X11057Y11465D02*
G01X11084Y11456D01*
G01X11084Y11456D02*
G01X11102Y11438D01*
G01X11102Y11438D02*
G01X11112Y11410D01*
G01X11112Y11383D02*
G01X11112Y11410D01*
G01X11102Y11356D02*
G01X11112Y11383D01*
G01X11093Y11347D02*
G01X11102Y11356D01*
G01X11075Y11338D02*
G01X11093Y11347D01*
G01X10921Y11656D02*
G01X10921Y11556D01*
G01X10921Y11656D02*
G01X10993Y11601D01*
G01X10993Y11628D02*
G01X10993Y11601D01*
G01X10993Y11628D02*
G01X11002Y11647D01*
G01X11002Y11647D02*
G01X11012Y11656D01*
G01X11012Y11656D02*
G01X11039Y11665D01*
G01X11039Y11665D02*
G01X11057Y11665D01*
G01X11057Y11665D02*
G01X11084Y11656D01*
G01X11084Y11656D02*
G01X11102Y11638D01*
G01X11102Y11638D02*
G01X11112Y11610D01*
G01X11112Y11583D02*
G01X11112Y11610D01*
G01X11102Y11556D02*
G01X11112Y11583D01*
G01X11093Y11547D02*
G01X11102Y11556D01*
G01X11075Y11538D02*
G01X11093Y11547D01*
G01X11039Y11847D02*
G01X11039Y11738D01*
G01X11021Y11847D02*
G01X11039Y11847D01*
G01X11002Y11838D02*
G01X11021Y11847D01*
G01X10993Y11828D02*
G01X11002Y11838D01*
G01X10984Y11810D02*
G01X10993Y11828D01*
G01X10984Y11783D02*
G01X10984Y11810D01*
G01X10984Y11783D02*
G01X10993Y11765D01*
G01X10993Y11765D02*
G01X11012Y11747D01*
G01X11012Y11747D02*
G01X11039Y11738D01*
G01X11039Y11738D02*
G01X11057Y11738D01*
G01X11057Y11738D02*
G01X11084Y11747D01*
G01X11084Y11747D02*
G01X11102Y11765D01*
G01X11102Y11765D02*
G01X11112Y11783D01*
G01X11112Y11810D02*
G01X11112Y11783D01*
G01X11102Y11828D02*
G01X11112Y11810D01*
G01X11084Y11847D02*
G01X11102Y11828D01*
G04 Draw part R19*
G04 draw part outline for part R19*
G04 draw value for part R19*
G01X10921Y12445D02*
G01X10921Y12345D01*
G01X10921Y12445D02*
G01X10993Y12390D01*
G01X10993Y12417D02*
G01X10993Y12390D01*
G01X10993Y12417D02*
G01X11002Y12436D01*
G01X11002Y12436D02*
G01X11012Y12445D01*
G01X11012Y12445D02*
G01X11039Y12454D01*
G01X11039Y12454D02*
G01X11057Y12454D01*
G01X11057Y12454D02*
G01X11084Y12445D01*
G01X11084Y12445D02*
G01X11102Y12427D01*
G01X11102Y12427D02*
G01X11112Y12399D01*
G01X11112Y12372D02*
G01X11112Y12399D01*
G01X11102Y12345D02*
G01X11112Y12372D01*
G01X11093Y12336D02*
G01X11102Y12345D01*
G01X11075Y12327D02*
G01X11093Y12336D01*
G01X10921Y12645D02*
G01X10921Y12545D01*
G01X10921Y12645D02*
G01X10993Y12590D01*
G01X10993Y12617D02*
G01X10993Y12590D01*
G01X10993Y12617D02*
G01X11002Y12636D01*
G01X11002Y12636D02*
G01X11012Y12645D01*
G01X11012Y12645D02*
G01X11039Y12654D01*
G01X11039Y12654D02*
G01X11057Y12654D01*
G01X11057Y12654D02*
G01X11084Y12645D01*
G01X11084Y12645D02*
G01X11102Y12627D01*
G01X11102Y12627D02*
G01X11112Y12599D01*
G01X11112Y12572D02*
G01X11112Y12599D01*
G01X11102Y12545D02*
G01X11112Y12572D01*
G01X11093Y12536D02*
G01X11102Y12545D01*
G01X11075Y12527D02*
G01X11093Y12536D01*
G01X11039Y12836D02*
G01X11039Y12727D01*
G01X11021Y12836D02*
G01X11039Y12836D01*
G01X11002Y12827D02*
G01X11021Y12836D01*
G01X10993Y12817D02*
G01X11002Y12827D01*
G01X10984Y12799D02*
G01X10993Y12817D01*
G01X10984Y12772D02*
G01X10984Y12799D01*
G01X10984Y12772D02*
G01X10993Y12754D01*
G01X10993Y12754D02*
G01X11012Y12736D01*
G01X11012Y12736D02*
G01X11039Y12727D01*
G01X11039Y12727D02*
G01X11057Y12727D01*
G01X11057Y12727D02*
G01X11084Y12736D01*
G01X11084Y12736D02*
G01X11102Y12754D01*
G01X11102Y12754D02*
G01X11112Y12772D01*
G01X11112Y12799D02*
G01X11112Y12772D01*
G01X11102Y12817D02*
G01X11112Y12799D01*
G01X11084Y12836D02*
G01X11102Y12817D01*
G04 Draw part R21*
G04 draw part outline for part R21*
G04 draw value for part R21*
G01X10917Y13450D02*
G01X10917Y13350D01*
G01X10917Y13450D02*
G01X10989Y13395D01*
G01X10989Y13422D02*
G01X10989Y13395D01*
G01X10989Y13422D02*
G01X10998Y13441D01*
G01X10998Y13441D02*
G01X11008Y13450D01*
G01X11008Y13450D02*
G01X11035Y13459D01*
G01X11035Y13459D02*
G01X11053Y13459D01*
G01X11053Y13459D02*
G01X11080Y13450D01*
G01X11080Y13450D02*
G01X11098Y13432D01*
G01X11098Y13432D02*
G01X11108Y13404D01*
G01X11108Y13377D02*
G01X11108Y13404D01*
G01X11098Y13350D02*
G01X11108Y13377D01*
G01X11089Y13341D02*
G01X11098Y13350D01*
G01X11071Y13332D02*
G01X11089Y13341D01*
G01X10917Y13650D02*
G01X10917Y13550D01*
G01X10917Y13650D02*
G01X10989Y13595D01*
G01X10989Y13622D02*
G01X10989Y13595D01*
G01X10989Y13622D02*
G01X10998Y13641D01*
G01X10998Y13641D02*
G01X11008Y13650D01*
G01X11008Y13650D02*
G01X11035Y13659D01*
G01X11035Y13659D02*
G01X11053Y13659D01*
G01X11053Y13659D02*
G01X11080Y13650D01*
G01X11080Y13650D02*
G01X11098Y13632D01*
G01X11098Y13632D02*
G01X11108Y13604D01*
G01X11108Y13577D02*
G01X11108Y13604D01*
G01X11098Y13550D02*
G01X11108Y13577D01*
G01X11089Y13541D02*
G01X11098Y13550D01*
G01X11071Y13532D02*
G01X11089Y13541D01*
G01X11035Y13841D02*
G01X11035Y13732D01*
G01X11017Y13841D02*
G01X11035Y13841D01*
G01X10998Y13832D02*
G01X11017Y13841D01*
G01X10989Y13822D02*
G01X10998Y13832D01*
G01X10980Y13804D02*
G01X10989Y13822D01*
G01X10980Y13777D02*
G01X10980Y13804D01*
G01X10980Y13777D02*
G01X10989Y13759D01*
G01X10989Y13759D02*
G01X11008Y13741D01*
G01X11008Y13741D02*
G01X11035Y13732D01*
G01X11035Y13732D02*
G01X11053Y13732D01*
G01X11053Y13732D02*
G01X11080Y13741D01*
G01X11080Y13741D02*
G01X11098Y13759D01*
G01X11098Y13759D02*
G01X11108Y13777D01*
G01X11108Y13804D02*
G01X11108Y13777D01*
G01X11098Y13822D02*
G01X11108Y13804D01*
G01X11080Y13841D02*
G01X11098Y13822D01*
G04 Draw part R23*
G04 draw part outline for part R23*
G04 draw value for part R23*
G01X10915Y14440D02*
G01X10915Y14340D01*
G01X10915Y14440D02*
G01X10987Y14385D01*
G01X10987Y14412D02*
G01X10987Y14385D01*
G01X10987Y14412D02*
G01X10996Y14431D01*
G01X10996Y14431D02*
G01X11006Y14440D01*
G01X11006Y14440D02*
G01X11033Y14449D01*
G01X11033Y14449D02*
G01X11051Y14449D01*
G01X11051Y14449D02*
G01X11078Y14440D01*
G01X11078Y14440D02*
G01X11096Y14422D01*
G01X11096Y14422D02*
G01X11106Y14394D01*
G01X11106Y14367D02*
G01X11106Y14394D01*
G01X11096Y14340D02*
G01X11106Y14367D01*
G01X11087Y14331D02*
G01X11096Y14340D01*
G01X11069Y14322D02*
G01X11087Y14331D01*
G01X10915Y14640D02*
G01X10915Y14540D01*
G01X10915Y14640D02*
G01X10987Y14585D01*
G01X10987Y14612D02*
G01X10987Y14585D01*
G01X10987Y14612D02*
G01X10996Y14631D01*
G01X10996Y14631D02*
G01X11006Y14640D01*
G01X11006Y14640D02*
G01X11033Y14649D01*
G01X11033Y14649D02*
G01X11051Y14649D01*
G01X11051Y14649D02*
G01X11078Y14640D01*
G01X11078Y14640D02*
G01X11096Y14622D01*
G01X11096Y14622D02*
G01X11106Y14594D01*
G01X11106Y14567D02*
G01X11106Y14594D01*
G01X11096Y14540D02*
G01X11106Y14567D01*
G01X11087Y14531D02*
G01X11096Y14540D01*
G01X11069Y14522D02*
G01X11087Y14531D01*
G01X11033Y14831D02*
G01X11033Y14722D01*
G01X11015Y14831D02*
G01X11033Y14831D01*
G01X10996Y14822D02*
G01X11015Y14831D01*
G01X10987Y14812D02*
G01X10996Y14822D01*
G01X10978Y14794D02*
G01X10987Y14812D01*
G01X10978Y14767D02*
G01X10978Y14794D01*
G01X10978Y14767D02*
G01X10987Y14749D01*
G01X10987Y14749D02*
G01X11006Y14731D01*
G01X11006Y14731D02*
G01X11033Y14722D01*
G01X11033Y14722D02*
G01X11051Y14722D01*
G01X11051Y14722D02*
G01X11078Y14731D01*
G01X11078Y14731D02*
G01X11096Y14749D01*
G01X11096Y14749D02*
G01X11106Y14767D01*
G01X11106Y14794D02*
G01X11106Y14767D01*
G01X11096Y14812D02*
G01X11106Y14794D01*
G01X11078Y14831D02*
G01X11096Y14812D01*
G04 Draw part R25*
G04 draw part outline for part R25*
G04 draw value for part R25*
G01X10954Y15454D02*
G01X10954Y15354D01*
G01X10954Y15454D02*
G01X11026Y15399D01*
G01X11026Y15426D02*
G01X11026Y15399D01*
G01X11026Y15426D02*
G01X11035Y15445D01*
G01X11035Y15445D02*
G01X11045Y15454D01*
G01X11045Y15454D02*
G01X11072Y15463D01*
G01X11072Y15463D02*
G01X11090Y15463D01*
G01X11090Y15463D02*
G01X11117Y15454D01*
G01X11117Y15454D02*
G01X11135Y15436D01*
G01X11135Y15436D02*
G01X11145Y15408D01*
G01X11145Y15381D02*
G01X11145Y15408D01*
G01X11135Y15354D02*
G01X11145Y15381D01*
G01X11126Y15345D02*
G01X11135Y15354D01*
G01X11108Y15336D02*
G01X11126Y15345D01*
G01X10954Y15654D02*
G01X10954Y15554D01*
G01X10954Y15654D02*
G01X11026Y15599D01*
G01X11026Y15626D02*
G01X11026Y15599D01*
G01X11026Y15626D02*
G01X11035Y15645D01*
G01X11035Y15645D02*
G01X11045Y15654D01*
G01X11045Y15654D02*
G01X11072Y15663D01*
G01X11072Y15663D02*
G01X11090Y15663D01*
G01X11090Y15663D02*
G01X11117Y15654D01*
G01X11117Y15654D02*
G01X11135Y15636D01*
G01X11135Y15636D02*
G01X11145Y15608D01*
G01X11145Y15581D02*
G01X11145Y15608D01*
G01X11135Y15554D02*
G01X11145Y15581D01*
G01X11126Y15545D02*
G01X11135Y15554D01*
G01X11108Y15536D02*
G01X11126Y15545D01*
G01X11072Y15845D02*
G01X11072Y15736D01*
G01X11054Y15845D02*
G01X11072Y15845D01*
G01X11035Y15836D02*
G01X11054Y15845D01*
G01X11026Y15826D02*
G01X11035Y15836D01*
G01X11017Y15808D02*
G01X11026Y15826D01*
G01X11017Y15781D02*
G01X11017Y15808D01*
G01X11017Y15781D02*
G01X11026Y15763D01*
G01X11026Y15763D02*
G01X11045Y15745D01*
G01X11045Y15745D02*
G01X11072Y15736D01*
G01X11072Y15736D02*
G01X11090Y15736D01*
G01X11090Y15736D02*
G01X11117Y15745D01*
G01X11117Y15745D02*
G01X11135Y15763D01*
G01X11135Y15763D02*
G01X11145Y15781D01*
G01X11145Y15808D02*
G01X11145Y15781D01*
G01X11135Y15826D02*
G01X11145Y15808D01*
G01X11117Y15845D02*
G01X11135Y15826D01*
G04 Draw part R27*
G04 draw part outline for part R27*
G04 draw value for part R27*
G01X10921Y16462D02*
G01X10921Y16362D01*
G01X10921Y16462D02*
G01X10993Y16407D01*
G01X10993Y16434D02*
G01X10993Y16407D01*
G01X10993Y16434D02*
G01X11002Y16453D01*
G01X11002Y16453D02*
G01X11012Y16462D01*
G01X11012Y16462D02*
G01X11039Y16471D01*
G01X11039Y16471D02*
G01X11057Y16471D01*
G01X11057Y16471D02*
G01X11084Y16462D01*
G01X11084Y16462D02*
G01X11102Y16444D01*
G01X11102Y16444D02*
G01X11112Y16416D01*
G01X11112Y16389D02*
G01X11112Y16416D01*
G01X11102Y16362D02*
G01X11112Y16389D01*
G01X11093Y16353D02*
G01X11102Y16362D01*
G01X11075Y16344D02*
G01X11093Y16353D01*
G01X10921Y16662D02*
G01X10921Y16562D01*
G01X10921Y16662D02*
G01X10993Y16607D01*
G01X10993Y16634D02*
G01X10993Y16607D01*
G01X10993Y16634D02*
G01X11002Y16653D01*
G01X11002Y16653D02*
G01X11012Y16662D01*
G01X11012Y16662D02*
G01X11039Y16671D01*
G01X11039Y16671D02*
G01X11057Y16671D01*
G01X11057Y16671D02*
G01X11084Y16662D01*
G01X11084Y16662D02*
G01X11102Y16644D01*
G01X11102Y16644D02*
G01X11112Y16616D01*
G01X11112Y16589D02*
G01X11112Y16616D01*
G01X11102Y16562D02*
G01X11112Y16589D01*
G01X11093Y16553D02*
G01X11102Y16562D01*
G01X11075Y16544D02*
G01X11093Y16553D01*
G01X11039Y16853D02*
G01X11039Y16744D01*
G01X11021Y16853D02*
G01X11039Y16853D01*
G01X11002Y16844D02*
G01X11021Y16853D01*
G01X10993Y16834D02*
G01X11002Y16844D01*
G01X10984Y16816D02*
G01X10993Y16834D01*
G01X10984Y16789D02*
G01X10984Y16816D01*
G01X10984Y16789D02*
G01X10993Y16771D01*
G01X10993Y16771D02*
G01X11012Y16753D01*
G01X11012Y16753D02*
G01X11039Y16744D01*
G01X11039Y16744D02*
G01X11057Y16744D01*
G01X11057Y16744D02*
G01X11084Y16753D01*
G01X11084Y16753D02*
G01X11102Y16771D01*
G01X11102Y16771D02*
G01X11112Y16789D01*
G01X11112Y16816D02*
G01X11112Y16789D01*
G01X11102Y16834D02*
G01X11112Y16816D01*
G01X11084Y16853D02*
G01X11102Y16834D01*
G04 Draw part R29*
G04 draw part outline for part R29*
G04 draw value for part R29*
G01X10920Y17444D02*
G01X10920Y17344D01*
G01X10920Y17444D02*
G01X10992Y17389D01*
G01X10992Y17416D02*
G01X10992Y17389D01*
G01X10992Y17416D02*
G01X11001Y17435D01*
G01X11001Y17435D02*
G01X11011Y17444D01*
G01X11011Y17444D02*
G01X11038Y17453D01*
G01X11038Y17453D02*
G01X11056Y17453D01*
G01X11056Y17453D02*
G01X11083Y17444D01*
G01X11083Y17444D02*
G01X11101Y17426D01*
G01X11101Y17426D02*
G01X11111Y17398D01*
G01X11111Y17371D02*
G01X11111Y17398D01*
G01X11101Y17344D02*
G01X11111Y17371D01*
G01X11092Y17335D02*
G01X11101Y17344D01*
G01X11074Y17326D02*
G01X11092Y17335D01*
G01X10920Y17644D02*
G01X10920Y17544D01*
G01X10920Y17644D02*
G01X10992Y17589D01*
G01X10992Y17616D02*
G01X10992Y17589D01*
G01X10992Y17616D02*
G01X11001Y17635D01*
G01X11001Y17635D02*
G01X11011Y17644D01*
G01X11011Y17644D02*
G01X11038Y17653D01*
G01X11038Y17653D02*
G01X11056Y17653D01*
G01X11056Y17653D02*
G01X11083Y17644D01*
G01X11083Y17644D02*
G01X11101Y17626D01*
G01X11101Y17626D02*
G01X11111Y17598D01*
G01X11111Y17571D02*
G01X11111Y17598D01*
G01X11101Y17544D02*
G01X11111Y17571D01*
G01X11092Y17535D02*
G01X11101Y17544D01*
G01X11074Y17526D02*
G01X11092Y17535D01*
G01X11038Y17835D02*
G01X11038Y17726D01*
G01X11020Y17835D02*
G01X11038Y17835D01*
G01X11001Y17826D02*
G01X11020Y17835D01*
G01X10992Y17816D02*
G01X11001Y17826D01*
G01X10983Y17798D02*
G01X10992Y17816D01*
G01X10983Y17771D02*
G01X10983Y17798D01*
G01X10983Y17771D02*
G01X10992Y17753D01*
G01X10992Y17753D02*
G01X11011Y17735D01*
G01X11011Y17735D02*
G01X11038Y17726D01*
G01X11038Y17726D02*
G01X11056Y17726D01*
G01X11056Y17726D02*
G01X11083Y17735D01*
G01X11083Y17735D02*
G01X11101Y17753D01*
G01X11101Y17753D02*
G01X11111Y17771D01*
G01X11111Y17798D02*
G01X11111Y17771D01*
G01X11101Y17816D02*
G01X11111Y17798D01*
G01X11083Y17835D02*
G01X11101Y17816D01*
G04 Draw part J2*
G04 draw part outline for part J2*
G54D12*
G01X3836Y19614D02*
G01X3836Y3614D01*
G01X3836Y3614D02*
G01X336Y3614D01*
G01X336Y3614D02*
G01X336Y10734D01*
G01X336Y10734D02*
G01X586Y10734D01*
G01X586Y10734D02*
G01X586Y12494D01*
G01X586Y12494D02*
G01X336Y12494D01*
G01X336Y12494D02*
G01X336Y19614D01*
G01X336Y19614D02*
G01X3836Y19614D01*
G04 draw value for part J2*
G54D11*
G01X4139Y5185D02*
G01X3994Y4804D01*
G01X4139Y5185D02*
G01X4284Y4804D01*
G01X4230Y4931D02*
G01X4048Y4931D01*
G01X4430Y5058D02*
G01X4430Y4804D01*
G01X4484Y5040D02*
G01X4430Y4985D01*
G01X4521Y5058D02*
G01X4484Y5040D01*
G01X4575Y5058D02*
G01X4521Y5058D01*
G01X4575Y5058D02*
G01X4612Y5040D01*
G01X4612Y5040D02*
G01X4630Y4985D01*
G01X4630Y4985D02*
G01X4630Y4804D01*
G01X4994Y5058D02*
G01X4994Y4804D01*
G01X4957Y5040D02*
G01X4994Y5004D01*
G01X4921Y5058D02*
G01X4957Y5040D01*
G01X4866Y5058D02*
G01X4921Y5058D01*
G01X4866Y5058D02*
G01X4830Y5040D01*
G01X4830Y5040D02*
G01X4794Y5004D01*
G01X4794Y5004D02*
G01X4775Y4949D01*
G01X4775Y4949D02*
G01X4775Y4913D01*
G01X4775Y4913D02*
G01X4794Y4858D01*
G01X4794Y4858D02*
G01X4830Y4822D01*
G01X4830Y4822D02*
G01X4866Y4804D01*
G01X4921Y4804D02*
G01X4866Y4804D01*
G01X4957Y4822D02*
G01X4921Y4804D01*
G01X4994Y4858D02*
G01X4957Y4822D01*
G01X5139Y5185D02*
G01X5139Y4804D01*
G01X5375Y5058D02*
G01X5339Y5040D01*
G01X5339Y5040D02*
G01X5303Y5004D01*
G01X5303Y5004D02*
G01X5284Y4949D01*
G01X5284Y4949D02*
G01X5284Y4913D01*
G01X5284Y4913D02*
G01X5303Y4858D01*
G01X5303Y4858D02*
G01X5339Y4822D01*
G01X5339Y4822D02*
G01X5375Y4804D01*
G01X5430Y4804D02*
G01X5375Y4804D01*
G01X5466Y4822D02*
G01X5430Y4804D01*
G01X5503Y4858D02*
G01X5466Y4822D01*
G01X5521Y4913D02*
G01X5503Y4858D01*
G01X5521Y4949D02*
G01X5521Y4913D01*
G01X5503Y5004D02*
G01X5521Y4949D01*
G01X5466Y5040D02*
G01X5503Y5004D01*
G01X5430Y5058D02*
G01X5466Y5040D01*
G01X5375Y5058D02*
G01X5430Y5058D01*
G01X5884Y5058D02*
G01X5884Y4767D01*
G01X5884Y4767D02*
G01X5866Y4713D01*
G01X5866Y4713D02*
G01X5848Y4694D01*
G01X5848Y4694D02*
G01X5812Y4676D01*
G01X5757Y4676D02*
G01X5812Y4676D01*
G01X5721Y4694D02*
G01X5757Y4676D01*
G01X5848Y5040D02*
G01X5884Y5004D01*
G01X5812Y5058D02*
G01X5848Y5040D01*
G01X5757Y5058D02*
G01X5812Y5058D01*
G01X5757Y5058D02*
G01X5721Y5040D01*
G01X5721Y5040D02*
G01X5684Y5004D01*
G01X5684Y5004D02*
G01X5666Y4949D01*
G01X5666Y4949D02*
G01X5666Y4913D01*
G01X5666Y4913D02*
G01X5684Y4858D01*
G01X5684Y4858D02*
G01X5721Y4822D01*
G01X5721Y4822D02*
G01X5757Y4804D01*
G01X5812Y4804D02*
G01X5757Y4804D01*
G01X5848Y4822D02*
G01X5812Y4804D01*
G01X5884Y4858D02*
G01X5848Y4822D01*
G01X6030Y5058D02*
G01X6030Y4876D01*
G01X6030Y4876D02*
G01X6048Y4822D01*
G01X6048Y4822D02*
G01X6084Y4804D01*
G01X6139Y4804D02*
G01X6084Y4804D01*
G01X6175Y4822D02*
G01X6139Y4804D01*
G01X6230Y4876D02*
G01X6175Y4822D01*
G01X6230Y5058D02*
G01X6230Y4804D01*
G01X6594Y4949D02*
G01X6375Y4949D01*
G01X6594Y4985D02*
G01X6594Y4949D01*
G01X6575Y5022D02*
G01X6594Y4985D01*
G01X6557Y5040D02*
G01X6575Y5022D01*
G01X6521Y5058D02*
G01X6557Y5040D01*
G01X6466Y5058D02*
G01X6521Y5058D01*
G01X6466Y5058D02*
G01X6430Y5040D01*
G01X6430Y5040D02*
G01X6394Y5004D01*
G01X6394Y5004D02*
G01X6375Y4949D01*
G01X6375Y4949D02*
G01X6375Y4913D01*
G01X6375Y4913D02*
G01X6394Y4858D01*
G01X6394Y4858D02*
G01X6430Y4822D01*
G01X6430Y4822D02*
G01X6466Y4804D01*
G01X6521Y4804D02*
G01X6466Y4804D01*
G01X6557Y4822D02*
G01X6521Y4804D01*
G01X6594Y4858D02*
G01X6557Y4822D01*
G04 Draw part R4*
G04 draw part outline for part R4*
G04 draw value for part R4*
G01X4339Y17479D02*
G01X4348Y17452D01*
G01X4348Y17452D02*
G01X4375Y17434D01*
G01X4375Y17434D02*
G01X4420Y17425D01*
G01X4420Y17425D02*
G01X4448Y17425D01*
G01X4448Y17425D02*
G01X4493Y17434D01*
G01X4493Y17434D02*
G01X4520Y17452D01*
G01X4520Y17452D02*
G01X4530Y17479D01*
G01X4530Y17497D02*
G01X4530Y17479D01*
G01X4520Y17525D02*
G01X4530Y17497D01*
G01X4493Y17543D02*
G01X4520Y17525D01*
G01X4448Y17552D02*
G01X4493Y17543D01*
G01X4420Y17552D02*
G01X4448Y17552D01*
G01X4375Y17543D02*
G01X4420Y17552D01*
G01X4348Y17525D02*
G01X4375Y17543D01*
G01X4339Y17497D02*
G01X4348Y17525D01*
G01X4339Y17479D02*
G01X4339Y17497D01*
G01X4457Y17734D02*
G01X4457Y17625D01*
G01X4439Y17734D02*
G01X4457Y17734D01*
G01X4420Y17725D02*
G01X4439Y17734D01*
G01X4411Y17715D02*
G01X4420Y17725D01*
G01X4402Y17697D02*
G01X4411Y17715D01*
G01X4402Y17670D02*
G01X4402Y17697D01*
G01X4402Y17670D02*
G01X4411Y17652D01*
G01X4411Y17652D02*
G01X4430Y17634D01*
G01X4430Y17634D02*
G01X4457Y17625D01*
G01X4457Y17625D02*
G01X4475Y17625D01*
G01X4475Y17625D02*
G01X4502Y17634D01*
G01X4502Y17634D02*
G01X4520Y17652D01*
G01X4520Y17652D02*
G01X4530Y17670D01*
G01X4530Y17697D02*
G01X4530Y17670D01*
G01X4520Y17715D02*
G01X4530Y17697D01*
G01X4502Y17734D02*
G01X4520Y17715D01*
G04 Draw part R5*
G04 draw part outline for part R5*
G04 draw value for part R5*
G01X4345Y16498D02*
G01X4354Y16471D01*
G01X4354Y16471D02*
G01X4381Y16453D01*
G01X4381Y16453D02*
G01X4426Y16444D01*
G01X4426Y16444D02*
G01X4454Y16444D01*
G01X4454Y16444D02*
G01X4499Y16453D01*
G01X4499Y16453D02*
G01X4526Y16471D01*
G01X4526Y16471D02*
G01X4536Y16498D01*
G01X4536Y16516D02*
G01X4536Y16498D01*
G01X4526Y16544D02*
G01X4536Y16516D01*
G01X4499Y16562D02*
G01X4526Y16544D01*
G01X4454Y16571D02*
G01X4499Y16562D01*
G01X4426Y16571D02*
G01X4454Y16571D01*
G01X4381Y16562D02*
G01X4426Y16571D01*
G01X4354Y16544D02*
G01X4381Y16562D01*
G01X4345Y16516D02*
G01X4354Y16544D01*
G01X4345Y16498D02*
G01X4345Y16516D01*
G01X4463Y16753D02*
G01X4463Y16644D01*
G01X4445Y16753D02*
G01X4463Y16753D01*
G01X4426Y16744D02*
G01X4445Y16753D01*
G01X4417Y16734D02*
G01X4426Y16744D01*
G01X4408Y16716D02*
G01X4417Y16734D01*
G01X4408Y16689D02*
G01X4408Y16716D01*
G01X4408Y16689D02*
G01X4417Y16671D01*
G01X4417Y16671D02*
G01X4436Y16653D01*
G01X4436Y16653D02*
G01X4463Y16644D01*
G01X4463Y16644D02*
G01X4481Y16644D01*
G01X4481Y16644D02*
G01X4508Y16653D01*
G01X4508Y16653D02*
G01X4526Y16671D01*
G01X4526Y16671D02*
G01X4536Y16689D01*
G01X4536Y16716D02*
G01X4536Y16689D01*
G01X4526Y16734D02*
G01X4536Y16716D01*
G01X4508Y16753D02*
G01X4526Y16734D01*
G04 Draw part R8*
G04 draw part outline for part R8*
G04 draw value for part R8*
G01X4347Y15469D02*
G01X4347Y15369D01*
G01X4347Y15469D02*
G01X4419Y15414D01*
G01X4419Y15441D02*
G01X4419Y15414D01*
G01X4419Y15441D02*
G01X4428Y15460D01*
G01X4428Y15460D02*
G01X4438Y15469D01*
G01X4438Y15469D02*
G01X4465Y15478D01*
G01X4465Y15478D02*
G01X4483Y15478D01*
G01X4483Y15478D02*
G01X4510Y15469D01*
G01X4510Y15469D02*
G01X4528Y15451D01*
G01X4528Y15451D02*
G01X4538Y15423D01*
G01X4538Y15396D02*
G01X4538Y15423D01*
G01X4528Y15369D02*
G01X4538Y15396D01*
G01X4519Y15360D02*
G01X4528Y15369D01*
G01X4501Y15351D02*
G01X4519Y15360D01*
G01X4347Y15669D02*
G01X4347Y15569D01*
G01X4347Y15669D02*
G01X4419Y15614D01*
G01X4419Y15641D02*
G01X4419Y15614D01*
G01X4419Y15641D02*
G01X4428Y15660D01*
G01X4428Y15660D02*
G01X4438Y15669D01*
G01X4438Y15669D02*
G01X4465Y15678D01*
G01X4465Y15678D02*
G01X4483Y15678D01*
G01X4483Y15678D02*
G01X4510Y15669D01*
G01X4510Y15669D02*
G01X4528Y15651D01*
G01X4528Y15651D02*
G01X4538Y15623D01*
G01X4538Y15596D02*
G01X4538Y15623D01*
G01X4528Y15569D02*
G01X4538Y15596D01*
G01X4519Y15560D02*
G01X4528Y15569D01*
G01X4501Y15551D02*
G01X4519Y15560D01*
G01X4465Y15860D02*
G01X4465Y15751D01*
G01X4447Y15860D02*
G01X4465Y15860D01*
G01X4428Y15851D02*
G01X4447Y15860D01*
G01X4419Y15841D02*
G01X4428Y15851D01*
G01X4410Y15823D02*
G01X4419Y15841D01*
G01X4410Y15796D02*
G01X4410Y15823D01*
G01X4410Y15796D02*
G01X4419Y15778D01*
G01X4419Y15778D02*
G01X4438Y15760D01*
G01X4438Y15760D02*
G01X4465Y15751D01*
G01X4465Y15751D02*
G01X4483Y15751D01*
G01X4483Y15751D02*
G01X4510Y15760D01*
G01X4510Y15760D02*
G01X4528Y15778D01*
G01X4528Y15778D02*
G01X4538Y15796D01*
G01X4538Y15823D02*
G01X4538Y15796D01*
G01X4528Y15841D02*
G01X4538Y15823D01*
G01X4510Y15860D02*
G01X4528Y15841D01*
G04 Draw part R10*
G04 draw part outline for part R10*
G04 draw value for part R10*
G01X4341Y14472D02*
G01X4341Y14372D01*
G01X4341Y14472D02*
G01X4413Y14417D01*
G01X4413Y14444D02*
G01X4413Y14417D01*
G01X4413Y14444D02*
G01X4422Y14463D01*
G01X4422Y14463D02*
G01X4432Y14472D01*
G01X4432Y14472D02*
G01X4459Y14481D01*
G01X4459Y14481D02*
G01X4477Y14481D01*
G01X4477Y14481D02*
G01X4504Y14472D01*
G01X4504Y14472D02*
G01X4522Y14454D01*
G01X4522Y14454D02*
G01X4532Y14426D01*
G01X4532Y14399D02*
G01X4532Y14426D01*
G01X4522Y14372D02*
G01X4532Y14399D01*
G01X4513Y14363D02*
G01X4522Y14372D01*
G01X4495Y14354D02*
G01X4513Y14363D01*
G01X4341Y14672D02*
G01X4341Y14572D01*
G01X4341Y14672D02*
G01X4413Y14617D01*
G01X4413Y14644D02*
G01X4413Y14617D01*
G01X4413Y14644D02*
G01X4422Y14663D01*
G01X4422Y14663D02*
G01X4432Y14672D01*
G01X4432Y14672D02*
G01X4459Y14681D01*
G01X4459Y14681D02*
G01X4477Y14681D01*
G01X4477Y14681D02*
G01X4504Y14672D01*
G01X4504Y14672D02*
G01X4522Y14654D01*
G01X4522Y14654D02*
G01X4532Y14626D01*
G01X4532Y14599D02*
G01X4532Y14626D01*
G01X4522Y14572D02*
G01X4532Y14599D01*
G01X4513Y14563D02*
G01X4522Y14572D01*
G01X4495Y14554D02*
G01X4513Y14563D01*
G01X4459Y14863D02*
G01X4459Y14754D01*
G01X4441Y14863D02*
G01X4459Y14863D01*
G01X4422Y14854D02*
G01X4441Y14863D01*
G01X4413Y14844D02*
G01X4422Y14854D01*
G01X4404Y14826D02*
G01X4413Y14844D01*
G01X4404Y14799D02*
G01X4404Y14826D01*
G01X4404Y14799D02*
G01X4413Y14781D01*
G01X4413Y14781D02*
G01X4432Y14763D01*
G01X4432Y14763D02*
G01X4459Y14754D01*
G01X4459Y14754D02*
G01X4477Y14754D01*
G01X4477Y14754D02*
G01X4504Y14763D01*
G01X4504Y14763D02*
G01X4522Y14781D01*
G01X4522Y14781D02*
G01X4532Y14799D01*
G01X4532Y14826D02*
G01X4532Y14799D01*
G01X4522Y14844D02*
G01X4532Y14826D01*
G01X4504Y14863D02*
G01X4522Y14844D01*
G04 Draw part R12*
G04 draw part outline for part R12*
G04 draw value for part R12*
G01X4336Y13466D02*
G01X4336Y13366D01*
G01X4336Y13466D02*
G01X4408Y13411D01*
G01X4408Y13438D02*
G01X4408Y13411D01*
G01X4408Y13438D02*
G01X4417Y13457D01*
G01X4417Y13457D02*
G01X4427Y13466D01*
G01X4427Y13466D02*
G01X4454Y13475D01*
G01X4454Y13475D02*
G01X4472Y13475D01*
G01X4472Y13475D02*
G01X4499Y13466D01*
G01X4499Y13466D02*
G01X4517Y13448D01*
G01X4517Y13448D02*
G01X4527Y13420D01*
G01X4527Y13393D02*
G01X4527Y13420D01*
G01X4517Y13366D02*
G01X4527Y13393D01*
G01X4508Y13357D02*
G01X4517Y13366D01*
G01X4490Y13348D02*
G01X4508Y13357D01*
G01X4336Y13666D02*
G01X4336Y13566D01*
G01X4336Y13666D02*
G01X4408Y13611D01*
G01X4408Y13638D02*
G01X4408Y13611D01*
G01X4408Y13638D02*
G01X4417Y13657D01*
G01X4417Y13657D02*
G01X4427Y13666D01*
G01X4427Y13666D02*
G01X4454Y13675D01*
G01X4454Y13675D02*
G01X4472Y13675D01*
G01X4472Y13675D02*
G01X4499Y13666D01*
G01X4499Y13666D02*
G01X4517Y13648D01*
G01X4517Y13648D02*
G01X4527Y13620D01*
G01X4527Y13593D02*
G01X4527Y13620D01*
G01X4517Y13566D02*
G01X4527Y13593D01*
G01X4508Y13557D02*
G01X4517Y13566D01*
G01X4490Y13548D02*
G01X4508Y13557D01*
G01X4454Y13857D02*
G01X4454Y13748D01*
G01X4436Y13857D02*
G01X4454Y13857D01*
G01X4417Y13848D02*
G01X4436Y13857D01*
G01X4408Y13838D02*
G01X4417Y13848D01*
G01X4399Y13820D02*
G01X4408Y13838D01*
G01X4399Y13793D02*
G01X4399Y13820D01*
G01X4399Y13793D02*
G01X4408Y13775D01*
G01X4408Y13775D02*
G01X4427Y13757D01*
G01X4427Y13757D02*
G01X4454Y13748D01*
G01X4454Y13748D02*
G01X4472Y13748D01*
G01X4472Y13748D02*
G01X4499Y13757D01*
G01X4499Y13757D02*
G01X4517Y13775D01*
G01X4517Y13775D02*
G01X4527Y13793D01*
G01X4527Y13820D02*
G01X4527Y13793D01*
G01X4517Y13838D02*
G01X4527Y13820D01*
G01X4499Y13857D02*
G01X4517Y13838D01*
G04 Draw part R14*
G04 draw part outline for part R14*
G04 draw value for part R14*
G01X4341Y12451D02*
G01X4341Y12351D01*
G01X4341Y12451D02*
G01X4413Y12396D01*
G01X4413Y12423D02*
G01X4413Y12396D01*
G01X4413Y12423D02*
G01X4422Y12442D01*
G01X4422Y12442D02*
G01X4432Y12451D01*
G01X4432Y12451D02*
G01X4459Y12460D01*
G01X4459Y12460D02*
G01X4477Y12460D01*
G01X4477Y12460D02*
G01X4504Y12451D01*
G01X4504Y12451D02*
G01X4522Y12433D01*
G01X4522Y12433D02*
G01X4532Y12405D01*
G01X4532Y12378D02*
G01X4532Y12405D01*
G01X4522Y12351D02*
G01X4532Y12378D01*
G01X4513Y12342D02*
G01X4522Y12351D01*
G01X4495Y12333D02*
G01X4513Y12342D01*
G01X4341Y12651D02*
G01X4341Y12551D01*
G01X4341Y12651D02*
G01X4413Y12596D01*
G01X4413Y12623D02*
G01X4413Y12596D01*
G01X4413Y12623D02*
G01X4422Y12642D01*
G01X4422Y12642D02*
G01X4432Y12651D01*
G01X4432Y12651D02*
G01X4459Y12660D01*
G01X4459Y12660D02*
G01X4477Y12660D01*
G01X4477Y12660D02*
G01X4504Y12651D01*
G01X4504Y12651D02*
G01X4522Y12633D01*
G01X4522Y12633D02*
G01X4532Y12605D01*
G01X4532Y12578D02*
G01X4532Y12605D01*
G01X4522Y12551D02*
G01X4532Y12578D01*
G01X4513Y12542D02*
G01X4522Y12551D01*
G01X4495Y12533D02*
G01X4513Y12542D01*
G01X4459Y12842D02*
G01X4459Y12733D01*
G01X4441Y12842D02*
G01X4459Y12842D01*
G01X4422Y12833D02*
G01X4441Y12842D01*
G01X4413Y12823D02*
G01X4422Y12833D01*
G01X4404Y12805D02*
G01X4413Y12823D01*
G01X4404Y12778D02*
G01X4404Y12805D01*
G01X4404Y12778D02*
G01X4413Y12760D01*
G01X4413Y12760D02*
G01X4432Y12742D01*
G01X4432Y12742D02*
G01X4459Y12733D01*
G01X4459Y12733D02*
G01X4477Y12733D01*
G01X4477Y12733D02*
G01X4504Y12742D01*
G01X4504Y12742D02*
G01X4522Y12760D01*
G01X4522Y12760D02*
G01X4532Y12778D01*
G01X4532Y12805D02*
G01X4532Y12778D01*
G01X4522Y12823D02*
G01X4532Y12805D01*
G01X4504Y12842D02*
G01X4522Y12823D01*
G04 Draw part R16*
G04 draw part outline for part R16*
G04 draw value for part R16*
G01X4343Y11465D02*
G01X4343Y11365D01*
G01X4343Y11465D02*
G01X4415Y11410D01*
G01X4415Y11437D02*
G01X4415Y11410D01*
G01X4415Y11437D02*
G01X4424Y11456D01*
G01X4424Y11456D02*
G01X4434Y11465D01*
G01X4434Y11465D02*
G01X4461Y11474D01*
G01X4461Y11474D02*
G01X4479Y11474D01*
G01X4479Y11474D02*
G01X4506Y11465D01*
G01X4506Y11465D02*
G01X4524Y11447D01*
G01X4524Y11447D02*
G01X4534Y11419D01*
G01X4534Y11392D02*
G01X4534Y11419D01*
G01X4524Y11365D02*
G01X4534Y11392D01*
G01X4515Y11356D02*
G01X4524Y11365D01*
G01X4497Y11347D02*
G01X4515Y11356D01*
G01X4343Y11665D02*
G01X4343Y11565D01*
G01X4343Y11665D02*
G01X4415Y11610D01*
G01X4415Y11637D02*
G01X4415Y11610D01*
G01X4415Y11637D02*
G01X4424Y11656D01*
G01X4424Y11656D02*
G01X4434Y11665D01*
G01X4434Y11665D02*
G01X4461Y11674D01*
G01X4461Y11674D02*
G01X4479Y11674D01*
G01X4479Y11674D02*
G01X4506Y11665D01*
G01X4506Y11665D02*
G01X4524Y11647D01*
G01X4524Y11647D02*
G01X4534Y11619D01*
G01X4534Y11592D02*
G01X4534Y11619D01*
G01X4524Y11565D02*
G01X4534Y11592D01*
G01X4515Y11556D02*
G01X4524Y11565D01*
G01X4497Y11547D02*
G01X4515Y11556D01*
G01X4461Y11856D02*
G01X4461Y11747D01*
G01X4443Y11856D02*
G01X4461Y11856D01*
G01X4424Y11847D02*
G01X4443Y11856D01*
G01X4415Y11837D02*
G01X4424Y11847D01*
G01X4406Y11819D02*
G01X4415Y11837D01*
G01X4406Y11792D02*
G01X4406Y11819D01*
G01X4406Y11792D02*
G01X4415Y11774D01*
G01X4415Y11774D02*
G01X4434Y11756D01*
G01X4434Y11756D02*
G01X4461Y11747D01*
G01X4461Y11747D02*
G01X4479Y11747D01*
G01X4479Y11747D02*
G01X4506Y11756D01*
G01X4506Y11756D02*
G01X4524Y11774D01*
G01X4524Y11774D02*
G01X4534Y11792D01*
G01X4534Y11819D02*
G01X4534Y11792D01*
G01X4524Y11837D02*
G01X4534Y11819D01*
G01X4506Y11856D02*
G01X4524Y11837D01*
G04 Draw part R18*
G04 draw part outline for part R18*
G04 draw value for part R18*
G01X4345Y10467D02*
G01X4345Y10367D01*
G01X4345Y10467D02*
G01X4417Y10412D01*
G01X4417Y10439D02*
G01X4417Y10412D01*
G01X4417Y10439D02*
G01X4426Y10458D01*
G01X4426Y10458D02*
G01X4436Y10467D01*
G01X4436Y10467D02*
G01X4463Y10476D01*
G01X4463Y10476D02*
G01X4481Y10476D01*
G01X4481Y10476D02*
G01X4508Y10467D01*
G01X4508Y10467D02*
G01X4526Y10449D01*
G01X4526Y10449D02*
G01X4536Y10421D01*
G01X4536Y10394D02*
G01X4536Y10421D01*
G01X4526Y10367D02*
G01X4536Y10394D01*
G01X4517Y10358D02*
G01X4526Y10367D01*
G01X4499Y10349D02*
G01X4517Y10358D01*
G01X4345Y10667D02*
G01X4345Y10567D01*
G01X4345Y10667D02*
G01X4417Y10612D01*
G01X4417Y10639D02*
G01X4417Y10612D01*
G01X4417Y10639D02*
G01X4426Y10658D01*
G01X4426Y10658D02*
G01X4436Y10667D01*
G01X4436Y10667D02*
G01X4463Y10676D01*
G01X4463Y10676D02*
G01X4481Y10676D01*
G01X4481Y10676D02*
G01X4508Y10667D01*
G01X4508Y10667D02*
G01X4526Y10649D01*
G01X4526Y10649D02*
G01X4536Y10621D01*
G01X4536Y10594D02*
G01X4536Y10621D01*
G01X4526Y10567D02*
G01X4536Y10594D01*
G01X4517Y10558D02*
G01X4526Y10567D01*
G01X4499Y10549D02*
G01X4517Y10558D01*
G01X4463Y10858D02*
G01X4463Y10749D01*
G01X4445Y10858D02*
G01X4463Y10858D01*
G01X4426Y10849D02*
G01X4445Y10858D01*
G01X4417Y10839D02*
G01X4426Y10849D01*
G01X4408Y10821D02*
G01X4417Y10839D01*
G01X4408Y10794D02*
G01X4408Y10821D01*
G01X4408Y10794D02*
G01X4417Y10776D01*
G01X4417Y10776D02*
G01X4436Y10758D01*
G01X4436Y10758D02*
G01X4463Y10749D01*
G01X4463Y10749D02*
G01X4481Y10749D01*
G01X4481Y10749D02*
G01X4508Y10758D01*
G01X4508Y10758D02*
G01X4526Y10776D01*
G01X4526Y10776D02*
G01X4536Y10794D01*
G01X4536Y10821D02*
G01X4536Y10794D01*
G01X4526Y10839D02*
G01X4536Y10821D01*
G01X4508Y10858D02*
G01X4526Y10839D01*
G04 Draw part R20*
G04 draw part outline for part R20*
G04 draw value for part R20*
G01X4342Y9450D02*
G01X4342Y9350D01*
G01X4342Y9450D02*
G01X4414Y9395D01*
G01X4414Y9422D02*
G01X4414Y9395D01*
G01X4414Y9422D02*
G01X4423Y9441D01*
G01X4423Y9441D02*
G01X4433Y9450D01*
G01X4433Y9450D02*
G01X4460Y9459D01*
G01X4460Y9459D02*
G01X4478Y9459D01*
G01X4478Y9459D02*
G01X4505Y9450D01*
G01X4505Y9450D02*
G01X4523Y9432D01*
G01X4523Y9432D02*
G01X4533Y9404D01*
G01X4533Y9377D02*
G01X4533Y9404D01*
G01X4523Y9350D02*
G01X4533Y9377D01*
G01X4514Y9341D02*
G01X4523Y9350D01*
G01X4496Y9332D02*
G01X4514Y9341D01*
G01X4342Y9650D02*
G01X4342Y9550D01*
G01X4342Y9650D02*
G01X4414Y9595D01*
G01X4414Y9622D02*
G01X4414Y9595D01*
G01X4414Y9622D02*
G01X4423Y9641D01*
G01X4423Y9641D02*
G01X4433Y9650D01*
G01X4433Y9650D02*
G01X4460Y9659D01*
G01X4460Y9659D02*
G01X4478Y9659D01*
G01X4478Y9659D02*
G01X4505Y9650D01*
G01X4505Y9650D02*
G01X4523Y9632D01*
G01X4523Y9632D02*
G01X4533Y9604D01*
G01X4533Y9577D02*
G01X4533Y9604D01*
G01X4523Y9550D02*
G01X4533Y9577D01*
G01X4514Y9541D02*
G01X4523Y9550D01*
G01X4496Y9532D02*
G01X4514Y9541D01*
G01X4460Y9841D02*
G01X4460Y9732D01*
G01X4442Y9841D02*
G01X4460Y9841D01*
G01X4423Y9832D02*
G01X4442Y9841D01*
G01X4414Y9822D02*
G01X4423Y9832D01*
G01X4405Y9804D02*
G01X4414Y9822D01*
G01X4405Y9777D02*
G01X4405Y9804D01*
G01X4405Y9777D02*
G01X4414Y9759D01*
G01X4414Y9759D02*
G01X4433Y9741D01*
G01X4433Y9741D02*
G01X4460Y9732D01*
G01X4460Y9732D02*
G01X4478Y9732D01*
G01X4478Y9732D02*
G01X4505Y9741D01*
G01X4505Y9741D02*
G01X4523Y9759D01*
G01X4523Y9759D02*
G01X4533Y9777D01*
G01X4533Y9804D02*
G01X4533Y9777D01*
G01X4523Y9822D02*
G01X4533Y9804D01*
G01X4505Y9841D02*
G01X4523Y9822D01*
G04 Draw part R22*
G04 draw part outline for part R22*
G04 draw value for part R22*
G01X4341Y8454D02*
G01X4341Y8354D01*
G01X4341Y8454D02*
G01X4413Y8399D01*
G01X4413Y8426D02*
G01X4413Y8399D01*
G01X4413Y8426D02*
G01X4422Y8445D01*
G01X4422Y8445D02*
G01X4432Y8454D01*
G01X4432Y8454D02*
G01X4459Y8463D01*
G01X4459Y8463D02*
G01X4477Y8463D01*
G01X4477Y8463D02*
G01X4504Y8454D01*
G01X4504Y8454D02*
G01X4522Y8436D01*
G01X4522Y8436D02*
G01X4532Y8408D01*
G01X4532Y8381D02*
G01X4532Y8408D01*
G01X4522Y8354D02*
G01X4532Y8381D01*
G01X4513Y8345D02*
G01X4522Y8354D01*
G01X4495Y8336D02*
G01X4513Y8345D01*
G01X4341Y8654D02*
G01X4341Y8554D01*
G01X4341Y8654D02*
G01X4413Y8599D01*
G01X4413Y8626D02*
G01X4413Y8599D01*
G01X4413Y8626D02*
G01X4422Y8645D01*
G01X4422Y8645D02*
G01X4432Y8654D01*
G01X4432Y8654D02*
G01X4459Y8663D01*
G01X4459Y8663D02*
G01X4477Y8663D01*
G01X4477Y8663D02*
G01X4504Y8654D01*
G01X4504Y8654D02*
G01X4522Y8636D01*
G01X4522Y8636D02*
G01X4532Y8608D01*
G01X4532Y8581D02*
G01X4532Y8608D01*
G01X4522Y8554D02*
G01X4532Y8581D01*
G01X4513Y8545D02*
G01X4522Y8554D01*
G01X4495Y8536D02*
G01X4513Y8545D01*
G01X4459Y8845D02*
G01X4459Y8736D01*
G01X4441Y8845D02*
G01X4459Y8845D01*
G01X4422Y8836D02*
G01X4441Y8845D01*
G01X4413Y8826D02*
G01X4422Y8836D01*
G01X4404Y8808D02*
G01X4413Y8826D01*
G01X4404Y8781D02*
G01X4404Y8808D01*
G01X4404Y8781D02*
G01X4413Y8763D01*
G01X4413Y8763D02*
G01X4432Y8745D01*
G01X4432Y8745D02*
G01X4459Y8736D01*
G01X4459Y8736D02*
G01X4477Y8736D01*
G01X4477Y8736D02*
G01X4504Y8745D01*
G01X4504Y8745D02*
G01X4522Y8763D01*
G01X4522Y8763D02*
G01X4532Y8781D01*
G01X4532Y8808D02*
G01X4532Y8781D01*
G01X4522Y8826D02*
G01X4532Y8808D01*
G01X4504Y8845D02*
G01X4522Y8826D01*
G04 Draw part R24*
G04 draw part outline for part R24*
G04 draw value for part R24*
G01X4343Y7430D02*
G01X4343Y7330D01*
G01X4343Y7430D02*
G01X4415Y7375D01*
G01X4415Y7402D02*
G01X4415Y7375D01*
G01X4415Y7402D02*
G01X4424Y7421D01*
G01X4424Y7421D02*
G01X4434Y7430D01*
G01X4434Y7430D02*
G01X4461Y7439D01*
G01X4461Y7439D02*
G01X4479Y7439D01*
G01X4479Y7439D02*
G01X4506Y7430D01*
G01X4506Y7430D02*
G01X4524Y7412D01*
G01X4524Y7412D02*
G01X4534Y7384D01*
G01X4534Y7357D02*
G01X4534Y7384D01*
G01X4524Y7330D02*
G01X4534Y7357D01*
G01X4515Y7321D02*
G01X4524Y7330D01*
G01X4497Y7312D02*
G01X4515Y7321D01*
G01X4343Y7630D02*
G01X4343Y7530D01*
G01X4343Y7630D02*
G01X4415Y7575D01*
G01X4415Y7602D02*
G01X4415Y7575D01*
G01X4415Y7602D02*
G01X4424Y7621D01*
G01X4424Y7621D02*
G01X4434Y7630D01*
G01X4434Y7630D02*
G01X4461Y7639D01*
G01X4461Y7639D02*
G01X4479Y7639D01*
G01X4479Y7639D02*
G01X4506Y7630D01*
G01X4506Y7630D02*
G01X4524Y7612D01*
G01X4524Y7612D02*
G01X4534Y7584D01*
G01X4534Y7557D02*
G01X4534Y7584D01*
G01X4524Y7530D02*
G01X4534Y7557D01*
G01X4515Y7521D02*
G01X4524Y7530D01*
G01X4497Y7512D02*
G01X4515Y7521D01*
G01X4461Y7821D02*
G01X4461Y7712D01*
G01X4443Y7821D02*
G01X4461Y7821D01*
G01X4424Y7812D02*
G01X4443Y7821D01*
G01X4415Y7802D02*
G01X4424Y7812D01*
G01X4406Y7784D02*
G01X4415Y7802D01*
G01X4406Y7757D02*
G01X4406Y7784D01*
G01X4406Y7757D02*
G01X4415Y7739D01*
G01X4415Y7739D02*
G01X4434Y7721D01*
G01X4434Y7721D02*
G01X4461Y7712D01*
G01X4461Y7712D02*
G01X4479Y7712D01*
G01X4479Y7712D02*
G01X4506Y7721D01*
G01X4506Y7721D02*
G01X4524Y7739D01*
G01X4524Y7739D02*
G01X4534Y7757D01*
G01X4534Y7784D02*
G01X4534Y7757D01*
G01X4524Y7802D02*
G01X4534Y7784D01*
G01X4506Y7821D02*
G01X4524Y7802D01*
G04 Draw part R26*
G04 draw part outline for part R26*
G04 draw value for part R26*
G01X4344Y6447D02*
G01X4344Y6347D01*
G01X4344Y6447D02*
G01X4416Y6392D01*
G01X4416Y6419D02*
G01X4416Y6392D01*
G01X4416Y6419D02*
G01X4425Y6438D01*
G01X4425Y6438D02*
G01X4435Y6447D01*
G01X4435Y6447D02*
G01X4462Y6456D01*
G01X4462Y6456D02*
G01X4480Y6456D01*
G01X4480Y6456D02*
G01X4507Y6447D01*
G01X4507Y6447D02*
G01X4525Y6429D01*
G01X4525Y6429D02*
G01X4535Y6401D01*
G01X4535Y6374D02*
G01X4535Y6401D01*
G01X4525Y6347D02*
G01X4535Y6374D01*
G01X4516Y6338D02*
G01X4525Y6347D01*
G01X4498Y6329D02*
G01X4516Y6338D01*
G01X4344Y6647D02*
G01X4344Y6547D01*
G01X4344Y6647D02*
G01X4416Y6592D01*
G01X4416Y6619D02*
G01X4416Y6592D01*
G01X4416Y6619D02*
G01X4425Y6638D01*
G01X4425Y6638D02*
G01X4435Y6647D01*
G01X4435Y6647D02*
G01X4462Y6656D01*
G01X4462Y6656D02*
G01X4480Y6656D01*
G01X4480Y6656D02*
G01X4507Y6647D01*
G01X4507Y6647D02*
G01X4525Y6629D01*
G01X4525Y6629D02*
G01X4535Y6601D01*
G01X4535Y6574D02*
G01X4535Y6601D01*
G01X4525Y6547D02*
G01X4535Y6574D01*
G01X4516Y6538D02*
G01X4525Y6547D01*
G01X4498Y6529D02*
G01X4516Y6538D01*
G01X4462Y6838D02*
G01X4462Y6729D01*
G01X4444Y6838D02*
G01X4462Y6838D01*
G01X4425Y6829D02*
G01X4444Y6838D01*
G01X4416Y6819D02*
G01X4425Y6829D01*
G01X4407Y6801D02*
G01X4416Y6819D01*
G01X4407Y6774D02*
G01X4407Y6801D01*
G01X4407Y6774D02*
G01X4416Y6756D01*
G01X4416Y6756D02*
G01X4435Y6738D01*
G01X4435Y6738D02*
G01X4462Y6729D01*
G01X4462Y6729D02*
G01X4480Y6729D01*
G01X4480Y6729D02*
G01X4507Y6738D01*
G01X4507Y6738D02*
G01X4525Y6756D01*
G01X4525Y6756D02*
G01X4535Y6774D01*
G01X4535Y6801D02*
G01X4535Y6774D01*
G01X4525Y6819D02*
G01X4535Y6801D01*
G01X4507Y6838D02*
G01X4525Y6819D01*
G04 Draw part R28*
G04 draw part outline for part R28*
G04 draw value for part R28*
G01X4340Y5487D02*
G01X4340Y5387D01*
G01X4340Y5487D02*
G01X4412Y5432D01*
G01X4412Y5459D02*
G01X4412Y5432D01*
G01X4412Y5459D02*
G01X4421Y5478D01*
G01X4421Y5478D02*
G01X4431Y5487D01*
G01X4431Y5487D02*
G01X4458Y5496D01*
G01X4458Y5496D02*
G01X4476Y5496D01*
G01X4476Y5496D02*
G01X4503Y5487D01*
G01X4503Y5487D02*
G01X4521Y5469D01*
G01X4521Y5469D02*
G01X4531Y5441D01*
G01X4531Y5414D02*
G01X4531Y5441D01*
G01X4521Y5387D02*
G01X4531Y5414D01*
G01X4512Y5378D02*
G01X4521Y5387D01*
G01X4494Y5369D02*
G01X4512Y5378D01*
G01X4340Y5687D02*
G01X4340Y5587D01*
G01X4340Y5687D02*
G01X4412Y5632D01*
G01X4412Y5659D02*
G01X4412Y5632D01*
G01X4412Y5659D02*
G01X4421Y5678D01*
G01X4421Y5678D02*
G01X4431Y5687D01*
G01X4431Y5687D02*
G01X4458Y5696D01*
G01X4458Y5696D02*
G01X4476Y5696D01*
G01X4476Y5696D02*
G01X4503Y5687D01*
G01X4503Y5687D02*
G01X4521Y5669D01*
G01X4521Y5669D02*
G01X4531Y5641D01*
G01X4531Y5614D02*
G01X4531Y5641D01*
G01X4521Y5587D02*
G01X4531Y5614D01*
G01X4512Y5578D02*
G01X4521Y5587D01*
G01X4494Y5569D02*
G01X4512Y5578D01*
G01X4458Y5878D02*
G01X4458Y5769D01*
G01X4440Y5878D02*
G01X4458Y5878D01*
G01X4421Y5869D02*
G01X4440Y5878D01*
G01X4412Y5859D02*
G01X4421Y5869D01*
G01X4403Y5841D02*
G01X4412Y5859D01*
G01X4403Y5814D02*
G01X4403Y5841D01*
G01X4403Y5814D02*
G01X4412Y5796D01*
G01X4412Y5796D02*
G01X4431Y5778D01*
G01X4431Y5778D02*
G01X4458Y5769D01*
G01X4458Y5769D02*
G01X4476Y5769D01*
G01X4476Y5769D02*
G01X4503Y5778D01*
G01X4503Y5778D02*
G01X4521Y5796D01*
G01X4521Y5796D02*
G01X4531Y5814D01*
G01X4531Y5841D02*
G01X4531Y5814D01*
G01X4521Y5859D02*
G01X4531Y5841D01*
G01X4503Y5878D02*
G01X4521Y5859D01*
G04 Draw part U1*
G04 draw part outline for part U1*
G54D13*
G01X5196Y15059D02*
G01X10236Y15059D01*
G01X10236Y15059D02*
G01X10236Y18011D01*
G01X10236Y18011D02*
G01X5196Y18011D01*
G01X5196Y18011D02*
G01X5196Y16873D01*
G01X5196Y16873D02*
G01X5354Y16873D01*
G01X5354Y16873D02*
G01X5354Y16197D01*
G01X5354Y16197D02*
G01X5196Y16197D01*
G01X5196Y16197D02*
G01X5196Y15059D01*
G04 draw value for part U1*
G54D11*
G01X6084Y16369D02*
G01X6084Y15988D01*
G01X6247Y16369D02*
G01X6084Y16369D01*
G01X6247Y16369D02*
G01X6302Y16351D01*
G01X6302Y16351D02*
G01X6320Y16333D01*
G01X6320Y16333D02*
G01X6338Y16297D01*
G01X6338Y16297D02*
G01X6338Y16242D01*
G01X6338Y16242D02*
G01X6320Y16206D01*
G01X6320Y16206D02*
G01X6302Y16188D01*
G01X6302Y16188D02*
G01X6247Y16169D01*
G01X6084Y16169D02*
G01X6247Y16169D01*
G01X6484Y16369D02*
G01X6484Y15988D01*
G01X6884Y16315D02*
G01X6902Y16278D01*
G01X6847Y16351D02*
G01X6884Y16315D01*
G01X6811Y16369D02*
G01X6847Y16351D01*
G01X6738Y16369D02*
G01X6811Y16369D01*
G01X6738Y16369D02*
G01X6702Y16351D01*
G01X6702Y16351D02*
G01X6665Y16315D01*
G01X6665Y16315D02*
G01X6647Y16278D01*
G01X6647Y16278D02*
G01X6629Y16224D01*
G01X6629Y16224D02*
G01X6629Y16133D01*
G01X6629Y16133D02*
G01X6647Y16078D01*
G01X6647Y16078D02*
G01X6665Y16042D01*
G01X6665Y16042D02*
G01X6702Y16006D01*
G01X6702Y16006D02*
G01X6738Y15988D01*
G01X6811Y15988D02*
G01X6738Y15988D01*
G01X6847Y16006D02*
G01X6811Y15988D01*
G01X6884Y16042D02*
G01X6847Y16006D01*
G01X6902Y16078D02*
G01X6884Y16042D01*
G01X7083Y16315D02*
G01X7047Y16297D01*
G01X7138Y16369D02*
G01X7083Y16315D01*
G01X7138Y16369D02*
G01X7138Y15988D01*
G01X7483Y16351D02*
G01X7502Y16315D01*
G01X7429Y16369D02*
G01X7483Y16351D01*
G01X7393Y16369D02*
G01X7429Y16369D01*
G01X7393Y16369D02*
G01X7338Y16351D01*
G01X7338Y16351D02*
G01X7302Y16297D01*
G01X7302Y16297D02*
G01X7283Y16206D01*
G01X7283Y16206D02*
G01X7283Y16115D01*
G01X7283Y16115D02*
G01X7302Y16042D01*
G01X7302Y16042D02*
G01X7338Y16006D01*
G01X7338Y16006D02*
G01X7393Y15988D01*
G01X7411Y15988D02*
G01X7393Y15988D01*
G01X7465Y16006D02*
G01X7411Y15988D01*
G01X7502Y16042D02*
G01X7465Y16006D01*
G01X7520Y16097D02*
G01X7502Y16042D01*
G01X7520Y16115D02*
G01X7520Y16097D01*
G01X7502Y16169D02*
G01X7520Y16115D01*
G01X7465Y16206D02*
G01X7502Y16169D01*
G01X7411Y16224D02*
G01X7465Y16206D01*
G01X7393Y16224D02*
G01X7411Y16224D01*
G01X7393Y16224D02*
G01X7338Y16206D01*
G01X7338Y16206D02*
G01X7302Y16169D01*
G01X7302Y16169D02*
G01X7283Y16115D01*
G01X7665Y16369D02*
G01X7665Y15988D01*
G01X7902Y16369D02*
G01X7665Y16369D01*
G01X7811Y16188D02*
G01X7665Y16188D01*
G01X8084Y16315D02*
G01X8047Y16297D01*
G01X8138Y16369D02*
G01X8084Y16315D01*
G01X8138Y16369D02*
G01X8138Y15988D01*
G01X8465Y16369D02*
G01X8284Y16115D01*
G01X8556Y16115D02*
G01X8284Y16115D01*
G01X8465Y16369D02*
G01X8465Y15988D01*
G01X8738Y16369D02*
G01X8920Y16369D01*
G01X8738Y16369D02*
G01X8720Y16206D01*
G01X8738Y16224D02*
G01X8720Y16206D01*
G01X8793Y16242D02*
G01X8738Y16224D01*
G01X8847Y16242D02*
G01X8793Y16242D01*
G01X8847Y16242D02*
G01X8902Y16224D01*
G01X8902Y16224D02*
G01X8938Y16188D01*
G01X8938Y16188D02*
G01X8956Y16133D01*
G01X8956Y16133D02*
G01X8956Y16097D01*
G01X8956Y16097D02*
G01X8938Y16042D01*
G01X8938Y16042D02*
G01X8902Y16006D01*
G01X8902Y16006D02*
G01X8847Y15988D01*
G01X8793Y15988D02*
G01X8847Y15988D01*
G01X8738Y16006D02*
G01X8793Y15988D01*
G01X8720Y16024D02*
G01X8738Y16006D01*
G01X8702Y16060D02*
G01X8720Y16024D01*
G01X9338Y16242D02*
G01X9320Y16188D01*
G01X9320Y16188D02*
G01X9284Y16151D01*
G01X9284Y16151D02*
G01X9229Y16133D01*
G01X9211Y16133D02*
G01X9229Y16133D01*
G01X9156Y16151D02*
G01X9211Y16133D01*
G01X9120Y16188D02*
G01X9156Y16151D01*
G01X9102Y16242D02*
G01X9120Y16188D01*
G01X9102Y16260D02*
G01X9102Y16242D01*
G01X9120Y16315D02*
G01X9102Y16260D01*
G01X9156Y16351D02*
G01X9120Y16315D01*
G01X9211Y16369D02*
G01X9156Y16351D01*
G01X9229Y16369D02*
G01X9211Y16369D01*
G01X9229Y16369D02*
G01X9284Y16351D01*
G01X9284Y16351D02*
G01X9320Y16315D01*
G01X9320Y16315D02*
G01X9338Y16242D01*
G01X9338Y16242D02*
G01X9338Y16151D01*
G01X9338Y16151D02*
G01X9320Y16060D01*
G01X9320Y16060D02*
G01X9284Y16006D01*
G01X9284Y16006D02*
G01X9229Y15988D01*
G01X9193Y15988D02*
G01X9229Y15988D01*
G01X9138Y16006D02*
G01X9193Y15988D01*
G01X9120Y16042D02*
G01X9138Y16006D01*
G04 Draw part J1*
G04 draw part outline for part J1*
G54D13*
G01X8937Y22125D02*
G01X8937Y22637D01*
G01X8937Y22637D02*
G01X9094Y22637D01*
G01X9094Y22637D02*
G01X9094Y23267D01*
G01X9094Y23267D02*
G01X6259Y23267D01*
G01X6259Y23267D02*
G01X6259Y22637D01*
G01X6259Y22637D02*
G01X6417Y22637D01*
G01X6417Y22637D02*
G01X6417Y22125D01*
G01X8937Y20905D02*
G01X8307Y20905D01*
G01X7047Y20905D02*
G01X6417Y20905D01*
G04 draw value for part J1*
G54D11*
G01X9232Y22116D02*
G01X9504Y22116D01*
G01X9504Y22116D02*
G01X9559Y22134D01*
G01X9559Y22134D02*
G01X9595Y22170D01*
G01X9595Y22170D02*
G01X9614Y22225D01*
G01X9614Y22261D02*
G01X9614Y22225D01*
G01X9595Y22316D02*
G01X9614Y22261D01*
G01X9559Y22352D02*
G01X9595Y22316D01*
G01X9504Y22370D02*
G01X9559Y22352D01*
G01X9232Y22370D02*
G01X9504Y22370D01*
G01X9250Y22734D02*
G01X9286Y22770D01*
G01X9232Y22679D02*
G01X9250Y22734D01*
G01X9232Y22607D02*
G01X9232Y22679D01*
G01X9232Y22607D02*
G01X9250Y22552D01*
G01X9250Y22552D02*
G01X9286Y22516D01*
G01X9286Y22516D02*
G01X9323Y22516D01*
G01X9323Y22516D02*
G01X9359Y22534D01*
G01X9359Y22534D02*
G01X9377Y22552D01*
G01X9377Y22552D02*
G01X9395Y22588D01*
G01X9395Y22588D02*
G01X9432Y22697D01*
G01X9432Y22697D02*
G01X9450Y22734D01*
G01X9450Y22734D02*
G01X9468Y22752D01*
G01X9468Y22752D02*
G01X9504Y22770D01*
G01X9504Y22770D02*
G01X9559Y22770D01*
G01X9559Y22770D02*
G01X9595Y22734D01*
G01X9595Y22734D02*
G01X9614Y22679D01*
G01X9614Y22607D02*
G01X9614Y22679D01*
G01X9595Y22552D02*
G01X9614Y22607D01*
G01X9559Y22516D02*
G01X9595Y22552D01*
G01X9232Y22916D02*
G01X9614Y22916D01*
G01X9232Y23079D02*
G01X9232Y22916D01*
G01X9232Y23079D02*
G01X9250Y23134D01*
G01X9250Y23134D02*
G01X9268Y23152D01*
G01X9268Y23152D02*
G01X9304Y23170D01*
G01X9304Y23170D02*
G01X9341Y23170D01*
G01X9341Y23170D02*
G01X9377Y23152D01*
G01X9377Y23152D02*
G01X9395Y23134D01*
G01X9395Y23134D02*
G01X9414Y23079D01*
G01X9414Y23079D02*
G01X9414Y22916D01*
G01X9414Y23079D02*
G01X9432Y23134D01*
G01X9432Y23134D02*
G01X9450Y23152D01*
G01X9450Y23152D02*
G01X9486Y23170D01*
G01X9486Y23170D02*
G01X9541Y23170D01*
G01X9541Y23170D02*
G01X9577Y23152D01*
G01X9577Y23152D02*
G01X9595Y23134D01*
G01X9595Y23134D02*
G01X9614Y23079D01*
G01X9614Y22916D02*
G01X9614Y23079D01*
G04 Draw part J4*
G04 draw part outline for part J4*
G04 Draw part J5*
G04 draw part outline for part J5*
G04 Draw part J6*
G04 draw part outline for part J6*
G04 Draw part J7*
G04 draw part outline for part J7*
G04 Draw part D1*
G04 draw part outline for part D1*
G01X11535Y22283D02*
G01X10511Y22283D01*
G01X10511Y22283D02*
G01X10511Y20236D01*
G01X10511Y20236D02*
G01X11535Y20236D01*
G01X11535Y20236D02*
G01X11535Y22283D01*
G01X11535Y20354D02*
G01X11535Y20354D01*
G01X11535Y20354D02*
G01X10511Y20354D01*
G04 draw value for part D1*
G01X11653Y20348D02*
G01X11671Y20312D01*
G01X11599Y20402D02*
G01X11653Y20348D01*
G01X11599Y20402D02*
G01X11981Y20402D01*
G01X11599Y20548D02*
G01X11981Y20548D01*
G01X11599Y20548D02*
G01X11981Y20802D01*
G01X11599Y20802D02*
G01X11981Y20802D01*
G01X11599Y20984D02*
G01X11599Y21166D01*
G01X11599Y20984D02*
G01X11762Y20966D01*
G01X11744Y20984D02*
G01X11762Y20966D01*
G01X11726Y21039D02*
G01X11744Y20984D01*
G01X11726Y21093D02*
G01X11726Y21039D01*
G01X11726Y21093D02*
G01X11744Y21148D01*
G01X11744Y21148D02*
G01X11781Y21184D01*
G01X11781Y21184D02*
G01X11835Y21202D01*
G01X11835Y21202D02*
G01X11871Y21202D01*
G01X11871Y21202D02*
G01X11926Y21184D01*
G01X11926Y21184D02*
G01X11962Y21148D01*
G01X11962Y21148D02*
G01X11981Y21093D01*
G01X11981Y21039D02*
G01X11981Y21093D01*
G01X11962Y20984D02*
G01X11981Y21039D01*
G01X11944Y20966D02*
G01X11962Y20984D01*
G01X11908Y20948D02*
G01X11944Y20966D01*
G01X11599Y21439D02*
G01X11617Y21384D01*
G01X11617Y21384D02*
G01X11653Y21366D01*
G01X11653Y21366D02*
G01X11690Y21366D01*
G01X11690Y21366D02*
G01X11726Y21384D01*
G01X11726Y21384D02*
G01X11744Y21421D01*
G01X11744Y21421D02*
G01X11762Y21493D01*
G01X11762Y21493D02*
G01X11781Y21548D01*
G01X11781Y21548D02*
G01X11817Y21584D01*
G01X11817Y21584D02*
G01X11853Y21602D01*
G01X11853Y21602D02*
G01X11908Y21602D01*
G01X11908Y21602D02*
G01X11944Y21584D01*
G01X11944Y21584D02*
G01X11962Y21566D01*
G01X11962Y21566D02*
G01X11981Y21512D01*
G01X11981Y21439D02*
G01X11981Y21512D01*
G01X11962Y21384D02*
G01X11981Y21439D01*
G01X11944Y21366D02*
G01X11962Y21384D01*
G01X11908Y21348D02*
G01X11944Y21366D01*
G01X11853Y21348D02*
G01X11908Y21348D01*
G01X11817Y21366D02*
G01X11853Y21348D01*
G01X11781Y21402D02*
G01X11817Y21366D01*
G01X11762Y21457D02*
G01X11781Y21402D01*
G01X11744Y21530D02*
G01X11762Y21457D01*
G01X11726Y21566D02*
G01X11744Y21530D01*
G01X11690Y21584D02*
G01X11726Y21566D01*
G01X11653Y21584D02*
G01X11690Y21584D01*
G01X11617Y21566D02*
G01X11653Y21584D01*
G01X11599Y21512D02*
G01X11617Y21566D01*
G01X11599Y21439D02*
G01X11599Y21512D01*
G01X11653Y21784D02*
G01X11671Y21748D01*
G01X11599Y21839D02*
G01X11653Y21784D01*
G01X11599Y21839D02*
G01X11981Y21839D01*
G01X11599Y22239D02*
G01X11981Y22057D01*
G01X11599Y22239D02*
G01X11599Y21984D01*

G04 Draw traces*

G04 Draw Text*
G01X4055Y4414D02*
G01X4055Y4073D01*
G01X4055Y4073D02*
G01X4077Y4005D01*
G01X4077Y4005D02*
G01X4123Y3959D01*
G01X4123Y3959D02*
G01X4191Y3937D01*
G01X4191Y3937D02*
G01X4236Y3937D01*
G01X4236Y3937D02*
G01X4305Y3959D01*
G01X4305Y3959D02*
G01X4350Y4005D01*
G01X4350Y4005D02*
G01X4373Y4073D01*
G01X4373Y4073D02*
G01X4373Y4414D01*
G01X4873Y4346D02*
G01X4827Y4391D01*
G01X4827Y4391D02*
G01X4759Y4414D01*
G01X4759Y4414D02*
G01X4668Y4414D01*
G01X4668Y4414D02*
G01X4600Y4391D01*
G01X4600Y4391D02*
G01X4555Y4346D01*
G01X4555Y4346D02*
G01X4555Y4300D01*
G01X4555Y4300D02*
G01X4577Y4255D01*
G01X4577Y4255D02*
G01X4600Y4232D01*
G01X4600Y4232D02*
G01X4646Y4209D01*
G01X4646Y4209D02*
G01X4782Y4164D01*
G01X4782Y4164D02*
G01X4827Y4141D01*
G01X4827Y4141D02*
G01X4850Y4118D01*
G01X4850Y4118D02*
G01X4873Y4073D01*
G01X4873Y4073D02*
G01X4873Y4005D01*
G01X4873Y4005D02*
G01X4827Y3959D01*
G01X4827Y3959D02*
G01X4759Y3937D01*
G01X4759Y3937D02*
G01X4668Y3937D01*
G01X4668Y3937D02*
G01X4600Y3959D01*
G01X4600Y3959D02*
G01X4555Y4005D01*
G01X5055Y4414D02*
G01X5055Y3937D01*
G01X5055Y4414D02*
G01X5259Y4414D01*
G01X5259Y4414D02*
G01X5327Y4391D01*
G01X5327Y4391D02*
G01X5350Y4368D01*
G01X5350Y4368D02*
G01X5373Y4323D01*
G01X5373Y4323D02*
G01X5373Y4277D01*
G01X5373Y4277D02*
G01X5350Y4232D01*
G01X5350Y4232D02*
G01X5327Y4209D01*
G01X5327Y4209D02*
G01X5259Y4187D01*
G01X5055Y4187D02*
G01X5259Y4187D01*
G01X5259Y4187D02*
G01X5327Y4164D01*
G01X5327Y4164D02*
G01X5350Y4141D01*
G01X5350Y4141D02*
G01X5373Y4096D01*
G01X5373Y4096D02*
G01X5373Y4027D01*
G01X5373Y4027D02*
G01X5350Y3982D01*
G01X5350Y3982D02*
G01X5327Y3959D01*
G01X5327Y3959D02*
G01X5259Y3937D01*
G01X5259Y3937D02*
G01X5055Y3937D01*
G01X5918Y4414D02*
G01X5918Y3937D01*
G01X5918Y4414D02*
G01X6123Y4414D01*
G01X6123Y4414D02*
G01X6191Y4391D01*
G01X6191Y4391D02*
G01X6214Y4368D01*
G01X6214Y4368D02*
G01X6236Y4323D01*
G01X6236Y4323D02*
G01X6236Y4255D01*
G01X6236Y4255D02*
G01X6214Y4209D01*
G01X6214Y4209D02*
G01X6191Y4187D01*
G01X6191Y4187D02*
G01X6123Y4164D01*
G01X6123Y4164D02*
G01X5918Y4164D01*
G01X6418Y4414D02*
G01X6418Y3937D01*
G01X6941Y4300D02*
G01X6918Y4346D01*
G01X6918Y4346D02*
G01X6873Y4391D01*
G01X6873Y4391D02*
G01X6827Y4414D01*
G01X6827Y4414D02*
G01X6736Y4414D01*
G01X6736Y4414D02*
G01X6691Y4391D01*
G01X6691Y4391D02*
G01X6646Y4346D01*
G01X6646Y4346D02*
G01X6623Y4300D01*
G01X6623Y4300D02*
G01X6600Y4232D01*
G01X6600Y4232D02*
G01X6600Y4118D01*
G01X6600Y4118D02*
G01X6623Y4050D01*
G01X6623Y4050D02*
G01X6646Y4005D01*
G01X6646Y4005D02*
G01X6691Y3959D01*
G01X6691Y3959D02*
G01X6736Y3937D01*
G01X6736Y3937D02*
G01X6827Y3937D01*
G01X6827Y3937D02*
G01X6873Y3959D01*
G01X6873Y3959D02*
G01X6918Y4005D01*
G01X6918Y4005D02*
G01X6941Y4050D01*
G01X4282Y3626D02*
G01X4282Y3263D01*
G01X4282Y3263D02*
G01X4259Y3195D01*
G01X4259Y3195D02*
G01X4236Y3172D01*
G01X4236Y3172D02*
G01X4191Y3149D01*
G01X4191Y3149D02*
G01X4146Y3149D01*
G01X4146Y3149D02*
G01X4100Y3172D01*
G01X4100Y3172D02*
G01X4077Y3195D01*
G01X4077Y3195D02*
G01X4055Y3263D01*
G01X4055Y3263D02*
G01X4055Y3308D01*
G01X4986Y3626D02*
G01X4986Y3149D01*
G01X4827Y3626D02*
G01X5146Y3626D01*
G01X5600Y3467D02*
G01X5600Y3149D01*
G01X5600Y3399D02*
G01X5555Y3445D01*
G01X5555Y3445D02*
G01X5509Y3467D01*
G01X5509Y3467D02*
G01X5441Y3467D01*
G01X5441Y3467D02*
G01X5396Y3445D01*
G01X5396Y3445D02*
G01X5350Y3399D01*
G01X5350Y3399D02*
G01X5327Y3331D01*
G01X5327Y3331D02*
G01X5327Y3285D01*
G01X5327Y3285D02*
G01X5350Y3217D01*
G01X5350Y3217D02*
G01X5396Y3172D01*
G01X5396Y3172D02*
G01X5441Y3149D01*
G01X5441Y3149D02*
G01X5509Y3149D01*
G01X5509Y3149D02*
G01X5555Y3172D01*
G01X5555Y3172D02*
G01X5600Y3217D01*
G01X5805Y3467D02*
G01X5941Y3149D01*
G01X6077Y3467D02*
G01X5941Y3149D01*
G01X5941Y3149D02*
G01X5896Y3058D01*
G01X5896Y3058D02*
G01X5850Y3013D01*
G01X5850Y3013D02*
G01X5805Y2990D01*
G01X5805Y2990D02*
G01X5782Y2990D01*
G01X6259Y3626D02*
G01X6259Y3149D01*
G01X6555Y3467D02*
G01X6509Y3445D01*
G01X6509Y3445D02*
G01X6464Y3399D01*
G01X6464Y3399D02*
G01X6441Y3331D01*
G01X6441Y3331D02*
G01X6441Y3285D01*
G01X6441Y3285D02*
G01X6464Y3217D01*
G01X6464Y3217D02*
G01X6509Y3172D01*
G01X6509Y3172D02*
G01X6555Y3149D01*
G01X6555Y3149D02*
G01X6623Y3149D01*
G01X6623Y3149D02*
G01X6668Y3172D01*
G01X6668Y3172D02*
G01X6714Y3217D01*
G01X6714Y3217D02*
G01X6736Y3285D01*
G01X6736Y3285D02*
G01X6736Y3331D01*
G01X6736Y3331D02*
G01X6714Y3399D01*
G01X6714Y3399D02*
G01X6668Y3445D01*
G01X6668Y3445D02*
G01X6623Y3467D01*
G01X6623Y3467D02*
G01X6555Y3467D01*
G01X6918Y3467D02*
G01X6918Y3149D01*
G01X6918Y3331D02*
G01X6941Y3399D01*
G01X6941Y3399D02*
G01X6986Y3445D01*
G01X6986Y3445D02*
G01X7032Y3467D01*
G01X7032Y3467D02*
G01X7100Y3467D01*
G01X3408Y2725D02*
G01X3408Y2748D01*
G01X3408Y2748D02*
G01X3431Y2794D01*
G01X3431Y2794D02*
G01X3454Y2816D01*
G01X3454Y2816D02*
G01X3499Y2839D01*
G01X3499Y2839D02*
G01X3590Y2839D01*
G01X3590Y2839D02*
G01X3635Y2816D01*
G01X3635Y2816D02*
G01X3658Y2794D01*
G01X3658Y2794D02*
G01X3681Y2748D01*
G01X3681Y2748D02*
G01X3681Y2703D01*
G01X3681Y2703D02*
G01X3658Y2657D01*
G01X3658Y2657D02*
G01X3613Y2589D01*
G01X3613Y2589D02*
G01X3385Y2362D01*
G01X3385Y2362D02*
G01X3704Y2362D01*
G01X4022Y2839D02*
G01X3954Y2816D01*
G01X3954Y2816D02*
G01X3908Y2748D01*
G01X3908Y2748D02*
G01X3885Y2634D01*
G01X3885Y2634D02*
G01X3885Y2566D01*
G01X3885Y2566D02*
G01X3908Y2453D01*
G01X3908Y2453D02*
G01X3954Y2384D01*
G01X3954Y2384D02*
G01X4022Y2362D01*
G01X4022Y2362D02*
G01X4067Y2362D01*
G01X4067Y2362D02*
G01X4135Y2384D01*
G01X4135Y2384D02*
G01X4181Y2453D01*
G01X4181Y2453D02*
G01X4204Y2566D01*
G01X4204Y2566D02*
G01X4204Y2634D01*
G01X4204Y2634D02*
G01X4181Y2748D01*
G01X4181Y2748D02*
G01X4135Y2816D01*
G01X4135Y2816D02*
G01X4067Y2839D01*
G01X4067Y2839D02*
G01X4022Y2839D01*
G01X4385Y2748D02*
G01X4431Y2771D01*
G01X4431Y2771D02*
G01X4499Y2839D01*
G01X4499Y2839D02*
G01X4499Y2362D01*
G01X4908Y2839D02*
G01X4681Y2521D01*
G01X4681Y2521D02*
G01X5022Y2521D01*
G01X4908Y2839D02*
G01X4908Y2362D01*
G01X5204Y2566D02*
G01X5613Y2566D01*
G01X5931Y2839D02*
G01X5863Y2816D01*
G01X5863Y2816D02*
G01X5817Y2748D01*
G01X5817Y2748D02*
G01X5794Y2634D01*
G01X5794Y2634D02*
G01X5794Y2566D01*
G01X5794Y2566D02*
G01X5817Y2453D01*
G01X5817Y2453D02*
G01X5863Y2384D01*
G01X5863Y2384D02*
G01X5931Y2362D01*
G01X5931Y2362D02*
G01X5976Y2362D01*
G01X5976Y2362D02*
G01X6044Y2384D01*
G01X6044Y2384D02*
G01X6090Y2453D01*
G01X6090Y2453D02*
G01X6113Y2566D01*
G01X6113Y2566D02*
G01X6113Y2634D01*
G01X6113Y2634D02*
G01X6090Y2748D01*
G01X6090Y2748D02*
G01X6044Y2816D01*
G01X6044Y2816D02*
G01X5976Y2839D01*
G01X5976Y2839D02*
G01X5931Y2839D01*
G01X6567Y2839D02*
G01X6340Y2839D01*
G01X6340Y2839D02*
G01X6317Y2634D01*
G01X6317Y2634D02*
G01X6340Y2657D01*
G01X6340Y2657D02*
G01X6408Y2680D01*
G01X6408Y2680D02*
G01X6476Y2680D01*
G01X6476Y2680D02*
G01X6544Y2657D01*
G01X6544Y2657D02*
G01X6590Y2612D01*
G01X6590Y2612D02*
G01X6613Y2544D01*
G01X6613Y2544D02*
G01X6613Y2498D01*
G01X6613Y2498D02*
G01X6590Y2430D01*
G01X6590Y2430D02*
G01X6544Y2384D01*
G01X6544Y2384D02*
G01X6476Y2362D01*
G01X6476Y2362D02*
G01X6408Y2362D01*
G01X6408Y2362D02*
G01X6340Y2384D01*
G01X6340Y2384D02*
G01X6317Y2407D01*
G01X6317Y2407D02*
G01X6294Y2453D01*
G01X6794Y2566D02*
G01X7204Y2566D01*
G01X7408Y2725D02*
G01X7408Y2748D01*
G01X7408Y2748D02*
G01X7431Y2794D01*
G01X7431Y2794D02*
G01X7454Y2816D01*
G01X7454Y2816D02*
G01X7499Y2839D01*
G01X7499Y2839D02*
G01X7590Y2839D01*
G01X7590Y2839D02*
G01X7635Y2816D01*
G01X7635Y2816D02*
G01X7658Y2794D01*
G01X7658Y2794D02*
G01X7681Y2748D01*
G01X7681Y2748D02*
G01X7681Y2703D01*
G01X7681Y2703D02*
G01X7658Y2657D01*
G01X7658Y2657D02*
G01X7613Y2589D01*
G01X7613Y2589D02*
G01X7385Y2362D01*
G01X7385Y2362D02*
G01X7704Y2362D01*
G01X8158Y2771D02*
G01X8135Y2816D01*
G01X8135Y2816D02*
G01X8067Y2839D01*
G01X8067Y2839D02*
G01X8022Y2839D01*
G01X8022Y2839D02*
G01X7954Y2816D01*
G01X7954Y2816D02*
G01X7908Y2748D01*
G01X7908Y2748D02*
G01X7885Y2634D01*
G01X7885Y2634D02*
G01X7885Y2521D01*
G01X7885Y2521D02*
G01X7908Y2430D01*
G01X7908Y2430D02*
G01X7954Y2384D01*
G01X7954Y2384D02*
G01X8022Y2362D01*
G01X8022Y2362D02*
G01X8044Y2362D01*
G01X8044Y2362D02*
G01X8113Y2384D01*
G01X8113Y2384D02*
G01X8158Y2430D01*
G01X8158Y2430D02*
G01X8181Y2498D01*
G01X8181Y2498D02*
G01X8181Y2521D01*
G01X8181Y2521D02*
G01X8158Y2589D01*
G01X8158Y2589D02*
G01X8113Y2634D01*
G01X8113Y2634D02*
G01X8044Y2657D01*
G01X8044Y2657D02*
G01X8022Y2657D01*
G01X8022Y2657D02*
G01X7954Y2634D01*
G01X7954Y2634D02*
G01X7908Y2589D01*
G01X7908Y2589D02*
G01X7885Y2521D01*
M00*
M02*
