G04 FreePCB version 1.359*
G04 W:\Projects\14\1417 - USB PIC\FreePCB\CAM\top_solder_mask.grb*
G04 top solder mask layer *
G04 Scale: 100 percent, Rotated: No, Reflected: No *
%FSLAX24Y24*%
%MOIN*%
%LN top solder mask *%
G04 Rounded Rectangle Macro, params: W/2, H/2, R *
%AMRNDREC*
21,1,$1+$1,$2+$2-$3-$3,0,0,0*
21,1,$1+$1-$3-$3,$2+$2,0,0,0*
1,1,$3+$3,$1-$3,$2-$3*
1,1,$3+$3,$3-$1,$2-$3*
1,1,$3+$3,$1-$3,$3-$2*
1,1,$3+$3,$3-$1,$3-$2*%
G04 Rectangular Thermal Macro, params: W/2, H/2, T/2 *
%AMRECTHERM*
$4=$3/2*
21,1,$1-$3,$2-$3,0-$1/2-$4,0-$2/2-$4,0*
21,1,$1-$3,$2-$3,0-$1/2-$4,$2/2+$4,0*
21,1,$1-$3,$2-$3,$1/2+$4,0-$2/2-$4,0*
21,1,$1-$3,$2-$3,$1/2+$4,$2/2+$4,0*%
%ADD10R,0.053937X0.153937*%
%ADD11R,0.033937X0.033937*%
%ADD12R,0.141732X0.043307*%
%ADD13R,0.063937X0.063937*%
%ADD14C,0.063937*%
%ADD15R,0.024016X0.082677*%
%ADD16R,0.019685X0.122047*%
%ADD17R,0.099409X0.114173*%
%ADD18C,0.082677*%
%ADD19C,0.279937*%
%ADD20R,0.062992X0.062992*%
%ADD21C,0.062992*%
G90*
G70D02*

G04 Step and Repeat for panelization *

G04 -------------- Draw Parts, Pads, Traces, Vias and Text (positive)*
%LPD*%
G04 Draw part U2*
G54D10*
G01X5177Y787D03*
G01X6177Y787D03*
G01X7177Y787D03*
G01X8177Y787D03*
G01X9177Y787D03*
G01X10177Y787D03*
G04 Draw part C3*
G04 Draw part R2*
G54D11*
G01X3715Y787D03*
G01X4315Y787D03*
G04 Draw part C4*
G01X6362Y12755D03*
G01X5762Y12755D03*
G04 Draw part R3*
G01X6992Y13385D03*
G01X6392Y13385D03*
G04 Draw part C2*
G04 Draw part C6*
G01X10236Y20959D03*
G01X10236Y21559D03*
G04 Draw part C5*
G54D12*
G01X11023Y2952D03*
G01X9055Y2952D03*
G04 Draw part R1*
G54D11*
G01X11023Y20959D03*
G01X11023Y21559D03*
G04 Draw part J3*
G54D13*
G01X13885Y5614D03*
G54D14*
G01X13885Y6614D03*
G01X13885Y7614D03*
G01X13885Y8614D03*
G01X13885Y9614D03*
G01X13885Y10614D03*
G01X13885Y11614D03*
G01X13885Y12614D03*
G01X13885Y13614D03*
G01X13885Y14614D03*
G01X13885Y15614D03*
G01X13885Y16614D03*
G01X13885Y17614D03*
G01X12885Y17614D03*
G01X12885Y16614D03*
G01X12885Y15614D03*
G01X12885Y14614D03*
G01X12885Y13614D03*
G01X12885Y12614D03*
G01X12885Y11614D03*
G01X12885Y10614D03*
G01X12885Y9614D03*
G01X12885Y8614D03*
G01X12885Y7614D03*
G01X12885Y6614D03*
G01X12885Y5614D03*
G04 Draw part C1*
G04 Draw part R6*
G54D11*
G01X11323Y5629D03*
G01X10723Y5629D03*
G04 Draw part R7*
G01X10723Y6614D03*
G01X11323Y6614D03*
G04 Draw part R9*
G01X10723Y7598D03*
G01X11323Y7598D03*
G04 Draw part R11*
G01X10723Y8622D03*
G01X11323Y8622D03*
G04 Draw part R13*
G01X10723Y9606D03*
G01X11323Y9606D03*
G04 Draw part R15*
G01X10723Y10629D03*
G01X11323Y10629D03*
G04 Draw part R17*
G01X10723Y11614D03*
G01X11323Y11614D03*
G04 Draw part R19*
G01X10723Y12598D03*
G01X11323Y12598D03*
G04 Draw part R21*
G01X10723Y13622D03*
G01X11323Y13622D03*
G04 Draw part R23*
G01X10723Y14606D03*
G01X11323Y14606D03*
G04 Draw part R25*
G01X10723Y15629D03*
G01X11323Y15629D03*
G04 Draw part R27*
G01X10723Y16614D03*
G01X11323Y16614D03*
G04 Draw part R29*
G01X10723Y17598D03*
G01X11323Y17598D03*
G04 Draw part J2*
G54D13*
G01X1586Y17614D03*
G54D14*
G01X1586Y16614D03*
G01X1586Y15614D03*
G01X1586Y14614D03*
G01X1586Y13614D03*
G01X1586Y12614D03*
G01X1586Y11614D03*
G01X1586Y10614D03*
G01X1586Y9614D03*
G01X1586Y8614D03*
G01X1586Y7614D03*
G01X1586Y6614D03*
G01X1586Y5614D03*
G01X2586Y5614D03*
G01X2586Y6614D03*
G01X2586Y7614D03*
G01X2586Y8614D03*
G01X2586Y9614D03*
G01X2586Y10614D03*
G01X2586Y11614D03*
G01X2586Y12614D03*
G01X2586Y13614D03*
G01X2586Y14614D03*
G01X2586Y15614D03*
G01X2586Y16614D03*
G01X2586Y17614D03*
G04 Draw part R4*
G54D11*
G01X4148Y17598D03*
G01X4748Y17598D03*
G04 Draw part R5*
G01X4748Y16614D03*
G01X4148Y16614D03*
G04 Draw part R8*
G01X4748Y15629D03*
G01X4148Y15629D03*
G04 Draw part R10*
G01X4748Y14606D03*
G01X4148Y14606D03*
G04 Draw part R12*
G01X4748Y13622D03*
G01X4148Y13622D03*
G04 Draw part R14*
G01X4748Y12598D03*
G01X4148Y12598D03*
G04 Draw part R16*
G01X4748Y11614D03*
G01X4148Y11614D03*
G04 Draw part R18*
G01X4748Y10629D03*
G01X4148Y10629D03*
G04 Draw part R20*
G01X4748Y9606D03*
G01X4148Y9606D03*
G04 Draw part R22*
G01X4748Y8622D03*
G01X4148Y8622D03*
G04 Draw part R24*
G01X4748Y7598D03*
G01X4148Y7598D03*
G04 Draw part R26*
G01X4748Y6614D03*
G01X4148Y6614D03*
G04 Draw part R28*
G01X4748Y5629D03*
G01X4148Y5629D03*
G04 Draw part U1*
G54D15*
G01X5466Y14507D03*
G01X5966Y14507D03*
G01X6466Y14507D03*
G01X6966Y14507D03*
G01X7466Y14507D03*
G01X7966Y14507D03*
G01X8466Y14507D03*
G01X8966Y14507D03*
G01X9466Y14507D03*
G01X9966Y14507D03*
G01X9966Y18562D03*
G01X9466Y18562D03*
G01X8966Y18562D03*
G01X8466Y18562D03*
G01X7966Y18562D03*
G01X7466Y18562D03*
G01X6966Y18562D03*
G01X6466Y18562D03*
G01X5966Y18562D03*
G01X5466Y18562D03*
G04 Draw part J1*
G54D16*
G01X8149Y20452D03*
G01X7834Y20452D03*
G01X7519Y20452D03*
G01X7204Y20452D03*
G54D17*
G01X9335Y21515D03*
G01X6018Y21515D03*
G54D18*
G01X8267Y21850D03*
G01X7086Y21850D03*
G04 Draw part J4*
G54D19*
G01X1968Y1968D03*
G04 Draw part J5*
G01X13385Y1968D03*
G04 Draw part J6*
G01X13385Y21259D03*
G04 Draw part J7*
G01X1968Y21259D03*
G04 Draw part D1*
G54D20*
G01X11023Y22759D03*
G54D21*
G01X11023Y19759D03*

G04 Draw traces*

G04 Draw Text*

G04 Draw solder mask cutouts*
M00*
M02*
