G04 FreePCB version 1.359*
G04 W:\Projects\14\1417 - USB PIC\FreePCB\CAM\top_copper.grb*
G04 top copper layer *
G04 Scale: 100 percent, Rotated: No, Reflected: No *
%FSLAX24Y24*%
%MOIN*%
%LN top copper *%
G04 Rounded Rectangle Macro, params: W/2, H/2, R *
%AMRNDREC*
21,1,$1+$1,$2+$2-$3-$3,0,0,0*
21,1,$1+$1-$3-$3,$2+$2,0,0,0*
1,1,$3+$3,$1-$3,$2-$3*
1,1,$3+$3,$3-$1,$2-$3*
1,1,$3+$3,$1-$3,$3-$2*
1,1,$3+$3,$3-$1,$3-$2*%
G04 Rectangular Thermal Macro, params: W/2, H/2, T/2 *
%AMRECTHERM*
$4=$3/2*
21,1,$1-$3,$2-$3,0-$1/2-$4,0-$2/2-$4,0*
21,1,$1-$3,$2-$3,0-$1/2-$4,$2/2+$4,0*
21,1,$1-$3,$2-$3,$1/2+$4,0-$2/2-$4,0*
21,1,$1-$3,$2-$3,$1/2+$4,$2/2+$4,0*%
%ADD10R,0.069685X0.169685*%
%ADD11RECTHERM,0.034843X0.084843X0.009843*%
%ADD12C,0.001000*%
%ADD13RECTHERM,0.024843X0.024843X0.009843*%
%ADD14R,0.049685X0.049685*%
%ADD15RECTHERM,0.078740X0.029528X0.009843*%
%ADD16R,0.157480X0.059055*%
%ADD17R,0.079685X0.079685*%
%ADD18C,0.079685*%
%ADD19RECTHERM,0.019882X0.049213X0.009843*%
%ADD20R,0.039764X0.098425*%
%ADD21R,0.039370X0.137795*%
%ADD22R,0.115157X0.129921*%
%ADD23C,0.098425*%
%ADD24C,0.295685*%
%ADD25R,0.078740X0.078740*%
%AMTHERM26*7,0,0,0.078740,0.059055,0.019685,45.0*%
%ADD26THERM26*%
%ADD27C,0.039685*%
%ADD28C,0.059685*%
%ADD29C,0.029685*%
%ADD30R,0.050000X0.150000*%
%ADD31R,0.030000X0.030000*%
%ADD32R,0.137795X0.039370*%
%ADD33R,0.060000X0.060000*%
%ADD34C,0.060000*%
%ADD35R,0.020079X0.078740*%
%ADD36R,0.015748X0.118110*%
%ADD37R,0.095472X0.110236*%
%ADD38C,0.078740*%
%ADD39C,0.276000*%
%ADD40R,0.059055X0.059055*%
%ADD41C,0.059055*%
%ADD42C,0.020000*%
%ADD43C,0.040000*%
%ADD44C,0.010000*%
G90*
G70D02*

G04 Step and Repeat for panelization *

G04 ----------------------- Draw copper area (positive)*
G36*
G01X15157Y196D02*
G01X196Y196D01*
G01X196Y23031D01*
G01X15157Y23031D01*
G01X15157Y196D01*
G37*

G04 -------------------- Draw copper area clearances (negative)*
%LPC*%

G04 Draw clearances for pads*
G54D10*
G01X5177Y787D03*
G54D11*
G01X6177Y787D03*
G54D12*
G54D10*
G01X7177Y787D03*
G01X8177Y787D03*
G01X9177Y787D03*
G01X10177Y787D03*
G54D13*
G01X3715Y787D03*
G54D12*
G54D14*
G01X4315Y787D03*
G01X6362Y12755D03*
G01X5762Y12755D03*
G01X6992Y13385D03*
G01X6392Y13385D03*
G01X10236Y20959D03*
G01X10236Y21559D03*
G54D15*
G01X11023Y2952D03*
G54D12*
G54D16*
G01X9055Y2952D03*
G54D13*
G01X11023Y20959D03*
G54D12*
G54D14*
G01X11023Y21559D03*
G54D17*
G01X13885Y5614D03*
G54D18*
G01X13885Y6614D03*
G01X13885Y7614D03*
G01X13885Y8614D03*
G01X13885Y9614D03*
G01X13885Y10614D03*
G01X13885Y11614D03*
G01X13885Y12614D03*
G01X13885Y13614D03*
G01X13885Y14614D03*
G01X13885Y15614D03*
G01X13885Y16614D03*
G01X13885Y17614D03*
G01X12885Y17614D03*
G01X12885Y16614D03*
G01X12885Y15614D03*
G01X12885Y14614D03*
G01X12885Y13614D03*
G01X12885Y12614D03*
G01X12885Y11614D03*
G01X12885Y10614D03*
G01X12885Y9614D03*
G01X12885Y8614D03*
G01X12885Y7614D03*
G01X12885Y6614D03*
G01X12885Y5614D03*
G54D14*
G01X11323Y5629D03*
G01X10723Y5629D03*
G54D13*
G01X10723Y6614D03*
G54D12*
G54D14*
G01X11323Y6614D03*
G01X10723Y7598D03*
G01X11323Y7598D03*
G01X10723Y8622D03*
G01X11323Y8622D03*
G01X10723Y9606D03*
G01X11323Y9606D03*
G01X10723Y10629D03*
G01X11323Y10629D03*
G01X10723Y11614D03*
G01X11323Y11614D03*
G01X10723Y12598D03*
G01X11323Y12598D03*
G01X10723Y13622D03*
G01X11323Y13622D03*
G01X10723Y14606D03*
G01X11323Y14606D03*
G01X10723Y15629D03*
G01X11323Y15629D03*
G01X10723Y16614D03*
G01X11323Y16614D03*
G01X10723Y17598D03*
G01X11323Y17598D03*
G54D17*
G01X1586Y17614D03*
G54D18*
G01X1586Y16614D03*
G01X1586Y15614D03*
G01X1586Y14614D03*
G01X1586Y13614D03*
G01X1586Y12614D03*
G01X1586Y11614D03*
G01X1586Y10614D03*
G01X1586Y9614D03*
G01X1586Y8614D03*
G01X1586Y7614D03*
G01X1586Y6614D03*
G01X1586Y5614D03*
G01X2586Y5614D03*
G01X2586Y6614D03*
G01X2586Y7614D03*
G01X2586Y8614D03*
G01X2586Y9614D03*
G01X2586Y10614D03*
G01X2586Y11614D03*
G01X2586Y12614D03*
G01X2586Y13614D03*
G01X2586Y14614D03*
G01X2586Y15614D03*
G01X2586Y16614D03*
G01X2586Y17614D03*
G54D14*
G01X4148Y17598D03*
G01X4748Y17598D03*
G54D13*
G01X4748Y16614D03*
G54D12*
G54D14*
G01X4148Y16614D03*
G01X4748Y15629D03*
G01X4148Y15629D03*
G01X4748Y14606D03*
G01X4148Y14606D03*
G01X4748Y13622D03*
G01X4148Y13622D03*
G01X4748Y12598D03*
G01X4148Y12598D03*
G01X4748Y11614D03*
G01X4148Y11614D03*
G01X4748Y10629D03*
G01X4148Y10629D03*
G01X4748Y9606D03*
G01X4148Y9606D03*
G01X4748Y8622D03*
G01X4148Y8622D03*
G01X4748Y7598D03*
G01X4148Y7598D03*
G01X4748Y6614D03*
G01X4148Y6614D03*
G01X4748Y5629D03*
G01X4148Y5629D03*
G54D19*
G01X5466Y14507D03*
G54D12*
G54D20*
G01X5966Y14507D03*
G01X6466Y14507D03*
G01X6966Y14507D03*
G01X7466Y14507D03*
G01X7966Y14507D03*
G01X8466Y14507D03*
G01X8966Y14507D03*
G01X9466Y14507D03*
G01X9966Y14507D03*
G01X9966Y18562D03*
G01X9466Y18562D03*
G01X8966Y18562D03*
G01X8466Y18562D03*
G01X7966Y18562D03*
G01X7466Y18562D03*
G01X6966Y18562D03*
G01X6466Y18562D03*
G01X5966Y18562D03*
G01X5466Y18562D03*
G54D21*
G01X8149Y20452D03*
G01X7834Y20452D03*
G01X7519Y20452D03*
G01X7204Y20452D03*
G54D22*
G01X9335Y21515D03*
G01X6018Y21515D03*
G54D23*
G01X8267Y21850D03*
G01X7086Y21850D03*
G54D24*
G01X1968Y1968D03*
G01X13385Y1968D03*
G01X13385Y21259D03*
G01X1968Y21259D03*
G54D25*
G01X11023Y22759D03*
G54D26*
G01X11023Y19759D03*
G54D12*

G04 Draw clearances for traces*
G54D27*
G01X10723Y12598D02*
G01X10708Y12598D01*
G01X10708Y12598D02*
G01X7952Y12598D01*
G01X7952Y12598D02*
G01X7466Y13084D01*
G01X7466Y13084D02*
G01X7466Y14507D01*
G01X4315Y787D02*
G01X5177Y787D01*
G01X4748Y5629D02*
G01X4763Y5629D01*
G01X4763Y5629D02*
G01X5177Y5216D01*
G01X5177Y5216D02*
G01X5177Y787D01*
G54D28*
G01X6968Y5629D03*
G54D27*
G01X4748Y5629D02*
G01X6968Y5629D01*
G54D28*
G01X6968Y13897D03*
G54D27*
G01X6968Y13897D02*
G01X6966Y13899D01*
G01X6966Y13899D02*
G01X6966Y14507D01*
G01X6992Y13385D02*
G01X6968Y13385D01*
G01X6968Y13385D02*
G01X6968Y13897D01*
G54D28*
G01X7480Y8622D03*
G54D27*
G01X10723Y8622D02*
G01X7480Y8622D01*
G54D28*
G01X7952Y17165D03*
G54D27*
G01X7952Y17165D02*
G01X7966Y17179D01*
G01X7966Y17179D02*
G01X7966Y18562D01*
G01X4748Y8622D02*
G01X7480Y8622D01*
G54D28*
G01X9173Y787D03*
G54D27*
G01X9177Y787D02*
G01X9173Y787D01*
G01X10723Y17598D02*
G01X10708Y17598D01*
G01X10708Y17598D02*
G01X9966Y18340D01*
G01X9966Y18340D02*
G01X9966Y18562D01*
G54D28*
G01X10708Y15629D03*
G54D27*
G01X10723Y15629D02*
G01X10708Y15629D01*
G54D28*
G01X9448Y15629D03*
G54D27*
G01X9448Y15629D02*
G01X6574Y15629D01*
G01X6574Y15629D02*
G01X5966Y15021D01*
G01X5966Y15021D02*
G01X5966Y14507D01*
G01X4148Y11614D02*
G01X2586Y11614D01*
G54D28*
G01X8976Y9606D03*
G54D27*
G01X10723Y9606D02*
G01X8976Y9606D01*
G54D28*
G01X8464Y17165D03*
G54D27*
G01X8464Y17165D02*
G01X8466Y17167D01*
G01X8466Y17167D02*
G01X8466Y18562D01*
G01X4748Y9606D02*
G01X8976Y9606D01*
G01X11323Y14606D02*
G01X12913Y14606D01*
G01X12913Y14606D02*
G01X12885Y14614D01*
G01X4148Y10629D02*
G01X2598Y10629D01*
G01X2598Y10629D02*
G01X2586Y10614D01*
G01X4748Y13622D02*
G01X4724Y13661D01*
G01X4724Y13661D02*
G01X4724Y13858D01*
G01X4724Y13858D02*
G01X4449Y14133D01*
G54D28*
G01X3779Y14133D03*
G54D27*
G01X4449Y14133D02*
G01X3779Y14133D01*
G54D28*
G01X8976Y19291D03*
G54D27*
G01X8976Y19291D02*
G01X8966Y19281D01*
G01X8966Y19281D02*
G01X8966Y18562D01*
G54D28*
G01X6456Y6614D03*
G54D27*
G01X4748Y6614D02*
G01X6456Y6614D01*
G54D28*
G01X6456Y13897D03*
G54D27*
G01X6456Y13897D02*
G01X6466Y13907D01*
G01X6466Y13907D02*
G01X6466Y14507D01*
G54D29*
G01X7834Y20452D02*
G01X7834Y19724D01*
G01X7834Y19724D02*
G01X7440Y19330D01*
G01X7440Y19330D02*
G01X6766Y19330D01*
G01X6766Y19330D02*
G01X6466Y19021D01*
G01X6466Y19021D02*
G01X6466Y18562D01*
G54D27*
G01X11323Y15629D02*
G01X12913Y15629D01*
G01X12913Y15629D02*
G01X12885Y15614D01*
G01X4148Y9606D02*
G01X2559Y9606D01*
G01X2559Y9606D02*
G01X2586Y9614D01*
G01X10723Y10629D02*
G01X10748Y10629D01*
G54D28*
G01X8464Y10629D03*
G54D27*
G01X10748Y10629D02*
G01X8464Y10629D01*
G54D28*
G01X8464Y13897D03*
G54D27*
G01X8464Y13897D02*
G01X8466Y13899D01*
G01X8466Y13899D02*
G01X8466Y14507D01*
G01X4748Y10629D02*
G01X8464Y10629D01*
G01X6362Y12755D02*
G01X6338Y12755D01*
G01X6338Y12755D02*
G01X6392Y12810D01*
G01X6392Y12810D02*
G01X6392Y13385D01*
G01X11323Y16614D02*
G01X12885Y16614D01*
G01X4148Y8622D02*
G01X2598Y8622D01*
G01X2598Y8622D02*
G01X2586Y8614D01*
G01X8149Y20452D02*
G01X9704Y20452D01*
G01X9704Y20452D02*
G01X10236Y20984D01*
G01X10236Y20984D02*
G01X10236Y20959D01*
G01X11023Y21559D02*
G01X11023Y22759D01*
G01X11023Y21559D02*
G01X10773Y21559D01*
G01X10773Y21559D02*
G01X10629Y21422D01*
G01X10629Y21422D02*
G01X10629Y21106D01*
G01X10629Y21106D02*
G01X10489Y20959D01*
G01X10489Y20959D02*
G01X10236Y20959D01*
G01X11323Y17598D02*
G01X12874Y17598D01*
G01X12874Y17598D02*
G01X12885Y17614D01*
G01X4148Y7598D02*
G01X2598Y7598D01*
G01X2598Y7598D02*
G01X2559Y7637D01*
G01X2559Y7637D02*
G01X2586Y7614D01*
G54D29*
G01X7519Y20452D02*
G01X7519Y19802D01*
G01X7519Y19802D02*
G01X7323Y19606D01*
G01X7323Y19606D02*
G01X6536Y19606D01*
G01X6536Y19606D02*
G01X5966Y19036D01*
G01X5966Y19036D02*
G01X5966Y18562D01*
G01X13885Y6614D02*
G01X13413Y6141D01*
G01X13413Y6141D02*
G01X11850Y6141D01*
G01X11850Y6141D02*
G01X11338Y5629D01*
G01X11338Y5629D02*
G01X11323Y5629D01*
G54D27*
G01X4148Y6614D02*
G01X2559Y6614D01*
G01X2559Y6614D02*
G01X2586Y6614D01*
G01X11323Y9606D02*
G01X12834Y9606D01*
G01X12834Y9606D02*
G01X12874Y9645D01*
G01X12874Y9645D02*
G01X12885Y9614D01*
G01X12885Y6614D02*
G01X11323Y6614D01*
G01X4148Y5629D02*
G01X2598Y5629D01*
G01X2598Y5629D02*
G01X2586Y5614D01*
G01X10723Y16614D02*
G01X10708Y16614D01*
G01X10708Y16614D02*
G01X9966Y15872D01*
G01X9966Y15872D02*
G01X9966Y14507D01*
G01X4748Y15629D02*
G01X5733Y16614D01*
G01X5733Y16614D02*
G01X10748Y16614D01*
G01X10748Y16614D02*
G01X10723Y16614D01*
G01X4748Y11614D02*
G01X5221Y11141D01*
G54D28*
G01X9960Y11141D03*
G54D27*
G01X5221Y11141D02*
G01X9960Y11141D01*
G54D28*
G01X9960Y13110D03*
G54D27*
G01X9960Y13110D02*
G01X9330Y13110D01*
G01X9330Y13110D02*
G01X8966Y13474D01*
G01X8966Y13474D02*
G01X8966Y14507D01*
G01X10723Y13622D02*
G01X10708Y13622D01*
G01X10708Y13622D02*
G01X10196Y13110D01*
G01X10196Y13110D02*
G01X9960Y13110D01*
G54D29*
G01X1586Y16614D02*
G01X2098Y17125D01*
G01X2098Y17125D02*
G01X3661Y17125D01*
G01X3661Y17125D02*
G01X4133Y17598D01*
G01X4133Y17598D02*
G01X4148Y17598D01*
G54D27*
G01X11323Y8622D02*
G01X12834Y8622D01*
G01X12834Y8622D02*
G01X12885Y8614D01*
G01X12885Y7614D02*
G01X12874Y7637D01*
G01X12874Y7637D02*
G01X12834Y7598D01*
G01X12834Y7598D02*
G01X11323Y7598D01*
G01X2586Y16614D02*
G01X4148Y16614D01*
G01X9335Y21515D02*
G01X9173Y21496D01*
G01X9173Y21496D02*
G01X9237Y21559D01*
G01X9237Y21559D02*
G01X10236Y21559D01*
G01X7086Y21850D02*
G01X6023Y21850D01*
G01X6023Y21850D02*
G01X6018Y21515D01*
G01X8267Y21850D02*
G01X9409Y21850D01*
G01X9409Y21850D02*
G01X9335Y21515D01*
G54D29*
G01X7086Y21850D02*
G01X7204Y21732D01*
G01X7204Y21732D02*
G01X7204Y20452D01*
G54D28*
G01X5472Y17716D03*
G54D27*
G01X5472Y17716D02*
G01X5466Y17722D01*
G01X5466Y17722D02*
G01X5466Y18562D01*
G54D28*
G01X7165Y787D03*
G54D27*
G01X7177Y787D02*
G01X7165Y787D01*
G54D28*
G01X9094Y2952D03*
G54D27*
G01X9055Y2952D02*
G01X9094Y2952D01*
G54D28*
G01X5748Y12755D03*
G54D27*
G01X5762Y12755D02*
G01X5748Y12755D01*
G01X11323Y10629D02*
G01X12874Y10629D01*
G01X12874Y10629D02*
G01X12885Y10614D01*
G01X4148Y13622D02*
G01X2637Y13622D01*
G01X2637Y13622D02*
G01X2598Y13582D01*
G01X2598Y13582D02*
G01X2586Y13614D01*
G01X4748Y12598D02*
G01X5221Y12125D01*
G54D28*
G01X9448Y12125D03*
G54D27*
G01X5221Y12125D02*
G01X9448Y12125D01*
G54D28*
G01X9448Y13897D03*
G54D27*
G01X9448Y13897D02*
G01X9466Y13915D01*
G01X9466Y13915D02*
G01X9466Y14507D01*
G01X10723Y14606D02*
G01X10708Y14566D01*
G01X10708Y14566D02*
G01X10708Y14370D01*
G01X10708Y14370D02*
G01X10236Y13897D01*
G01X10236Y13897D02*
G01X9448Y13897D01*
G01X2586Y15614D02*
G01X2598Y15590D01*
G01X2598Y15590D02*
G01X2637Y15629D01*
G01X2637Y15629D02*
G01X4148Y15629D01*
G01X11323Y11614D02*
G01X12885Y11614D01*
G01X4148Y14606D02*
G01X2519Y14606D01*
G01X2519Y14606D02*
G01X2586Y14614D01*
G01X11323Y12598D02*
G01X12913Y12598D01*
G01X12913Y12598D02*
G01X12885Y12614D01*
G01X4148Y12598D02*
G01X2598Y12598D01*
G01X2598Y12598D02*
G01X2586Y12614D01*
G01X6966Y18562D02*
G01X6966Y17718D01*
G54D28*
G01X6968Y17716D03*
G54D27*
G01X6966Y17718D02*
G01X6968Y17716D01*
G01X4748Y17598D02*
G01X5142Y17204D01*
G01X5142Y17204D02*
G01X6456Y17204D01*
G01X6456Y17204D02*
G01X6968Y17716D01*
G54D28*
G01X10708Y5629D03*
G54D27*
G01X10723Y5629D02*
G01X10708Y5629D01*
G01X11323Y13622D02*
G01X12874Y13622D01*
G01X12874Y13622D02*
G01X12885Y13614D01*
G01X4748Y14606D02*
G01X4724Y14606D01*
G01X4724Y14606D02*
G01X4724Y14842D01*
G01X4724Y14842D02*
G01X4448Y15118D01*
G54D28*
G01X4251Y15118D03*
G54D27*
G01X4448Y15118D02*
G01X4251Y15118D01*
G54D28*
G01X9448Y18582D03*
G54D27*
G01X9448Y18582D02*
G01X9466Y18564D01*
G01X9466Y18564D02*
G01X9466Y18562D01*
G01X10723Y11614D02*
G01X10748Y11614D01*
G54D28*
G01X7952Y11614D03*
G54D27*
G01X10748Y11614D02*
G01X7952Y11614D01*
G54D28*
G01X7952Y13897D03*
G54D27*
G01X7952Y13897D02*
G01X7966Y13911D01*
G01X7966Y13911D02*
G01X7966Y14507D01*
G01X10723Y7598D02*
G01X8622Y7598D01*
G01X8622Y7598D02*
G01X7834Y6810D01*
G01X7834Y6810D02*
G01X7834Y2008D01*
G01X7834Y2008D02*
G01X8177Y1665D01*
G01X8177Y1665D02*
G01X8177Y787D01*
G01X4748Y7598D02*
G01X7045Y7598D01*
G01X7045Y7598D02*
G01X7834Y6810D01*
G54D28*
G01X4763Y7598D03*
G54D27*
G01X4748Y7598D02*
G01X4763Y7598D01*
G54D28*
G01X7480Y18582D03*
G54D27*
G01X7480Y18582D02*
G01X7466Y18568D01*
G01X7466Y18568D02*
G01X7466Y18562D01*

G04 Draw clearances for text*

G04 -------------- Draw Parts, Pads, Traces, Vias and Text (positive)*
%LPD*%
G04 Draw part U2*
G54D30*
G01X5177Y787D03*
G01X6177Y787D03*
G01X7177Y787D03*
G01X8177Y787D03*
G01X9177Y787D03*
G01X10177Y787D03*
G04 Draw part C3*
G04 Draw part R2*
G54D31*
G01X3715Y787D03*
G01X4315Y787D03*
G04 Draw part C4*
G01X6362Y12755D03*
G01X5762Y12755D03*
G04 Draw part R3*
G01X6992Y13385D03*
G01X6392Y13385D03*
G04 Draw part C2*
G04 Draw part C6*
G01X10236Y20959D03*
G01X10236Y21559D03*
G04 Draw part C5*
G54D32*
G01X11023Y2952D03*
G01X9055Y2952D03*
G04 Draw part R1*
G54D31*
G01X11023Y20959D03*
G01X11023Y21559D03*
G04 Draw part J3*
G54D33*
G01X13885Y5614D03*
G54D34*
G01X13885Y6614D03*
G01X13885Y7614D03*
G01X13885Y8614D03*
G01X13885Y9614D03*
G01X13885Y10614D03*
G01X13885Y11614D03*
G01X13885Y12614D03*
G01X13885Y13614D03*
G01X13885Y14614D03*
G01X13885Y15614D03*
G01X13885Y16614D03*
G01X13885Y17614D03*
G01X12885Y17614D03*
G01X12885Y16614D03*
G01X12885Y15614D03*
G01X12885Y14614D03*
G01X12885Y13614D03*
G01X12885Y12614D03*
G01X12885Y11614D03*
G01X12885Y10614D03*
G01X12885Y9614D03*
G01X12885Y8614D03*
G01X12885Y7614D03*
G01X12885Y6614D03*
G01X12885Y5614D03*
G04 Draw part C1*
G04 Draw part R6*
G54D31*
G01X11323Y5629D03*
G01X10723Y5629D03*
G04 Draw part R7*
G01X10723Y6614D03*
G01X11323Y6614D03*
G04 Draw part R9*
G01X10723Y7598D03*
G01X11323Y7598D03*
G04 Draw part R11*
G01X10723Y8622D03*
G01X11323Y8622D03*
G04 Draw part R13*
G01X10723Y9606D03*
G01X11323Y9606D03*
G04 Draw part R15*
G01X10723Y10629D03*
G01X11323Y10629D03*
G04 Draw part R17*
G01X10723Y11614D03*
G01X11323Y11614D03*
G04 Draw part R19*
G01X10723Y12598D03*
G01X11323Y12598D03*
G04 Draw part R21*
G01X10723Y13622D03*
G01X11323Y13622D03*
G04 Draw part R23*
G01X10723Y14606D03*
G01X11323Y14606D03*
G04 Draw part R25*
G01X10723Y15629D03*
G01X11323Y15629D03*
G04 Draw part R27*
G01X10723Y16614D03*
G01X11323Y16614D03*
G04 Draw part R29*
G01X10723Y17598D03*
G01X11323Y17598D03*
G04 Draw part J2*
G54D33*
G01X1586Y17614D03*
G54D34*
G01X1586Y16614D03*
G01X1586Y15614D03*
G01X1586Y14614D03*
G01X1586Y13614D03*
G01X1586Y12614D03*
G01X1586Y11614D03*
G01X1586Y10614D03*
G01X1586Y9614D03*
G01X1586Y8614D03*
G01X1586Y7614D03*
G01X1586Y6614D03*
G01X1586Y5614D03*
G01X2586Y5614D03*
G01X2586Y6614D03*
G01X2586Y7614D03*
G01X2586Y8614D03*
G01X2586Y9614D03*
G01X2586Y10614D03*
G01X2586Y11614D03*
G01X2586Y12614D03*
G01X2586Y13614D03*
G01X2586Y14614D03*
G01X2586Y15614D03*
G01X2586Y16614D03*
G01X2586Y17614D03*
G04 Draw part R4*
G54D31*
G01X4148Y17598D03*
G01X4748Y17598D03*
G04 Draw part R5*
G01X4748Y16614D03*
G01X4148Y16614D03*
G04 Draw part R8*
G01X4748Y15629D03*
G01X4148Y15629D03*
G04 Draw part R10*
G01X4748Y14606D03*
G01X4148Y14606D03*
G04 Draw part R12*
G01X4748Y13622D03*
G01X4148Y13622D03*
G04 Draw part R14*
G01X4748Y12598D03*
G01X4148Y12598D03*
G04 Draw part R16*
G01X4748Y11614D03*
G01X4148Y11614D03*
G04 Draw part R18*
G01X4748Y10629D03*
G01X4148Y10629D03*
G04 Draw part R20*
G01X4748Y9606D03*
G01X4148Y9606D03*
G04 Draw part R22*
G01X4748Y8622D03*
G01X4148Y8622D03*
G04 Draw part R24*
G01X4748Y7598D03*
G01X4148Y7598D03*
G04 Draw part R26*
G01X4748Y6614D03*
G01X4148Y6614D03*
G04 Draw part R28*
G01X4748Y5629D03*
G01X4148Y5629D03*
G04 Draw part U1*
G54D35*
G01X5466Y14507D03*
G01X5966Y14507D03*
G01X6466Y14507D03*
G01X6966Y14507D03*
G01X7466Y14507D03*
G01X7966Y14507D03*
G01X8466Y14507D03*
G01X8966Y14507D03*
G01X9466Y14507D03*
G01X9966Y14507D03*
G01X9966Y18562D03*
G01X9466Y18562D03*
G01X8966Y18562D03*
G01X8466Y18562D03*
G01X7966Y18562D03*
G01X7466Y18562D03*
G01X6966Y18562D03*
G01X6466Y18562D03*
G01X5966Y18562D03*
G01X5466Y18562D03*
G04 Draw part J1*
G54D36*
G01X8149Y20452D03*
G01X7834Y20452D03*
G01X7519Y20452D03*
G01X7204Y20452D03*
G54D37*
G01X9335Y21515D03*
G01X6018Y21515D03*
G54D38*
G01X8267Y21850D03*
G01X7086Y21850D03*
G04 Draw part J4*
G54D39*
G01X1968Y1968D03*
G04 Draw part J5*
G01X13385Y1968D03*
G04 Draw part J6*
G01X13385Y21259D03*
G04 Draw part J7*
G01X1968Y21259D03*
G04 Draw part D1*
G54D40*
G01X11023Y22759D03*
G54D41*
G01X11023Y19759D03*

G04 Draw traces*
G54D42*
G01X10723Y12598D02*
G01X10708Y12598D01*
G01X10708Y12598D02*
G01X7952Y12598D01*
G01X7952Y12598D02*
G01X7466Y13084D01*
G01X7466Y13084D02*
G01X7466Y14507D01*
G01X4315Y787D02*
G01X5177Y787D01*
G01X4748Y5629D02*
G01X4763Y5629D01*
G01X4763Y5629D02*
G01X5177Y5216D01*
G01X5177Y5216D02*
G01X5177Y787D01*
G01X4748Y5629D02*
G01X6968Y5629D01*
G54D43*
G01X6968Y5629D03*
G01X6968Y13897D03*
G54D42*
G01X6968Y13897D02*
G01X6966Y13899D01*
G01X6966Y13899D02*
G01X6966Y14507D01*
G01X6992Y13385D02*
G01X6968Y13385D01*
G01X6968Y13385D02*
G01X6968Y13897D01*
G01X10723Y8622D02*
G01X7480Y8622D01*
G54D43*
G01X7480Y8622D03*
G01X7952Y17165D03*
G54D42*
G01X7952Y17165D02*
G01X7966Y17179D01*
G01X7966Y17179D02*
G01X7966Y18562D01*
G01X4748Y8622D02*
G01X7480Y8622D01*
G01X9177Y787D02*
G01X9173Y787D01*
G54D43*
G01X9173Y787D03*
G54D42*
G01X10723Y17598D02*
G01X10708Y17598D01*
G01X10708Y17598D02*
G01X9966Y18340D01*
G01X9966Y18340D02*
G01X9966Y18562D01*
G01X10723Y15629D02*
G01X10708Y15629D01*
G54D43*
G01X10708Y15629D03*
G01X9448Y15629D03*
G54D42*
G01X9448Y15629D02*
G01X6574Y15629D01*
G01X6574Y15629D02*
G01X5966Y15021D01*
G01X5966Y15021D02*
G01X5966Y14507D01*
G01X4148Y11614D02*
G01X2586Y11614D01*
G01X10723Y9606D02*
G01X8976Y9606D01*
G54D43*
G01X8976Y9606D03*
G01X8464Y17165D03*
G54D42*
G01X8464Y17165D02*
G01X8466Y17167D01*
G01X8466Y17167D02*
G01X8466Y18562D01*
G01X4748Y9606D02*
G01X8976Y9606D01*
G01X11323Y14606D02*
G01X12913Y14606D01*
G01X12913Y14606D02*
G01X12885Y14614D01*
G01X4148Y10629D02*
G01X2598Y10629D01*
G01X2598Y10629D02*
G01X2586Y10614D01*
G01X4748Y13622D02*
G01X4724Y13661D01*
G01X4724Y13661D02*
G01X4724Y13858D01*
G01X4724Y13858D02*
G01X4449Y14133D01*
G01X4449Y14133D02*
G01X3779Y14133D01*
G54D43*
G01X3779Y14133D03*
G01X8976Y19291D03*
G54D42*
G01X8976Y19291D02*
G01X8966Y19281D01*
G01X8966Y19281D02*
G01X8966Y18562D01*
G01X4748Y6614D02*
G01X6456Y6614D01*
G54D43*
G01X6456Y6614D03*
G01X6456Y13897D03*
G54D42*
G01X6456Y13897D02*
G01X6466Y13907D01*
G01X6466Y13907D02*
G01X6466Y14507D01*
G54D44*
G01X7834Y20452D02*
G01X7834Y19724D01*
G01X7834Y19724D02*
G01X7440Y19330D01*
G01X7440Y19330D02*
G01X6766Y19330D01*
G01X6766Y19330D02*
G01X6466Y19021D01*
G01X6466Y19021D02*
G01X6466Y18562D01*
G54D42*
G01X11323Y15629D02*
G01X12913Y15629D01*
G01X12913Y15629D02*
G01X12885Y15614D01*
G01X4148Y9606D02*
G01X2559Y9606D01*
G01X2559Y9606D02*
G01X2586Y9614D01*
G01X10723Y10629D02*
G01X10748Y10629D01*
G01X10748Y10629D02*
G01X8464Y10629D01*
G54D43*
G01X8464Y10629D03*
G01X8464Y13897D03*
G54D42*
G01X8464Y13897D02*
G01X8466Y13899D01*
G01X8466Y13899D02*
G01X8466Y14507D01*
G01X4748Y10629D02*
G01X8464Y10629D01*
G01X6362Y12755D02*
G01X6338Y12755D01*
G01X6338Y12755D02*
G01X6392Y12810D01*
G01X6392Y12810D02*
G01X6392Y13385D01*
G01X11323Y16614D02*
G01X12885Y16614D01*
G01X4148Y8622D02*
G01X2598Y8622D01*
G01X2598Y8622D02*
G01X2586Y8614D01*
G01X8149Y20452D02*
G01X9704Y20452D01*
G01X9704Y20452D02*
G01X10236Y20984D01*
G01X10236Y20984D02*
G01X10236Y20959D01*
G01X11023Y21559D02*
G01X11023Y22759D01*
G01X11023Y21559D02*
G01X10773Y21559D01*
G01X10773Y21559D02*
G01X10629Y21422D01*
G01X10629Y21422D02*
G01X10629Y21106D01*
G01X10629Y21106D02*
G01X10489Y20959D01*
G01X10489Y20959D02*
G01X10236Y20959D01*
G01X11323Y17598D02*
G01X12874Y17598D01*
G01X12874Y17598D02*
G01X12885Y17614D01*
G01X4148Y7598D02*
G01X2598Y7598D01*
G01X2598Y7598D02*
G01X2559Y7637D01*
G01X2559Y7637D02*
G01X2586Y7614D01*
G54D44*
G01X7519Y20452D02*
G01X7519Y19802D01*
G01X7519Y19802D02*
G01X7323Y19606D01*
G01X7323Y19606D02*
G01X6536Y19606D01*
G01X6536Y19606D02*
G01X5966Y19036D01*
G01X5966Y19036D02*
G01X5966Y18562D01*
G01X13885Y6614D02*
G01X13413Y6141D01*
G01X13413Y6141D02*
G01X11850Y6141D01*
G01X11850Y6141D02*
G01X11338Y5629D01*
G01X11338Y5629D02*
G01X11323Y5629D01*
G54D42*
G01X4148Y6614D02*
G01X2559Y6614D01*
G01X2559Y6614D02*
G01X2586Y6614D01*
G01X11323Y9606D02*
G01X12834Y9606D01*
G01X12834Y9606D02*
G01X12874Y9645D01*
G01X12874Y9645D02*
G01X12885Y9614D01*
G01X12885Y6614D02*
G01X11323Y6614D01*
G01X4148Y5629D02*
G01X2598Y5629D01*
G01X2598Y5629D02*
G01X2586Y5614D01*
G01X10723Y16614D02*
G01X10708Y16614D01*
G01X10708Y16614D02*
G01X9966Y15872D01*
G01X9966Y15872D02*
G01X9966Y14507D01*
G01X4748Y15629D02*
G01X5733Y16614D01*
G01X5733Y16614D02*
G01X10748Y16614D01*
G01X10748Y16614D02*
G01X10723Y16614D01*
G01X4748Y11614D02*
G01X5221Y11141D01*
G01X5221Y11141D02*
G01X9960Y11141D01*
G54D43*
G01X9960Y11141D03*
G01X9960Y13110D03*
G54D42*
G01X9960Y13110D02*
G01X9330Y13110D01*
G01X9330Y13110D02*
G01X8966Y13474D01*
G01X8966Y13474D02*
G01X8966Y14507D01*
G01X10723Y13622D02*
G01X10708Y13622D01*
G01X10708Y13622D02*
G01X10196Y13110D01*
G01X10196Y13110D02*
G01X9960Y13110D01*
G54D44*
G01X1586Y16614D02*
G01X2098Y17125D01*
G01X2098Y17125D02*
G01X3661Y17125D01*
G01X3661Y17125D02*
G01X4133Y17598D01*
G01X4133Y17598D02*
G01X4148Y17598D01*
G54D42*
G01X11323Y8622D02*
G01X12834Y8622D01*
G01X12834Y8622D02*
G01X12885Y8614D01*
G01X12885Y7614D02*
G01X12874Y7637D01*
G01X12874Y7637D02*
G01X12834Y7598D01*
G01X12834Y7598D02*
G01X11323Y7598D01*
G01X2586Y16614D02*
G01X4148Y16614D01*
G01X9335Y21515D02*
G01X9173Y21496D01*
G01X9173Y21496D02*
G01X9237Y21559D01*
G01X9237Y21559D02*
G01X10236Y21559D01*
G01X7086Y21850D02*
G01X6023Y21850D01*
G01X6023Y21850D02*
G01X6018Y21515D01*
G01X8267Y21850D02*
G01X9409Y21850D01*
G01X9409Y21850D02*
G01X9335Y21515D01*
G54D44*
G01X7086Y21850D02*
G01X7204Y21732D01*
G01X7204Y21732D02*
G01X7204Y20452D01*
G54D43*
G01X5472Y17716D03*
G54D42*
G01X5472Y17716D02*
G01X5466Y17722D01*
G01X5466Y17722D02*
G01X5466Y18562D01*
G01X7177Y787D02*
G01X7165Y787D01*
G54D43*
G01X7165Y787D03*
G54D42*
G01X9055Y2952D02*
G01X9094Y2952D01*
G54D43*
G01X9094Y2952D03*
G54D42*
G01X5762Y12755D02*
G01X5748Y12755D01*
G54D43*
G01X5748Y12755D03*
G54D42*
G01X11323Y10629D02*
G01X12874Y10629D01*
G01X12874Y10629D02*
G01X12885Y10614D01*
G01X4148Y13622D02*
G01X2637Y13622D01*
G01X2637Y13622D02*
G01X2598Y13582D01*
G01X2598Y13582D02*
G01X2586Y13614D01*
G01X4748Y12598D02*
G01X5221Y12125D01*
G01X5221Y12125D02*
G01X9448Y12125D01*
G54D43*
G01X9448Y12125D03*
G01X9448Y13897D03*
G54D42*
G01X9448Y13897D02*
G01X9466Y13915D01*
G01X9466Y13915D02*
G01X9466Y14507D01*
G01X10723Y14606D02*
G01X10708Y14566D01*
G01X10708Y14566D02*
G01X10708Y14370D01*
G01X10708Y14370D02*
G01X10236Y13897D01*
G01X10236Y13897D02*
G01X9448Y13897D01*
G01X2586Y15614D02*
G01X2598Y15590D01*
G01X2598Y15590D02*
G01X2637Y15629D01*
G01X2637Y15629D02*
G01X4148Y15629D01*
G01X11323Y11614D02*
G01X12885Y11614D01*
G01X4148Y14606D02*
G01X2519Y14606D01*
G01X2519Y14606D02*
G01X2586Y14614D01*
G01X11323Y12598D02*
G01X12913Y12598D01*
G01X12913Y12598D02*
G01X12885Y12614D01*
G01X4148Y12598D02*
G01X2598Y12598D01*
G01X2598Y12598D02*
G01X2586Y12614D01*
G01X6966Y18562D02*
G01X6966Y17718D01*
G01X6966Y17718D02*
G01X6968Y17716D01*
G54D43*
G01X6968Y17716D03*
G54D42*
G01X4748Y17598D02*
G01X5142Y17204D01*
G01X5142Y17204D02*
G01X6456Y17204D01*
G01X6456Y17204D02*
G01X6968Y17716D01*
G01X10723Y5629D02*
G01X10708Y5629D01*
G54D43*
G01X10708Y5629D03*
G54D42*
G01X11323Y13622D02*
G01X12874Y13622D01*
G01X12874Y13622D02*
G01X12885Y13614D01*
G01X4748Y14606D02*
G01X4724Y14606D01*
G01X4724Y14606D02*
G01X4724Y14842D01*
G01X4724Y14842D02*
G01X4448Y15118D01*
G01X4448Y15118D02*
G01X4251Y15118D01*
G54D43*
G01X4251Y15118D03*
G01X9448Y18582D03*
G54D42*
G01X9448Y18582D02*
G01X9466Y18564D01*
G01X9466Y18564D02*
G01X9466Y18562D01*
G01X10723Y11614D02*
G01X10748Y11614D01*
G01X10748Y11614D02*
G01X7952Y11614D01*
G54D43*
G01X7952Y11614D03*
G01X7952Y13897D03*
G54D42*
G01X7952Y13897D02*
G01X7966Y13911D01*
G01X7966Y13911D02*
G01X7966Y14507D01*
G01X10723Y7598D02*
G01X8622Y7598D01*
G01X8622Y7598D02*
G01X7834Y6810D01*
G01X7834Y6810D02*
G01X7834Y2008D01*
G01X7834Y2008D02*
G01X8177Y1665D01*
G01X8177Y1665D02*
G01X8177Y787D01*
G01X4748Y7598D02*
G01X7045Y7598D01*
G01X7045Y7598D02*
G01X7834Y6810D01*
G01X4748Y7598D02*
G01X4763Y7598D01*
G54D43*
G01X4763Y7598D03*
G01X7480Y18582D03*
G54D42*
G01X7480Y18582D02*
G01X7466Y18568D01*
G01X7466Y18568D02*
G01X7466Y18562D01*
G01X5466Y14507D02*
G01X5466Y15624D01*
G01X5466Y15624D02*
G01X5472Y15629D01*
G54D43*
G01X5472Y15629D03*
G54D42*
G01X6177Y787D02*
G01X6181Y787D01*
G54D43*
G01X6181Y787D03*

G04 Draw Text*
M00*
M02*
