<?xml version="1.0" encoding="UTF-8" standalone="no"?>
<!-- Created with Inkscape (http://www.inkscape.org/) -->

<svg
   xmlns:dc="http://purl.org/dc/elements/1.1/"
   xmlns:cc="http://creativecommons.org/ns#"
   xmlns:rdf="http://www.w3.org/1999/02/22-rdf-syntax-ns#"
   xmlns:svg="http://www.w3.org/2000/svg"
   xmlns="http://www.w3.org/2000/svg"
   xmlns:sodipodi="http://sodipodi.sourceforge.net/DTD/sodipodi-0.dtd"
   xmlns:inkscape="http://www.inkscape.org/namespaces/inkscape"
   width="256"
   height="256"
   id="svg2"
   version="1.1"
   inkscape:version="0.92.3 (2405546, 2018-03-11)"
   sodipodi:docname="Icon.svg"
   inkscape:export-filename="C:\JPT\Projects\12\1204 - Gerber2pdf\Icon\Icon-16.png"
   inkscape:export-xdpi="6"
   inkscape:export-ydpi="6">
  <defs
     id="defs4" />
  <sodipodi:namedview
     id="base"
     pagecolor="#ffffff"
     bordercolor="#666666"
     borderopacity="1.0"
     inkscape:pageopacity="0.0"
     inkscape:pageshadow="2"
     inkscape:zoom="0.70710678"
     inkscape:cx="11.939255"
     inkscape:cy="193.34043"
     inkscape:document-units="px"
     inkscape:current-layer="layer2"
     showgrid="false"
     inkscape:window-width="1920"
     inkscape:window-height="1017"
     inkscape:window-x="1592"
     inkscape:window-y="-8"
     inkscape:window-maximized="1"
     showguides="true"
     inkscape:guide-bbox="true"
     inkscape:snap-global="true"
     inkscape:snap-smooth-nodes="true" />
  <metadata
     id="metadata7">
    <rdf:RDF>
      <cc:Work
         rdf:about="">
        <dc:format>image/svg+xml</dc:format>
        <dc:type
           rdf:resource="http://purl.org/dc/dcmitype/StillImage" />
        <dc:title />
      </cc:Work>
    </rdf:RDF>
  </metadata>
  <g
     inkscape:label="PDF Text"
     inkscape:groupmode="layer"
     id="layer1"
     transform="translate(0,-796.36218)"
     style="display:inline">
    <rect
       style="fill:#d01f24;fill-opacity:1;stroke:none"
       id="rect2996"
       width="247.5"
       height="70"
       x="4.6428571"
       y="978.43359" />
    <g
       aria-label="PDF"
       style="font-style:normal;font-variant:normal;font-weight:normal;font-stretch:normal;line-height:0%;font-family:'Times New Roman';-inkscape-font-specification:'Times New Roman';letter-spacing:0px;word-spacing:0px;fill:#ffffff;fill-opacity:1;stroke:none"
       id="text2998">
      <path
         d="m 55.820316,1042.3622 v -57.26564 h 18.554688 q 10.546875,0 13.75,0.85937 4.921875,1.28907 8.242187,5.625 3.320313,4.29688 3.320313,11.13277 0,5.2735 -1.914063,8.8672 -1.914062,3.5938 -4.882812,5.6641 -2.929688,2.0312 -5.976563,2.6953 -4.140625,0.8203 -11.992187,0.8203 h -7.539063 v 21.6016 z m 11.5625,-47.57814 v 16.25004 h 6.328125 q 6.835938,0 9.140625,-0.8985 2.304688,-0.8984 3.59375,-2.8125 1.328125,-1.914 1.328125,-4.4531 0,-3.125 -1.835937,-5.15625 -1.835938,-2.03125 -4.648438,-2.53907 -2.070312,-0.39062 -8.320312,-0.39062 z"
         style="font-style:normal;font-variant:normal;font-weight:bold;font-stretch:normal;font-size:80px;line-height:1.25;font-family:Arial;-inkscape-font-specification:'Arial Bold';fill:#ffffff;fill-opacity:1"
         id="path922" />
      <path
         d="m 109.21875,985.09656 h 21.13282 q 7.14843,0 10.89843,1.09375 5.03907,1.48437 8.63282,5.27344 3.59375,3.78906 5.46875,9.29685 1.875,5.4688 1.875,13.5156 0,7.0704 -1.75782,12.1875 -2.14843,6.25 -6.13281,10.1172 -3.00781,2.9297 -8.125,4.5703 -3.82812,1.211 -10.23437,1.211 h -21.75782 z m 11.5625,9.6875 v 37.92964 h 8.63282 q 4.84375,0 6.99218,-0.5468 2.8125,-0.7032 4.64844,-2.3828 1.875,-1.6797 3.04688,-5.5079 1.17187,-3.8671 1.17187,-10.5078 0,-6.6406 -1.17187,-10.1953 -1.17188,-3.5547 -3.28125,-5.54685 -2.10938,-1.99219 -5.35157,-2.69532 -2.42187,-0.54687 -9.49218,-0.54687 z"
         style="font-style:normal;font-variant:normal;font-weight:bold;font-stretch:normal;font-size:80px;line-height:1.25;font-family:Arial;-inkscape-font-specification:'Arial Bold';fill:#ffffff;fill-opacity:1"
         id="path924" />
      <path
         d="m 167.14844,1042.3622 v -57.26564 h 39.25781 v 9.6875 h -27.69531 v 13.55464 h 23.90625 v 9.6875 h -23.90625 v 24.336 z"
         style="font-style:normal;font-variant:normal;font-weight:bold;font-stretch:normal;font-size:80px;line-height:1.25;font-family:Arial;-inkscape-font-specification:'Arial Bold';fill:#ffffff;fill-opacity:1"
         id="path926" />
    </g>
  </g>
  <g
     inkscape:groupmode="layer"
     id="layer2"
     inkscape:label="Gerber"
     style="display:inline">
    <g
       id="g955"
       transform="matrix(0.6906051,0,0,0.6906051,41.353466,3.7470274)">
      <g
         transform="translate(23.478127,-15.423553)"
         style="display:inline"
         inkscape:label="Background"
         id="layer5">
        <ellipse
           ry="125.07469"
           rx="125.03352"
           cy="141.49825"
           cx="102.5554"
           id="path917"
           style="opacity:1;fill:#d01f24;fill-opacity:1;stroke:none;stroke-width:0.91837263;stroke-linecap:butt;stroke-linejoin:miter;stroke-miterlimit:4;stroke-dasharray:none;stroke-dashoffset:0;stroke-opacity:1;paint-order:normal" />
      </g>
      <g
         transform="translate(23.478127,-15.423553)"
         style="display:inline"
         inkscape:label="X2"
         id="layer7">
        <path
           inkscape:connector-curvature="0"
           id="path934"
           d="m 133.02392,208.41662 v -7.46163 c 8.85677,-8.69896 19.06795,-18.62554 25.4041,-28.79913 0.6899,-1.29439 0.84169,-1.88003 0.84169,-3.24743 0,-3.48207 -2.49852,-5.51952 -7.63599,-6.22684 -2.07303,-0.28541 -4.68774,-0.10526 -6.04714,0.12104 -3.21336,0.53684 -6.42635,1.07583 -9.63953,1.61376 l 1.3704,-8.25745 9.84758,-1.39974 c 12.82551,-1.82302 21.86773,1.42702 24.76299,7.51936 2.18417,4.59604 0.84521,9.75069 -4.37191,16.83067 -2.9175,3.95924 -10.53068,11.84718 -15.87313,17.72277 l -3.5386,3.89173 22.84086,-0.34935 -0.59259,8.04224 z"
           style="display:inline;fill:#2c1d1e;stroke-width:0.26458332"
           sodipodi:nodetypes="cccsscccsssscccc" />
        <path
           sodipodi:nodetypes="ccccccccccccc"
           inkscape:connector-curvature="0"
           id="path833"
           d="M 80.233707,155.35826 H 93.20328 l 9.89426,17.41262 13.67104,-17.41262 h 12.87169 l -19.7473,25.37397 18.20935,27.68439 H 114.21721 L 102.53834,190.18243 88.347586,208.41662 H 75.111257 l 21.536642,-27.43093 z"
           style="opacity:1;fill:#221f20;fill-opacity:1;stroke:none;stroke-width:2.63899994;stroke-linecap:butt;stroke-linejoin:miter;stroke-miterlimit:4;stroke-dasharray:none;stroke-dashoffset:0;stroke-opacity:1;paint-order:normal" />
      </g>
      <g
         transform="translate(23.478127,-15.423553)"
         style="display:inline"
         inkscape:label="TM"
         id="layer8">
        <path
           sodipodi:nodetypes="ccccccccc"
           d="m 180.57637,154.29671 v -8.3007 h -3.07795 v -1.92976 h 8.08809 v 1.92976 h -3.00834 v 8.3007 z"
           style="font-style:normal;font-variant:normal;font-weight:normal;font-stretch:normal;font-size:medium;line-height:125%;font-family:Arial;-inkscape-font-specification:Arial;text-align:center;letter-spacing:0px;word-spacing:0px;text-anchor:middle;fill:#221f20;fill-opacity:1;stroke:none;stroke-width:1.77542591px;stroke-linecap:butt;stroke-linejoin:miter;stroke-opacity:1"
           id="path946"
           inkscape:connector-curvature="0" />
        <path
           sodipodi:nodetypes="cccccccccccccc"
           d="m 186.98696,154.29671 v -10.23046 h 2.59551 c 0.89229,2.89538 1.30975,4.39313 2.1659,7.28521 0.88616,-2.78979 1.34404,-4.34751 2.3204,-7.28521 h 2.53899 v 10.23046 h -1.74022 v -7.54039 l -2.3676,7.54039 h -1.50203 l -2.33754,-7.30438 v 7.30438 z"
           style="font-style:normal;font-variant:normal;font-weight:normal;font-stretch:normal;font-size:medium;line-height:125%;font-family:Arial;-inkscape-font-specification:Arial;text-align:center;letter-spacing:0px;word-spacing:0px;text-anchor:middle;fill:#221f20;fill-opacity:1;stroke:none;stroke-width:1.7384944px;stroke-linecap:butt;stroke-linejoin:miter;stroke-opacity:1"
           id="path948"
           inkscape:connector-curvature="0" />
        <ellipse
           ry="14.235863"
           rx="14.068925"
           cy="149.4948"
           cx="186.8856"
           id="path961"
           style="opacity:1;fill:none;fill-opacity:1;stroke:#221f20;stroke-width:2.63899994;stroke-linecap:butt;stroke-linejoin:miter;stroke-miterlimit:4;stroke-dasharray:none;stroke-dashoffset:0;stroke-opacity:1;paint-order:normal" />
      </g>
      <g
         transform="translate(23.478127,-15.423553)"
         style="display:inline"
         inkscape:label="gbr"
         id="layer4">
        <path
           sodipodi:nodetypes="ccccccccccscccccccccscsccsccccccccccccccccccsccscccsccsccccccccccccc"
           style="display:inline;fill:#ffffff;fill-opacity:1;stroke-width:0.26458332"
           d="m 47.813988,173.16266 c 6.02887,-1.04073 9.66923,-2.69011 12.81895,-5.80802 3.29199,-3.25875 4.48383,-5.89407 5.41473,-11.97269 0.47121,-3.07704 0.59719,-5.58753 0.79421,-15.82793 0.385697,-17.81988 1.224815,-28.89628 2.432956,-46.329807 -10.11811,-1.086953 -21.800598,-3.233338 -31.911876,-1.753215 -8.614915,1.463494 -15.865304,4.444278 -21.34113,10.747952 -4.923754,6.23388 -6.7735209,12.74047 -7.41086,19.34336 -0.1805148,4.67482 -0.032726,7.53596 1.53227,12.19092 3.31439,9.59771 11.86844,15.05919 22.84848,14.58798 7.08609,-0.30409 11.79224,-2.15173 15.79565,-6.20137 2.73734,-2.76895 3.10351,-2.81993 2.89503,-0.40305 -0.360881,5.38268 -0.90361,13.83291 -4.61018,17.27949 -4.89441,4.30824 -13.81798,4.78398 -27.08082,1.44377 l -6.009517,-1.37251 1.046434,11.66537 c 6.220568,1.2571 12.466763,2.19293 18.762773,2.90502 2.1855,0.25228 11.62331,-0.0811 14.02291,-0.49531 z m -15.01756,-36.3967 c -4.15425,-1.20183 -6.92647,-4.07454 -8.28859,-8.58903 -0.8757,-2.90235 -0.89681,-8.00702 -0.0454,-10.9802 2.18914,-7.64472 6.37267,-12.04453 13.40582,-14.09885 1.55592,-0.45448 3.990072,-0.69731 6.37387,-0.56674 l 8.733994,0.47842 -0.366434,8.76321 c -0.399138,9.54533 -1.33173,14.31454 -3.16794,17.59479 -1.1417,2.03955 -3.20477,4.46129 -4.73256,5.55532 -3.05461,2.18736 -8.05082,2.96035 -11.91275,1.84308 z m 94.774962,8.11999 c 7.34048,-5.31237 11.81757,-15.57623 11.77266,-26.98914 0.12313,-8.16263 -3.42231,-18.049008 -10.27138,-22.765574 -4.88431,-3.229745 -12.0208,-4.563293 -20.88999,-3.903573 L 97.664666,92.24651 99.394052,73.591027 H 83.362828 c -0.198639,12.328436 -0.663231,25.226193 -1.179176,36.552023 -0.577039,12.47914 -1.443275,24.95622 -2.27992,37.48077 h 15.044001 l 0.04569,-7.82038 2.030327,2.0468 c 5.98557,5.83576 10.44839,7.13345 17.46524,6.96456 4.77254,-0.15411 9.32209,-1.25199 13.0824,-3.92885 z m -22.23435,-7.94777 c -5.954152,-1.92913 -8.617922,-6.62765 -8.974032,-15.82896 l 0.55358,-17.13762 7.514522,-1.63333 c 7.86843,-1.71025 13.17841,0.98621 16.37356,5.72053 1.92241,2.84845 2.6827,5.80782 2.67494,10.412 -0.0134,7.93485 -2.5667,13.98539 -7.27083,17.22934 -2.76795,1.90876 -7.23243,2.41717 -10.87174,1.23804 z m 58.37622,3.51614 c -0.025,-8.00097 0.33492,-15.26045 1.03503,-20.87634 0.79656,-6.38961 1.74229,-8.76861 4.76709,-11.9917 2.67016,-2.84521 5.50163,-4.01965 9.66423,-4.00853 1.2295,0 2.20895,0.11285 3.49259,0.46302 l 2.60969,0.71192 -0.71437,-13.367555 -4.40531,-0.226954 c -3.33722,0.02109 -3.81188,0.0877 -5.91411,0.830048 -4.37486,1.762041 -6.13426,3.919359 -9.27822,6.868289 l 0.20226,-6.570031 h -14.76157 c -0.18468,8.549973 -0.36917,18.001133 -0.6722,25.895363 -0.39633,10.28239 -0.99888,19.11201 -1.65252,29.43791 h 15.62591 z"
           id="path884-7"
           inkscape:connector-curvature="0" />
      </g>
    </g>
  </g>
</svg>
